<?xml version="1.0" standalone="no"?>
<!DOCTYPE svg PUBLIC "-//W3C//DTD SVG 20010904//EN"
 "http://www.w3.org/TR/2001/REC-SVG-20010904/DTD/svg10.dtd">
<svg version="1.0" xmlns="http://www.w3.org/2000/svg"
 width="1024.000000pt" height="1024.000000pt" viewBox="0 0 1024.000000 1024.000000"
 preserveAspectRatio="xMidYMid meet">

<g transform="translate(0.000000,1024.000000) scale(0.100000,-0.100000)"
fill="#000000" stroke="none">
<path d="M2212 8366 c-87 -21 -198 -82 -267 -147 -75 -71 -116 -131 -159 -237
l-31 -77 -5 -2790 c-3 -1534 -3 -2936 0 -3115 l5 -325 33 -79 c56 -136 146
-244 267 -321 36 -23 62 -49 75 -75 11 -22 23 -40 26 -40 3 0 2 4 -1 10 -3 5
-2 10 4 10 6 0 16 -11 23 -24 7 -14 16 -25 21 -25 4 -1 12 -1 19 -1 6 0 3 -7
-8 -15 -16 -12 -17 -14 -2 -15 9 0 24 -7 32 -16 9 -8 20 -12 26 -9 5 3 10 -3
10 -13 0 -20 29 -26 41 -8 4 5 12 5 18 1 9 -5 9 -10 0 -21 -9 -11 -8 -14 2
-15 29 -3 54 3 61 15 6 8 8 8 8 -1 0 -7 6 -13 14 -13 8 0 16 -6 19 -12 3 -10
8 -9 22 2 17 14 18 13 12 -4 -7 -16 -5 -17 9 -6 13 11 17 11 24 1 5 -9 10 -10
14 -2 4 6 14 11 22 11 8 0 13 -4 10 -9 -11 -16 18 -19 37 -3 15 14 17 13 18
-4 0 -10 3 -14 5 -8 3 7 14 10 24 7 11 -3 20 0 20 6 0 8 6 9 18 3 9 -5 25 -8
35 -7 9 2 17 -1 17 -6 0 -5 12 -6 27 -3 15 4 33 7 39 7 7 0 9 7 6 16 -5 14 -4
14 10 1 9 -8 14 -18 12 -22 -3 -4 12 -4 32 -1 32 5 36 4 31 -10 -8 -21 -3 -21
18 0 14 14 22 15 47 5 17 -6 28 -8 24 -5 -8 8 13 33 28 33 7 0 6 -3 -2 -9 -10
-6 -9 -11 4 -22 12 -9 15 -10 10 -1 -10 16 45 16 63 -1 11 -10 11 -8 2 10 -10
19 -9 22 4 17 8 -4 15 -9 15 -13 0 -8 68 -6 77 3 13 13 21 5 15 -16 -5 -20 -4
-21 11 -9 9 7 14 17 11 22 -3 5 2 6 10 3 9 -3 16 -10 16 -16 0 -5 4 -7 10 -3
5 3 7 12 3 20 -3 8 0 15 7 15 6 0 9 -4 6 -8 -2 -4 4 -13 14 -20 16 -10 22 -8
35 10 8 13 15 17 15 11 0 -6 9 -9 20 -6 11 3 27 0 35 -7 8 -7 15 -8 15 -3 0
16 110 9 122 -8 8 -11 9 -10 4 3 -6 21 5 23 22 6 9 -9 12 -9 12 0 0 15 36 16
45 1 5 -6 12 -4 22 8 8 10 12 13 9 6 -4 -6 -2 -14 4 -18 5 -3 10 -1 10 5 0 7
7 9 15 6 8 -3 22 -9 30 -12 9 -4 15 -3 14 2 -4 23 2 26 15 9 11 -16 16 -17 29
-7 13 11 17 10 25 -4 6 -11 11 -13 16 -5 4 6 18 11 31 11 19 0 23 4 18 17 -6
16 -5 16 22 -1 20 -13 30 -15 33 -8 2 7 8 12 14 12 6 0 7 -8 3 -18 -5 -14 -4
-15 6 -4 15 14 43 17 35 3 -4 -5 3 -7 14 -4 11 3 17 10 14 17 -3 6 1 3 9 -7
10 -12 17 -15 22 -7 4 6 15 8 25 5 10 -3 21 -1 25 5 3 6 10 8 14 6 17 -11 122
-16 116 -6 -3 6 1 10 10 10 8 0 19 -8 22 -17 6 -15 7 -15 14 3 7 17 8 18 8 1
1 -13 6 -17 20 -12 12 3 21 0 25 -10 3 -9 11 -13 17 -10 6 4 8 13 5 21 -7 19
4 17 20 -3 13 -17 14 -17 8 1 -6 16 -4 17 13 8 14 -8 23 -8 31 0 7 7 12 8 12
2 0 -5 11 -9 25 -9 14 0 25 3 25 7 0 4 7 5 15 2 9 -4 15 0 15 7 0 12 2 12 9 0
8 -13 97 -18 109 -6 3 2 11 0 19 -6 9 -9 13 -8 13 0 0 6 5 11 11 11 5 0 7 -5
4 -10 -3 -6 -1 -10 4 -10 6 0 11 5 11 11 0 7 5 8 13 3 22 -17 52 -10 49 10 -3
18 -2 18 13 2 19 -19 20 -19 47 -5 15 8 19 8 14 0 -4 -6 0 -11 8 -11 9 0 16 4
16 9 0 6 12 8 28 7 15 -2 27 -5 27 -6 0 -1 12 -3 27 -4 15 -1 24 2 22 6 -3 4
4 8 15 8 12 0 21 -4 21 -10 0 -11 59 -2 78 13 9 7 11 6 7 -5 -4 -9 0 -18 9
-21 10 -4 13 -1 10 7 -4 10 7 13 43 12 26 -1 55 2 64 8 21 12 53 0 43 -16 -6
-9 -3 -9 9 0 17 15 71 18 105 8 11 -4 23 -2 27 4 3 6 11 8 16 4 6 -3 5 -12 -3
-22 -11 -15 -11 -15 2 -6 21 15 73 27 66 15 -6 -9 72 -6 102 4 15 5 64 -13 73
-27 4 -7 9 -7 13 1 4 6 2 11 -3 11 -6 0 -11 4 -11 8 0 4 16 8 35 9 19 1 33 -3
30 -7 -3 -5 7 -5 22 -1 16 4 40 4 56 0 15 -4 27 -3 27 2 0 5 15 9 33 8 26 0
28 -2 12 -9 -14 -5 -7 -7 25 -6 25 0 48 6 53 11 5 7 10 7 15 0 11 -15 64 -13
58 2 -3 7 -1 13 3 13 5 0 11 -7 15 -15 4 -10 14 -14 31 -11 14 3 25 0 25 -5 0
-5 13 -3 28 5 26 13 31 13 45 -2 10 -9 17 -11 17 -6 0 13 47 6 56 -7 2 -4 15
-5 27 -1 12 5 32 7 45 6 17 -1 22 3 17 13 -4 11 -1 13 12 9 9 -4 20 -1 25 6 6
9 8 5 6 -11 -2 -15 3 -26 12 -29 8 -3 12 -1 8 3 -5 5 1 14 11 22 16 11 24 10
48 -2 34 -18 47 -19 37 -3 -5 7 -3 8 5 3 7 -4 34 -8 60 -9 26 -1 53 -6 60 -11
11 -6 13 -4 7 10 -6 16 -4 16 10 4 15 -12 16 -11 10 11 -6 21 -5 22 4 7 13
-20 36 -23 43 -4 3 7 6 4 6 -6 1 -12 5 -15 13 -11 7 4 28 7 47 5 19 -1 38 4
43 11 6 9 8 3 4 -17 -3 -16 -3 -24 0 -17 3 6 11 9 17 5 7 -4 8 0 4 11 -5 12
-3 15 5 10 18 -11 132 -11 140 1 5 6 8 5 8 -2 0 -7 5 -13 10 -13 6 0 10 6 10
14 0 11 5 12 24 3 13 -7 22 -15 20 -19 -6 -10 5 -9 31 2 11 5 14 9 8 9 -7 1
-13 6 -13 13 0 7 7 5 18 -5 9 -8 31 -18 47 -21 26 -6 27 -5 8 3 -24 11 -31 31
-12 31 5 0 7 -4 4 -10 -3 -5 1 -10 9 -10 9 0 16 4 16 10 0 5 7 7 15 4 8 -4 12
-10 9 -15 -3 -5 0 -9 5 -9 6 0 11 4 11 9 0 11 39 9 58 -3 7 -4 12 -2 12 5 0 7
3 9 7 6 3 -4 12 -2 20 5 11 9 13 8 11 -2 -2 -8 5 -16 16 -18 12 -3 16 0 11 8
-6 9 3 10 36 4 54 -11 123 -11 167 -2 25 6 31 5 26 -5 -5 -7 0 -5 11 3 10 8
16 11 13 5 -7 -11 287 -13 299 -2 13 13 25 7 19 -11 -4 -12 0 -10 14 7 l20 23
0 -23 c0 -14 3 -19 8 -13 4 6 15 10 25 8 9 -1 15 2 11 7 -3 5 6 9 20 9 14 0
26 -4 26 -10 0 -5 5 -10 11 -10 5 0 8 4 5 9 -3 4 21 8 54 7 33 0 60 3 60 7 0
9 41 -1 50 -12 7 -9 43 -11 60 -4 8 4 24 7 35 8 40 3 85 17 85 26 0 5 5 9 12
9 7 0 5 -7 -5 -18 -15 -16 -15 -18 3 -18 10 0 17 3 15 7 -3 3 3 15 11 25 15
18 15 18 11 -4 -3 -12 -1 -20 4 -16 5 3 9 12 9 20 0 8 7 14 15 14 8 0 15 6 15
13 0 9 2 9 8 0 12 -19 78 -11 78 8 0 11 -6 15 -16 12 -13 -4 -13 -4 0 6 21 15
30 14 30 -4 0 -8 5 -15 11 -15 6 0 9 9 6 20 -4 15 1 22 21 27 15 3 30 11 34
16 4 7 12 6 22 -2 11 -9 16 -10 16 -2 0 6 -4 11 -10 11 -5 0 -10 5 -10 11 0 6
7 8 16 5 8 -3 12 -2 9 4 -3 6 -1 10 6 10 8 0 8 4 -1 15 -11 13 -10 14 4 9 24
-9 52 4 38 18 -14 14 7 38 28 30 12 -4 12 -2 3 8 -9 10 -9 16 2 26 7 8 19 14
26 14 10 0 10 -3 1 -12 -7 -7 -12 -17 -12 -22 0 -6 6 -2 14 9 20 29 14 71 -10
67 -18 -3 -18 -3 -2 14 14 14 20 15 32 4 13 -10 16 -10 16 4 0 10 -4 15 -9 11
-5 -3 -12 -1 -16 5 -3 5 -1 10 6 10 7 0 5 8 -6 20 -10 11 -13 20 -7 20 7 0 12
-4 12 -10 0 -5 5 -10 11 -10 6 0 9 9 6 20 -3 11 -1 18 4 14 5 -3 9 1 9 10 0 8
3 16 8 19 4 2 2 3 -5 1 -6 -1 -14 7 -17 19 -9 33 -7 37 10 37 8 0 12 5 9 10
-4 6 -1 17 5 25 10 12 9 15 -4 15 -10 0 -14 5 -11 10 4 6 1 17 -5 25 -7 8 -9
15 -5 15 4 0 13 -8 20 -17 11 -14 13 -12 17 15 5 34 -1 39 -20 20 -7 -7 -12
-8 -12 -2 0 6 11 17 25 24 13 7 22 17 19 22 -3 5 -12 4 -20 -3 -9 -7 -14 -8
-14 -1 0 6 6 12 13 15 9 3 9 9 -1 26 -13 23 -3 28 16 9 9 -9 12 -8 12 4 0 9
-10 24 -22 34 -13 9 -16 14 -7 11 12 -4 15 3 13 34 -1 28 2 39 12 39 8 0 14 5
14 11 0 6 -6 9 -13 6 -19 -7 -43 8 -28 17 6 4 11 2 11 -5 0 -10 3 -10 13 0 10
11 10 14 0 18 -7 3 -13 9 -13 14 0 12 27 12 32 0 2 -5 10 -2 18 7 13 14 13 15
0 10 -8 -3 -24 -2 -35 3 -19 8 -19 8 3 15 12 3 22 11 22 16 0 6 -6 8 -13 5 -8
-3 -20 -1 -28 5 -11 8 -10 9 4 4 23 -7 24 29 1 38 -15 6 -15 8 1 26 9 10 24
16 33 13 11 -3 8 3 -8 18 -31 30 -39 79 -13 80 15 0 14 2 -3 9 -31 12 -38 28
-10 23 16 -3 23 0 23 12 0 9 -6 14 -13 11 -17 -7 -25 7 -29 51 -2 25 0 32 6
22 10 -16 11 -11 11 44 1 22 3 25 15 16 11 -9 12 -9 7 5 -3 9 -12 16 -20 16
-12 0 -12 4 -2 20 11 17 10 22 -2 30 -12 8 -10 10 8 10 13 0 20 4 17 10 -4 6
-11 8 -16 5 -5 -4 -9 -1 -9 6 0 6 -8 18 -17 26 -16 13 -16 13 5 3 13 -7 26 -9
30 -6 3 3 1 6 -5 6 -6 0 -13 16 -15 35 -3 26 -1 34 9 31 7 -3 13 -2 13 3 0 5
-9 11 -20 14 -24 6 -27 35 -5 44 14 5 14 8 -2 26 -17 19 -17 20 3 9 12 -7 26
-7 35 -1 10 6 11 9 1 9 -7 0 -10 4 -7 10 3 5 0 7 -8 4 -8 -3 -18 -1 -22 5 -3
6 1 11 9 11 22 0 20 30 -1 31 -17 0 -17 1 0 8 21 8 21 21 -1 37 -14 10 -14 13
0 32 8 12 19 19 24 14 4 -4 2 1 -5 11 -14 18 -26 24 -16 7 3 -5 1 -10 -4 -10
-14 0 -14 6 0 32 8 14 8 23 0 31 -17 17 -13 37 6 37 13 0 14 3 6 11 -6 6 -9
18 -6 26 3 7 2 13 -3 12 -20 -3 -28 2 -15 10 11 7 11 15 3 40 -7 18 -7 29 -2
26 6 -4 10 -1 10 4 0 6 -4 11 -10 11 -5 0 -10 4 -10 10 0 5 8 6 18 3 14 -6 15
-4 4 9 -10 12 -10 17 -1 20 9 3 10 12 1 36 -12 34 -3 41 21 17 13 -13 16 -12
22 2 3 10 3 14 -1 10 -4 -4 -16 0 -26 9 -16 16 -17 18 -1 29 18 13 28 49 11
38 -7 -4 -9 2 -6 15 5 17 2 22 -12 22 -11 0 -22 5 -26 12 -4 6 -3 8 4 4 6 -3
18 1 27 11 16 16 16 17 -1 23 -12 5 -14 9 -6 14 7 4 18 4 25 0 7 -5 7 -1 -2
10 -13 15 -13 19 0 27 11 8 10 9 -6 7 -13 -2 -24 -16 -32 -38 -11 -34 -11 -34
-9 21 1 30 6 61 11 69 5 9 4 15 -3 18 -7 2 -12 10 -12 17 0 8 -8 19 -17 25
-17 11 -17 11 0 6 10 -3 21 -6 23 -6 2 0 4 -7 4 -16 0 -8 5 -12 11 -8 6 3 15
1 19 -6 5 -8 10 -9 14 -2 3 6 -3 13 -14 17 -14 4 -20 15 -20 36 0 16 -5 29
-11 29 -8 0 -7 5 2 16 10 13 10 17 -2 25 -12 7 -12 9 2 9 11 0 16 10 17 37 1
20 7 40 14 44 7 4 9 11 5 15 -4 4 -16 -3 -27 -16 l-20 -24 2 25 c2 13 14 34
28 46 l24 22 -26 -4 c-15 -3 -30 1 -38 10 -12 15 -5 18 35 18 6 0 11 8 11 18
0 14 -5 17 -20 13 -16 -5 -17 -4 -5 9 8 8 18 13 22 10 13 -8 -14 41 -27 49 -6
4 -7 10 -3 15 7 7 21 -8 30 -32 3 -5 7 -7 11 -4 3 3 -5 18 -19 33 -26 28 -33
42 -15 31 6 -3 10 3 10 14 0 12 4 21 9 21 15 0 20 38 5 44 -20 8 -17 26 4 26
12 0 14 2 4 8 -7 5 -10 16 -6 25 5 13 2 16 -9 11 -13 -5 -15 -1 -8 23 4 15 6
34 3 42 -3 10 0 12 13 7 15 -5 16 -4 6 8 -7 8 -9 21 -5 27 4 8 3 9 -4 5 -23
-14 -12 33 10 49 l23 17 -22 -7 c-27 -8 -29 2 -6 27 14 15 14 18 2 13 -10 -4
-19 3 -27 19 -9 21 -8 25 10 29 11 3 17 10 13 16 -3 6 -11 8 -17 5 -8 -5 -9
-1 -4 11 4 11 2 22 -6 27 -9 5 -9 8 -1 8 6 0 19 -7 27 -16 23 -22 20 -8 -6 26
l-21 30 20 18 c18 15 19 20 8 35 -6 9 -15 14 -18 10 -4 -3 -7 -1 -7 5 0 7 6
12 13 12 7 0 13 9 14 20 2 24 -1 25 -23 3 -17 -17 -17 -17 -12 4 3 12 1 24 -6
27 -6 3 -1 3 10 1 14 -4 24 0 28 11 5 12 2 15 -11 10 -15 -6 -16 -5 -5 5 16
17 15 30 -2 23 -19 -7 -27 104 -8 122 14 15 16 28 2 19 -5 -3 -10 -1 -10 4 0
6 6 11 13 11 9 0 8 3 -2 9 -10 6 -10 13 -3 28 6 11 8 30 5 42 -5 18 -8 19 -21
9 -12 -10 -14 -10 -8 -1 4 7 2 23 -5 35 -9 19 -9 21 2 11 16 -16 37 -17 22 -2
-13 13 0 58 20 71 8 5 6 8 -5 8 -11 0 -15 5 -12 15 5 12 10 13 20 4 8 -6 14
-8 14 -3 0 5 5 2 11 -6 9 -13 10 -13 6 0 -2 8 -8 15 -13 16 -5 0 -17 4 -27 9
-16 7 -17 9 -2 25 11 12 13 20 6 25 -18 11 -12 37 9 42 l21 6 -21 14 c-14 10
-25 11 -33 5 -10 -8 -47 -13 -47 -7 0 2 8 9 17 16 14 12 16 12 9 0 -6 -9 -4
-12 5 -9 8 3 15 14 17 26 2 12 13 29 25 37 21 15 21 15 -8 16 -24 1 -25 3 -7
6 12 2 20 9 17 14 -17 26 -28 116 -16 124 6 3 11 14 11 23 0 15 -2 15 -11 2
-9 -13 -10 -13 -6 0 2 8 0 22 -4 32 -7 13 -5 15 12 11 18 -5 20 -3 15 15 -6
17 -3 20 13 17 25 -5 26 -2 4 16 -14 12 -16 12 -8 0 5 -10 4 -12 -3 -7 -15 9
-16 46 -2 46 6 0 10 5 10 11 0 6 -7 9 -15 6 -8 -4 -17 -1 -21 6 -4 7 -4 9 1 5
11 -10 34 22 34 47 0 15 -3 14 -11 -8 -5 -15 -14 -24 -19 -21 -6 3 -5 11 2 20
9 11 9 14 -1 14 -7 0 -2 10 11 21 l24 22 -22 -6 c-13 -3 -23 -2 -23 3 0 4 9
10 19 13 13 3 19 13 18 31 -1 14 -7 26 -13 26 -19 0 -25 40 -6 41 15 0 15 1
-1 7 -17 7 -16 9 3 30 16 17 17 22 6 22 -8 0 -18 5 -22 12 -5 8 0 9 15 5 17
-4 21 -2 18 11 -2 9 -10 16 -18 14 -9 -1 -8 2 4 12 18 14 18 14 -2 21 -12 3
-21 11 -21 16 0 13 18 11 22 -2 2 -7 9 -5 17 5 12 14 11 16 -5 16 -17 0 -17 1
2 15 11 8 14 14 6 15 -8 0 -11 9 -8 25 4 23 2 25 -17 19 -17 -5 -19 -4 -10 6
9 10 8 18 -4 37 -15 22 -14 23 3 17 18 -5 18 -5 0 10 -11 9 -17 19 -13 22 3 4
14 -2 24 -11 14 -14 18 -15 22 -4 2 8 9 17 15 21 6 5 1 8 -12 8 -13 0 -20 4
-17 10 3 6 -1 10 -9 10 -8 0 -18 -4 -21 -10 -3 -5 -14 -10 -23 -9 -14 0 -14 2
-2 6 8 3 23 14 33 25 10 10 23 15 29 12 6 -4 8 -3 4 4 -3 5 0 13 6 15 10 4 10
6 0 6 -8 1 -10 9 -6 26 4 16 2 25 -6 25 -7 0 -10 -7 -6 -15 3 -8 0 -15 -7 -15
-7 0 -13 9 -13 19 0 11 4 17 8 15 4 -3 8 0 8 6 0 6 4 9 9 6 4 -3 6 10 4 29 -3
29 -1 34 14 29 17 -5 17 -5 1 6 -10 6 -15 17 -11 27 4 10 2 14 -5 9 -6 -3 -13
-2 -17 4 -3 6 3 10 15 10 25 0 25 31 0 37 -13 4 -13 3 0 -6 19 -13 0 -14 -20
-1 -11 7 -11 10 -2 10 8 0 10 5 6 12 -5 8 -2 9 10 5 10 -4 15 -3 11 3 -3 6 1
13 10 16 14 6 14 8 -2 20 -10 7 -14 14 -9 14 5 0 2 8 -5 17 -12 15 -12 16 6
10 14 -5 10 0 -10 17 -24 20 -27 27 -16 35 11 7 11 9 0 13 -8 3 -10 9 -6 14 4
4 17 3 27 -4 16 -10 18 -9 14 3 -4 8 -15 15 -26 15 -17 0 -18 3 -8 14 6 8 19
12 28 9 14 -5 15 -4 6 8 -6 8 -10 26 -9 42 1 15 -2 27 -6 27 -5 0 -6 7 -3 15
4 8 1 15 -5 15 -7 0 -7 8 -2 23 5 12 14 21 21 19 6 -1 9 2 5 8 -3 6 -11 7 -17
4 -7 -5 -9 2 -4 20 4 18 3 25 -4 21 -5 -3 -10 1 -10 9 0 9 8 16 18 17 10 0 12
3 5 6 -7 2 -13 15 -13 29 0 18 4 22 18 17 14 -5 15 -4 6 8 -6 8 -12 21 -12 29
-5 55 -8 65 -25 64 -9 -1 -17 3 -17 8 0 6 11 8 23 6 13 -3 24 0 25 6 10 75 7
111 -10 128 -21 21 -23 29 -7 26 6 -2 13 5 14 15 3 15 -5 20 -25 19 -3 0 -5
11 -5 24 0 17 4 23 15 19 11 -3 11 -2 -1 7 -15 11 -15 13 3 28 17 13 19 20 10
37 -8 15 -8 25 3 40 14 19 13 21 -5 16 -26 -7 -25 7 2 43 12 16 16 24 8 17
-18 -17 -42 -5 -34 19 3 10 0 25 -6 33 -15 18 1 20 18 3 9 -9 12 -8 12 5 0 9
-11 19 -25 23 -22 5 -24 9 -13 22 8 10 8 13 2 9 -7 -4 -14 -1 -16 6 -8 20 2
36 18 30 8 -3 14 0 14 6 0 6 -6 10 -13 9 -6 -2 -12 6 -12 17 0 11 -5 25 -11
30 -15 13 -27 48 -14 40 6 -3 10 -1 10 5 0 7 7 9 16 6 9 -3 12 -2 9 5 -4 5
-16 7 -26 4 -14 -5 -20 -2 -18 7 5 41 -2 78 -16 78 -10 0 -15 10 -16 28 0 15
-2 38 -4 52 -3 14 -7 43 -10 65 -22 158 -170 352 -327 429 -147 72 126 66
-3153 65 -2367 -1 -2971 -3 -3013 -13z m6059 -116 c123 -37 233 -139 301 -278
l33 -67 3 -3088 2 -3088 -26 -77 c-32 -97 -71 -158 -141 -222 -71 -65 -130
-99 -212 -122 -63 -17 -186 -18 -2991 -18 -3192 0 -2985 -3 -3103 56 -28 15
-84 59 -123 98 -92 92 -140 187 -154 301 -6 49 -8 973 -7 2390 l2 2310 110 0
110 0 2 -2355 3 -2355 30 -61 c35 -72 82 -117 159 -152 l55 -25 2886 -2 c1587
-1 2907 2 2933 6 101 18 180 79 223 174 l25 53 -1 3074 0 3073 -25 52 c-44 90
-131 152 -240 172 -85 16 -837 15 -853 -1 -20 -20 -14 -47 11 -53 12 -3 216
-6 452 -8 l430 -2 47 -28 c53 -31 100 -92 117 -152 9 -30 11 -816 9 -3070 l-3
-3030 -28 -57 c-32 -64 -84 -113 -137 -128 -22 -6 -1079 -10 -2921 -10 -3191
0 -2944 -5 -3026 65 -23 19 -52 56 -65 83 l-23 47 -3 2410 c-4 3706 -4 3662
13 3716 21 62 82 123 143 143 41 14 92 17 300 15 137 -1 255 2 261 5 6 4 11
15 11 25 0 41 -18 43 -287 39 -237 -4 -263 -6 -313 -26 -67 -26 -130 -88 -162
-157 -22 -48 -23 -61 -23 -290 l0 -240 -110 0 -110 0 -3 195 c-1 107 2 226 7
264 14 100 75 220 144 281 100 91 167 122 282 133 39 4 1386 6 2995 5 2892 -3
2926 -3 2991 -23z m456 -557 c-3 -10 -5 -4 -5 12 0 17 2 24 5 18 2 -7 2 -21 0
-30z m40 -125 c-3 -8 -6 -5 -6 6 -1 11 2 17 5 13 3 -3 4 -12 1 -19z m-6827
-558 l0 -310 -40 0 -40 0 0 310 0 310 40 0 40 0 0 -310z m130 0 l0 -310 -30 0
-30 0 0 310 0 310 30 0 30 0 0 -310z m6753 250 c3 -11 2 -20 -3 -20 -4 0 -10
9 -13 20 -3 11 -2 20 3 20 4 0 10 -9 13 -20z m6 -212 c-5 -10 -15 -18 -22 -18
-8 0 -8 3 2 9 9 6 10 11 2 15 -8 5 -7 11 2 20 16 18 29 -2 16 -26z m11 -23 c0
-2 -10 -9 -22 -15 -22 -11 -22 -10 -4 4 21 17 26 19 26 11z m0 -29 c0 -3 -4
-8 -10 -11 -5 -3 -10 -1 -10 4 0 6 5 11 10 11 6 0 10 -2 10 -4z m-10 -110 c0
-2 -7 -7 -16 -10 -8 -3 -12 -2 -9 4 6 10 25 14 25 6z m-6890 -316 l0 -50 -40
0 -40 0 0 50 0 50 40 0 40 0 0 -50z m130 0 l0 -50 -35 0 -35 0 0 50 0 50 35 0
35 0 0 -50z m6765 -180 c-3 -5 -11 -10 -16 -10 -6 0 -7 5 -4 10 3 6 11 10 16
10 6 0 7 -4 4 -10z m-17 -135 c-3 -3 -9 2 -12 12 -6 14 -5 15 5 6 7 -7 10 -15
7 -18z m-4 -341 c3 -8 2 -12 -4 -9 -6 3 -10 10 -10 16 0 14 7 11 14 -7z m-11
-269 c-3 -9 -8 -14 -10 -11 -3 3 -2 9 2 15 9 16 15 13 8 -4z m-3 -595 c0 -5
-5 -10 -11 -10 -5 0 -7 5 -4 10 3 6 8 10 11 10 2 0 4 -4 4 -10z m-9 -267 c-12
-20 -14 -14 -5 12 4 9 9 14 11 11 3 -2 0 -13 -6 -23z m29 -348 c-7 -8 -17 -12
-23 -8 -6 4 -3 9 9 14 27 11 28 11 14 -6z m0 -310 c0 -8 -4 -15 -8 -15 -5 0
-9 7 -9 15 0 8 4 15 9 15 4 0 8 -7 8 -15z m-5 -43 c-3 -3 -11 0 -18 7 -9 10
-8 11 6 5 10 -3 15 -9 12 -12z m5 -117 c5 -6 2 -19 -7 -30 -15 -19 -15 -19
-10 5 4 14 2 31 -2 39 -5 8 -6 21 -3 30 5 12 8 10 10 -9 2 -14 8 -30 12 -35z
m25 -765 c8 -13 -5 -13 -25 0 -13 8 -13 10 2 10 9 0 20 -4 23 -10z m-53 -76
c-6 -11 -11 -13 -16 -5 -4 6 -2 11 3 11 6 0 11 8 12 18 0 9 3 12 5 5 3 -7 1
-20 -4 -29z m11 -304 c-3 -11 -9 -20 -15 -20 -5 0 -4 9 2 20 6 11 12 20 14 20
2 0 2 -9 -1 -20z m17 -100 c0 -5 -2 -10 -4 -10 -3 0 -8 5 -11 10 -3 6 -1 10 4
10 6 0 11 -4 11 -10z m-145 -1528 c-8 -8 -25 10 -19 20 4 6 9 5 15 -3 4 -7 6
-15 4 -17z m-195 -122 c0 -5 -5 -10 -11 -10 -5 0 -7 5 -4 10 3 6 8 10 11 10 2
0 4 -4 4 -10z m-6090 -29 c0 -5 -9 -11 -19 -14 -14 -3 -18 -1 -14 9 6 15 33
19 33 5z m2597 -17 c-3 -3 -12 -4 -19 -1 -8 3 -5 6 6 6 11 1 17 -2 13 -5z
m2658 -14 c3 -5 -1 -10 -10 -10 -9 0 -13 5 -10 10 3 6 8 10 10 10 2 0 7 -4 10
-10z m123 -15 c-3 -3 -9 2 -12 12 -6 14 -5 15 5 6 7 -7 10 -15 7 -18z m-3964
3 c-3 -4 -9 -8 -15 -8 -5 0 -9 4 -9 8 0 5 7 9 15 9 8 0 12 -4 9 -9z m-494 -2
c0 -3 -4 -8 -10 -11 -5 -3 -10 -1 -10 4 0 6 5 11 10 11 6 0 10 -2 10 -4z
m4107 -2 c-3 -3 -12 -4 -19 -1 -8 3 -5 6 6 6 11 1 17 -2 13 -5z"/>
<path d="M2983 8099 c-38 -38 3 -61 104 -57 59 2 78 7 87 20 18 30 -8 43 -97
46 -57 3 -86 0 -94 -9z"/>
<path d="M3649 8013 c-40 -25 -59 -64 -59 -126 0 -40 -6 -63 -22 -87 -51 -75
-97 -89 -285 -90 -100 0 -123 -3 -123 -14 0 -8 9 -21 21 -29 20 -14 20 -22 17
-228 -3 -210 -4 -215 -30 -264 -36 -68 -101 -128 -173 -162 -57 -27 -68 -28
-232 -31 -223 -5 -216 1 -223 -182 -4 -109 -8 -133 -26 -156 -47 -63 -79 -73
-290 -83 -8 -1 -11 -653 -10 -2398 l1 -2398 22 -36 c13 -20 39 -43 60 -52 35
-15 268 -16 2953 -14 2805 2 2917 3 2944 20 64 42 59 -146 61 2480 1 1703 -1
2390 -9 2395 -6 4 -59 9 -118 12 -115 5 -138 15 -182 74 -18 23 -22 46 -26
161 -4 111 -8 137 -23 152 -15 15 -42 19 -190 23 l-172 5 -74 40 c-58 31 -83
51 -117 98 -24 32 -48 75 -54 95 -5 20 -10 122 -10 225 0 176 1 190 21 216 12
16 18 34 15 40 -5 7 -51 11 -124 12 -250 1 -306 32 -316 172 -6 76 -15 97 -52
126 l-27 21 -1561 0 c-1425 -1 -1563 -2 -1587 -17z m481 -103 c35 -25 104 -50
136 -50 41 0 27 -27 -39 -75 l-39 -29 -36 45 c-20 24 -53 61 -74 81 -21 21
-38 40 -38 43 0 13 65 3 90 -15z m486 -88 c3 -163 56 -332 135 -423 l29 -34
29 35 c78 92 139 266 148 422 l6 108 72 0 73 0 -1 -59 c0 -47 7 -73 35 -133
34 -71 90 -148 109 -148 16 0 89 108 114 168 14 34 27 85 29 114 l4 53 70 3
69 3 6 -128 c5 -134 18 -187 70 -288 34 -68 84 -135 100 -135 18 0 72 76 104
146 40 89 54 150 60 282 l6 122 61 0 62 0 56 -57 56 -58 5 -108 5 -108 -37
-18 c-47 -25 -80 -60 -83 -91 -3 -22 1 -25 26 -23 16 1 42 14 58 29 33 33 31
41 28 -121 -2 -127 9 -168 43 -163 l22 3 3 272 2 272 65 -30 c75 -34 150 -38
234 -13 59 17 77 12 40 -12 -13 -9 -66 -59 -116 -112 -86 -88 -92 -97 -77
-113 42 -46 246 -106 331 -96 24 2 43 2 43 -2 -1 -3 -30 -28 -65 -54 -36 -27
-96 -78 -135 -114 -58 -54 -68 -68 -58 -80 20 -24 64 -42 155 -64 124 -30 290
-24 381 13 34 14 62 23 62 19 0 -3 -16 -26 -36 -51 -76 -95 -214 -340 -214
-381 0 -71 347 -101 509 -44 24 8 45 15 46 15 2 0 -24 -52 -56 -116 -135 -266
-238 -725 -226 -1009 5 -136 31 -285 50 -297 24 -15 74 -7 137 23 100 47 278
184 335 257 19 25 35 40 35 34 0 -10 -54 -223 -81 -321 -10 -35 -10 -46 0 -49
7 -2 -32 -49 -87 -106 -102 -105 -177 -206 -231 -313 -40 -81 -40 -108 1 -133
80 -48 360 -60 507 -21 83 22 179 62 233 97 15 10 30 15 34 12 6 -6 -60 -177
-92 -240 l-14 -27 -45 19 c-153 66 -300 39 -426 -78 -110 -102 -153 -243 -115
-377 19 -65 33 -89 88 -156 21 -25 38 -50 38 -56 0 -6 -14 -25 -31 -42 -17
-17 -29 -35 -27 -40 2 -6 63 -73 136 -150 92 -98 129 -143 119 -147 -8 -3 -56
-6 -106 -7 l-92 -2 -20 60 c-34 100 -105 239 -164 316 -78 105 -164 189 -191
189 -44 0 -117 -130 -154 -275 -55 -215 -5 -554 116 -774 19 -35 33 -65 32
-67 -2 -1 -22 2 -43 7 -36 9 -43 16 -64 65 -45 104 -177 261 -306 363 -66 53
-213 146 -288 182 l-49 24 -19 -24 c-10 -13 -19 -40 -20 -60 0 -29 -2 -32 -9
-16 -6 13 -9 15 -9 5 -1 -13 -24 -15 -148 -14 l-148 1 156 -10 156 -9 6 -117
c8 -157 59 -325 127 -421 l21 -30 -23 -10 c-22 -10 -22 -10 5 -7 22 4 25 2 16
-10 -10 -11 -15 -11 -33 1 -12 8 -20 21 -18 30 2 9 -4 16 -13 16 -9 0 -14 -4
-10 -10 3 -5 -23 4 -57 19 -92 42 -151 51 -323 51 l-155 0 0 53 0 52 143 -3
c133 -3 144 -2 170 18 32 25 37 73 10 102 -14 16 -34 18 -176 18 l-159 0 7
247 c4 146 12 254 18 264 14 23 40 29 107 25 30 -2 42 -1 25 1 -16 3 -36 10
-43 16 -9 7 -66 10 -168 8 l-154 -3 0 76 0 76 -405 0 -405 0 2 -427 3 -428 68
-3 67 -3 0 -44 0 -45 -282 0 c-249 0 -293 -3 -367 -20 -94 -23 -181 -65 -235
-114 -27 -26 -35 -29 -33 -15 4 23 14 34 34 34 8 0 22 10 31 23 14 21 13 22
-4 16 -16 -5 -16 -4 -4 5 8 6 23 8 32 5 10 -3 28 2 40 10 22 16 21 16 -22 17
-25 1 -51 1 -57 0 -7 -1 -26 5 -42 14 -55 28 -352 15 -372 -17 -5 -7 -9 -17
-9 -23 0 -5 4 -4 9 4 5 8 18 12 28 9 11 -3 28 1 38 8 28 20 51 19 31 -2 -16
-15 -21 -34 -11 -34 3 0 16 12 28 26 21 24 27 25 128 26 68 0 115 -5 130 -13
l24 -12 -33 -14 c-21 -9 -30 -18 -26 -26 5 -9 4 -9 -7 1 -7 6 -27 12 -43 13
-30 1 -30 1 -6 8 21 6 17 8 -25 14 -31 5 -51 3 -53 -3 -5 -15 -31 -12 -49 6
-13 12 -17 13 -24 2 -5 -8 -2 -15 9 -20 15 -6 15 -7 -3 -9 -11 -1 -31 -4 -45
-6 -14 -2 -38 -4 -55 -6 -16 -1 -32 -4 -35 -7 -8 -8 -113 -40 -118 -36 -2 2 6
7 17 11 12 3 21 12 21 19 0 7 15 26 33 42 43 41 213 262 254 332 60 103 123
239 123 266 0 15 -7 29 -16 33 -46 17 -380 -123 -529 -223 -33 -22 -66 -44
-73 -48 -7 -4 0 16 17 46 55 98 74 165 74 258 0 88 -31 220 -60 248 -15 16
-17 50 -3 72 5 8 10 11 10 6 0 -6 7 -1 15 10 12 16 14 16 15 3 0 -9 2 -32 5
-50 l6 -34 -14 30 c-9 19 -16 25 -21 17 -4 -7 -3 -12 2 -12 6 0 9 -6 8 -12 0
-7 6 -30 14 -51 l14 -37 99 0 c98 0 98 0 90 23 -16 44 -8 96 19 123 l25 26
425 3 c280 2 432 7 445 14 40 21 38 75 -5 124 -14 16 -57 17 -640 17 -567 0
-624 1 -618 16 3 9 14 54 23 101 51 262 -106 511 -350 553 -79 14 -162 3 -265
-36 -36 -13 -66 -23 -66 -22 -1 2 -29 60 -63 129 -35 70 -63 131 -63 137 0 6
25 43 56 84 30 40 59 80 64 88 6 11 18 3 54 -36 79 -88 213 -131 325 -104 57
14 101 43 101 69 0 20 -62 152 -91 193 -25 34 -24 35 55 80 85 48 88 56 40
120 -22 29 -53 70 -69 92 -71 97 -205 212 -300 257 -52 25 -72 29 -145 29 -47
-1 -103 -5 -125 -9 -22 -5 -55 -12 -74 -17 -28 -6 -33 -4 -28 7 33 78 110 246
116 251 4 4 46 -28 93 -71 48 -43 125 -103 171 -135 149 -99 445 -226 529
-226 22 0 42 7 53 20 17 18 17 29 7 127 -18 172 -89 382 -182 538 l-36 60 146
0 c125 0 155 3 217 23 79 27 118 55 108 81 -15 42 -133 226 -200 311 -41 52
-72 96 -70 98 2 2 35 -3 74 -12 89 -20 249 -21 325 -1 79 21 151 53 173 77 18
20 17 21 -32 64 -27 24 -97 76 -155 116 -58 39 -107 73 -109 75 -9 7 8 14 82
32 41 11 95 30 119 42 63 31 138 91 138 109 0 16 -98 93 -185 143 -30 18 -55
35 -55 38 0 4 22 9 48 13 78 10 84 20 62 91 -11 32 -18 61 -16 62 2 2 34 -4
72 -13 77 -18 162 -15 282 10 60 13 77 21 106 53 l35 38 1 -251 c0 -202 3
-254 14 -270 12 -15 18 -17 33 -8 16 10 18 31 21 209 l2 199 39 -38 c30 -29
45 -37 67 -34 64 7 21 81 -72 126 -32 15 -34 19 -34 64 0 42 3 49 28 62 30 16
93 80 112 115 9 18 20 21 73 21 l62 0 1 -108z m1790 67 l-7 -41 73 7 c40 3 81
9 91 11 9 3 17 2 17 -2 0 -24 -122 -85 -185 -91 -63 -7 -131 21 -212 86 -82
65 -78 67 106 70 l124 2 -7 -42z m701 -877 c-16 -3 -15 -6 8 -18 15 -8 34 -14
41 -14 8 0 13 -3 13 -7 -1 -5 -1 -17 0 -28 2 -19 2 -19 16 -1 7 10 19 16 26
14 7 -2 -38 -44 -100 -93 -110 -88 -124 -107 -89 -128 13 -9 36 2 114 54 62
41 99 59 102 51 2 -6 12 -12 23 -12 10 0 19 -5 19 -11 0 -6 -9 -8 -20 -4 -11
4 -20 2 -20 -4 0 -6 4 -11 9 -11 5 0 13 -9 16 -20 4 -12 11 -17 18 -14 8 5 8
2 0 -7 -23 -24 -16 -47 15 -43 16 2 10 -2 -18 -12 -54 -19 -269 -30 -320 -17
-47 12 -49 36 -9 115 60 120 143 233 163 220 7 -4 4 -8 -7 -10z m493 -407 c0
-14 0 -27 0 -30 0 -2 12 -16 26 -30 l25 -25 -87 -103 c-47 -56 -121 -140 -163
-186 -83 -91 -97 -112 -88 -135 17 -44 51 -16 255 204 l41 45 1 -117 0 -116
-45 -26 c-64 -38 -232 -103 -286 -111 -69 -10 -74 2 -49 116 43 199 118 387
192 483 l43 56 68 0 c65 0 67 -1 67 -25z m126 -154 c-3 -4 6 -23 19 -41 14
-19 25 -41 25 -50 0 -9 5 -21 12 -28 9 -9 9 -18 0 -37 -7 -15 -10 -30 -7 -35
2 -4 -17 -27 -43 -51 l-47 -44 -3 124 c-2 116 -1 126 19 148 22 23 35 31 25
14z m434 -296 l0 -85 -76 -60 c-41 -33 -77 -60 -79 -60 -6 0 20 56 85 183 30
59 58 107 62 107 5 0 8 -38 8 -85z m-5074 7 l16 -25 -128 7 c-126 8 -170 19
-142 38 7 5 64 8 125 7 108 -2 114 -3 129 -27z m-577 -4 c28 -6 51 -16 51 -22
0 -6 3 -39 5 -73 2 -35 2 -63 -1 -63 -14 0 -124 144 -124 163 0 10 10 9 69 -5z
m-168 -38 c19 -11 19 -11 -1 -50 -11 -22 -23 -40 -25 -40 -3 0 -5 23 -5 50 0
54 1 55 31 40z m343 -66 c13 -3 39 -6 57 -7 l34 -2 3 -114 c3 -109 2 -114 -15
-100 -10 8 -42 34 -70 58 l-53 43 1 86 c0 62 3 81 9 65 5 -12 20 -25 34 -29z
m473 -36 c39 -83 74 -222 76 -305 l2 -78 -29 3 c-43 5 -274 99 -318 130 l-38
27 0 103 0 104 127 -122 c103 -98 132 -120 152 -118 49 6 37 36 -46 122 -43
44 -101 105 -128 134 l-50 53 115 -3 115 -3 22 -47z m5003 -362 c0 -245 -2
-295 -14 -299 -21 -8 -28 4 -89 163 -59 154 -100 285 -95 301 3 9 177 127 191
128 4 1 7 -131 7 -293z m-343 179 c-4 -8 -11 -15 -17 -15 -14 0 -13 27 3 33
16 6 21 1 14 -18z m37 -208 c16 -45 51 -126 78 -180 27 -54 46 -102 43 -107
-4 -6 -16 -10 -28 -10 -12 0 -74 -18 -137 -39 -63 -22 -116 -38 -118 -36 -1 1
16 49 40 106 41 99 43 109 43 205 0 86 3 105 19 123 11 12 22 21 25 21 3 0 19
-37 35 -83z m-5089 -30 c19 -15 17 -18 -57 -95 -78 -80 -88 -98 -66 -120 9 -9
-3 -12 -53 -12 -36 0 -68 2 -71 5 -4 4 1 42 19 134 3 16 7 21 14 14 11 -11 49
-6 49 7 0 4 9 10 19 13 13 3 22 17 27 43 10 60 20 67 62 44 21 -10 46 -25 57
-33z m165 -147 l72 -80 -168 1 c-93 0 -162 3 -154 6 8 3 49 39 91 79 42 41 79
74 82 74 3 0 37 -36 77 -80z m-330 -188 c-11 -15 -31 -54 -45 -87 -18 -43 -25
-53 -25 -34 0 14 5 30 12 37 7 7 9 12 4 12 -4 0 -14 -7 -22 -15 -19 -19 -41
-21 -25 -2 7 10 7 17 0 24 -8 8 -8 13 0 17 6 4 11 2 11 -3 0 -6 4 -11 9 -11
13 0 21 52 10 70 -7 12 -8 10 -9 -7 0 -13 -5 -23 -11 -23 -6 0 -9 9 -6 19 3
13 -1 21 -12 24 -9 3 17 5 57 6 l73 1 -21 -28z m345 18 c-9 -14 -124 -77 -174
-95 -41 -14 -43 -14 -30 2 12 15 12 16 -3 10 -13 -5 -18 -1 -18 13 0 11 4 20
9 20 14 0 7 30 -9 40 -17 10 29 16 148 18 52 1 81 -2 77 -8z m4783 -174 c102
-53 100 -55 -35 -56 -68 0 -123 2 -123 4 0 6 93 76 102 76 5 0 30 -11 56 -24z
m-4858 4 c0 -5 -2 -10 -4 -10 -3 0 -8 5 -11 10 -3 6 -1 10 4 10 6 0 11 -4 11
-10z m46 -148 c-10 -2 -22 0 -28 6 -6 6 0 7 19 4 21 -5 23 -7 9 -10z m4770 -5
c-11 -7 -85 -55 -165 -108 -164 -108 -190 -123 -198 -115 -7 7 76 135 126 193
l36 42 110 0 c89 0 106 -2 91 -12z m-5277 -219 c50 -97 91 -181 91 -187 0 -5
-9 -12 -20 -16 -10 -3 -48 -25 -82 -49 -35 -23 -69 -46 -75 -50 -10 -6 -13 45
-13 240 0 136 2 245 4 243 2 -2 45 -84 95 -181z m5357 133 c-1 -16 -4 -27 -7
-25 -4 2 -6 -10 -4 -28 3 -40 49 -98 78 -98 21 -1 21 -1 -3 -14 -42 -23 -140
-46 -140 -33 0 7 14 55 31 107 17 52 32 101 34 108 7 21 12 13 11 -17z m-108
-43 c-3 -7 -18 -50 -34 -95 l-29 -83 -97 0 c-53 0 -104 3 -112 6 -12 4 21 29
106 81 68 41 130 81 138 89 18 17 34 18 28 2z m132 -32 c0 -3 -4 -8 -10 -11
-5 -3 -10 -1 -10 4 0 6 5 11 10 11 6 0 10 -2 10 -4z m366 -534 c-6 -5 -97 60
-115 82 -9 11 -1 39 40 132 79 182 74 183 77 -25 1 -101 0 -186 -2 -189z
m-5151 297 c81 -30 163 -112 196 -194 19 -49 23 -78 23 -160 0 -109 -24 -212
-48 -212 -8 0 -12 6 -9 14 3 7 9 11 13 8 11 -7 20 88 9 99 -5 6 -9 35 -9 65 0
59 -32 144 -63 170 -10 7 -17 22 -17 32 0 26 -88 98 -154 126 -31 13 -84 25
-117 27 -56 4 -60 3 -57 -17 2 -17 17 -25 83 -42 90 -22 145 -51 145 -75 0 -9
-15 -31 -34 -49 l-34 -33 -24 22 c-60 57 -155 79 -343 81 -58 0 -105 2 -105 4
0 2 23 18 51 36 69 44 185 82 210 68 13 -6 19 -6 19 1 0 5 -8 10 -17 10 -32 0
4 22 59 36 69 18 148 12 223 -17z m4858 -179 c33 -12 99 -49 148 -82 77 -51
88 -62 79 -78 -15 -28 -51 -29 -81 -2 l-27 24 -85 -76 -85 -76 -42 50 c-28 33
-50 50 -65 50 -29 0 -49 -24 -38 -45 5 -9 78 -88 162 -176 l152 -159 -58 -1
c-32 -1 -65 -1 -73 0 -18 1 -26 -4 -69 -51 -29 -31 -32 -40 -21 -53 11 -13 -3
-15 -129 -15 -150 0 -165 6 -121 45 38 34 34 51 -26 121 -109 130 -135 241
-83 354 43 93 107 153 198 187 54 20 192 11 264 -17z m-4769 -25 c23 -29 28
-48 32 -117 6 -96 -13 -150 -55 -156 l-23 -4 3 156 c2 86 7 156 10 156 4 0 19
-16 33 -35z m-356 -11 c23 -6 65 -27 92 -44 l50 -32 -37 -43 c-21 -24 -42 -44
-47 -44 -4 -1 -25 12 -45 28 -68 54 -86 58 -263 66 l-168 7 6 27 c15 60 21 62
203 55 91 -4 185 -13 209 -20z m238 -125 c-3 -17 -6 -49 -6 -69 l0 -38 -66 -4
c-36 -1 -68 -1 -70 1 -6 6 128 141 139 141 5 0 7 -14 3 -31z m-269 -55 l42
-30 -63 -63 -64 -63 -31 46 -32 46 -97 1 c-156 2 -145 -2 -146 44 -1 22 3 44
9 48 5 4 84 6 175 5 l166 -3 41 -31z m5289 -25 c-14 -9 -15 -13 -5 -19 10 -7
10 -12 0 -23 -7 -10 -8 -16 -1 -19 6 -2 7 -26 2 -70 -5 -38 -6 -68 -3 -68 4 0
12 -10 20 -22 8 -14 -4 -7 -27 16 -22 21 -39 44 -38 50 2 6 1 7 -2 3 -2 -5
-19 6 -37 23 l-33 32 60 54 c33 30 66 54 72 54 6 0 3 -5 -8 -11z m-4862 -85
c3 -9 6 -43 6 -77 l0 -62 17 33 c23 48 28 32 5 -19 -11 -24 -29 -66 -40 -94
-18 -43 -25 -50 -52 -53 l-32 -3 7 118 c4 65 8 122 9 127 1 9 51 42 67 45 4 0
10 -6 13 -15z m-166 -13 c11 -6 11 -36 2 -155 -10 -133 -9 -151 6 -173 14 -22
21 -25 55 -20 l39 5 -41 -76 c-23 -43 -46 -83 -52 -89 -12 -17 -52 -16 -162 2
-49 8 -105 18 -122 21 l-33 5 0 134 0 135 -25 6 c-48 12 -55 -7 -55 -143 0
-125 0 -125 -22 -119 -13 3 -29 6 -35 6 -10 0 -13 27 -13 103 l0 102 128 127
127 127 90 4 c50 1 92 4 95 5 3 1 11 -2 18 -7z m-431 -43 l32 -33 -45 -52
c-25 -29 -50 -53 -55 -53 -5 0 -9 13 -9 28 0 40 -17 52 -76 52 -38 0 -53 4
-58 16 -11 29 -6 44 14 44 13 0 20 -7 20 -20 0 -11 5 -20 10 -20 14 0 13 43
-2 58 -9 9 5 12 63 12 72 0 77 -2 106 -32z m2003 -73 c0 -5 -5 -3 -10 5 -5 8
-10 20 -10 25 0 6 5 3 10 -5 5 -8 10 -19 10 -25z m-700 -69 c14 -2 -12 -4 -58
-5 -46 0 -81 2 -79 7 5 6 77 6 137 -2z m685 4 c-3 -5 -21 -9 -38 -9 l-32 2 35
7 c19 4 36 8 38 9 2 0 0 -3 -3 -9z m-462 -7 c-13 -2 -33 -2 -45 0 -13 2 -3 4
22 4 25 0 35 -2 23 -4z m180 0 c-24 -2 -62 -2 -85 0 -24 2 -5 4 42 4 47 0 66
-2 43 -4z m190 0 c-13 -2 -35 -2 -50 0 -16 2 -5 4 22 4 28 0 40 -2 28 -4z
m-1118 -43 c21 -22 37 -40 34 -40 -3 0 -23 18 -44 40 -21 22 -37 40 -34 40 3
0 23 -18 44 -40z m3839 -43 c70 -90 132 -198 171 -298 30 -76 71 -265 81 -370
6 -74 6 -76 -17 -82 -13 -4 -40 -7 -59 -7 l-36 0 -22 93 c-31 133 -62 241 -71
250 -5 5 -19 7 -32 5 -33 -4 -35 -34 -9 -129 11 -44 27 -110 34 -147 l13 -67
-66 3 c-36 2 -71 8 -78 14 -16 13 -58 145 -79 248 -23 118 -21 283 5 382 25
98 69 188 92 188 4 0 37 -37 73 -83z m-3547 51 c-3 -8 -6 -5 -6 6 -1 11 2 17
5 13 3 -3 4 -12 1 -19z m1869 -428 l1 -320 -294 0 -293 0 0 30 0 30 283 0 282
0 -3 252 c-2 139 -5 255 -8 257 -11 12 -14 -22 -20 -237 l-7 -232 -248 0
c-136 0 -254 -3 -263 -6 -14 -6 -16 22 -16 270 l0 276 293 0 292 0 1 -320z
m-1876 298 c0 -5 -35 -8 -77 -7 -50 0 -71 3 -58 8 25 10 135 9 135 -1z m4556
-75 c-3 -21 -6 -49 -6 -63 0 -18 -10 -31 -32 -45 -51 -29 -127 -105 -155 -152
-19 -33 -34 -46 -64 -55 -36 -10 -42 -9 -61 10 l-22 21 39 56 c59 87 261 265
299 265 5 0 6 -17 2 -37z m-5609 -130 c-27 -4 -27 -5 -21 -56 3 -29 7 -58 9
-64 3 -7 -1 -13 -8 -14 -7 0 -3 -4 8 -8 14 -6 22 -4 26 7 4 13 7 11 11 -6 5
-17 2 -22 -12 -22 -45 0 -50 9 -50 91 l0 79 33 -1 c30 -2 30 -2 4 -6z m120
-125 c-2 -24 -4 -7 -4 37 0 44 2 63 4 43 2 -21 2 -57 0 -80z m-100 35 c-2 -16
-4 -5 -4 22 0 28 2 40 4 28 2 -13 2 -35 0 -50z m266 49 l88 -17 -26 -35 c-14
-19 -30 -35 -35 -34 -6 1 -17 2 -25 3 -10 1 -15 12 -15 36 0 28 -4 36 -22 39
-13 3 -41 9 -63 14 -70 17 3 12 98 -6z m-33 -62 c0 -5 -8 -10 -17 -10 -15 0
-16 2 -3 10 19 12 20 12 20 0z m4690 -10 c-10 -6 -11 -10 -2 -10 6 0 12 -10
12 -22 0 -23 -1 -23 -14 2 -14 27 -12 40 7 40 7 0 6 -4 -3 -10z m-1 -145 l-1
-50 -9 40 c-4 22 -8 51 -8 65 -1 20 1 22 9 10 5 -8 9 -37 9 -65z m-4950 15
c152 -42 288 -126 411 -251 95 -97 135 -157 185 -281 36 -88 89 -318 74 -318
-5 0 -9 4 -9 10 0 5 -55 52 -122 105 -216 169 -401 242 -642 254 l-129 6 -2
245 c-1 135 0 249 3 254 7 13 149 -2 231 -24z m5625 -2 c0 -10 -1 -121 -2
-248 l-2 -230 -99 0 c-150 0 -299 -38 -418 -106 -93 -53 -239 -159 -291 -210
l-52 -53 6 42 c20 132 95 326 167 435 100 149 200 236 360 313 148 70 333 102
331 57z m-1734 -273 c0 -5 -5 -3 -10 5 -5 8 -10 20 -10 25 0 6 5 3 10 -5 5 -8
10 -19 10 -25z m40 -70 c14 -19 14 -19 -2 -6 -10 7 -18 18 -18 24 0 6 1 8 3 6
1 -2 9 -13 17 -24z m881 -30 c-7 -49 -7 -49 -15 -18 -4 19 -3 40 4 53 17 31
20 21 11 -35z m-1170 -126 c167 -38 324 -204 343 -363 25 -194 -112 -406 -303
-472 -29 -10 -245 -13 -992 -15 -1036 -2 -982 -4 -1081 54 -64 37 -145 128
-179 201 -52 112 -55 207 -9 331 31 82 150 202 236 236 l59 24 695 5 c1093 9
1186 9 1231 -1z m-2421 -125 c-43 -87 -70 -201 -70 -294 l0 -61 -62 44 c-109
77 -219 131 -309 151 -33 7 -46 53 -21 73 78 59 313 147 427 161 39 4 71 8 72
7 1 -1 -15 -37 -37 -81z m2794 44 c96 -112 131 -290 90 -457 -55 -225 -249
-402 -470 -431 -52 -7 -399 -10 -1004 -8 l-925 3 -59 22 c-155 59 -265 159
-343 314 -70 140 -71 319 -3 472 24 55 36 62 84 53 l35 -7 -29 -61 c-40 -84
-53 -157 -47 -258 6 -103 32 -178 92 -259 48 -65 148 -142 228 -175 52 -21 57
-21 1001 -24 850 -2 955 -1 1005 14 90 26 167 72 229 139 99 105 138 221 130
381 -4 81 -8 93 -61 196 -55 107 -56 109 -34 118 37 15 44 12 81 -32z m165 21
c101 -18 264 -75 386 -137 61 -30 112 -57 114 -59 9 -7 -7 -13 -70 -28 -107
-27 -316 -124 -371 -173 -17 -14 -18 -12 -18 27 0 116 -37 243 -95 329 -39 58
-40 57 54 41z m-4143 -19 c152 -39 223 -71 367 -167 l98 -66 -73 -39 c-39 -22
-88 -52 -108 -67 -19 -15 -41 -31 -48 -35 -7 -4 -40 11 -81 39 -128 85 -302
147 -392 141 -28 -2 -29 0 -30 43 -1 25 -3 74 -5 109 l-3 62 98 0 c65 0 124
-7 177 -20z m5584 -89 l0 -108 -61 -7 c-114 -13 -239 -61 -363 -141 -48 -31
-55 -33 -74 -19 -11 7 -60 37 -109 65 -48 28 -90 53 -92 55 -6 5 16 22 117 90
174 116 336 172 505 173 l77 1 0 -109z m-5640 -236 c87 -32 190 -96 261 -162
88 -82 193 -242 213 -325 6 -27 5 -28 -31 -29 -21 -1 -41 -1 -45 0 -5 0 -8 -4
-8 -9 0 -6 -5 -10 -11 -10 -5 0 -7 5 -3 11 4 7 1 10 -7 7 -7 -2 -22 3 -31 12
-10 9 -31 23 -46 31 -15 8 -32 20 -38 28 -6 8 -16 11 -22 7 -11 -7 -35 26 -27
38 3 3 2 4 -2 1 -9 -7 -32 27 -33 48 0 9 25 41 55 71 57 55 67 79 38 94 -24
13 -52 1 -88 -38 -16 -17 -42 -40 -57 -51 l-26 -19 -49 30 c-60 37 -177 80
-220 80 l-33 0 0 79 c0 43 -3 93 -7 111 l-6 33 74 -6 c42 -3 107 -17 149 -32z
m727 -122 c20 -34 32 -44 61 -49 77 -12 150 -37 226 -77 100 -52 238 -184 281
-269 16 -31 27 -59 25 -61 -3 -3 -77 -2 -165 2 -88 5 -137 9 -110 11 28 1 60
1 72 1 11 -1 24 4 29 11 4 7 4 10 -1 6 -4 -4 -16 -3 -26 2 -12 7 -20 7 -24 0
-5 -8 -11 -8 -20 0 -10 8 -19 8 -34 1 -12 -7 -21 -7 -23 -1 -4 13 -121 30
-132 19 -5 -5 -15 -1 -22 9 -8 10 -13 12 -14 5 0 -18 -26 -16 -45 3 -9 10 -33
17 -55 17 -24 0 -47 7 -59 18 -11 11 -27 19 -34 19 -14 0 -33 44 -28 64 1 5
-5 6 -13 3 -9 -4 -15 -1 -13 5 1 6 -9 17 -23 25 -15 7 -19 13 -9 13 8 0 21 -6
28 -12 10 -11 11 -10 6 5 -4 9 -13 17 -21 17 -8 0 -14 7 -14 15 0 8 -2 15 -4
15 -2 0 -12 3 -20 6 -12 5 -15 2 -10 -12 3 -11 -5 -4 -17 15 -13 19 -24 41
-25 49 -2 8 -4 15 -6 16 -2 1 -16 10 -31 20 -17 10 -26 23 -23 31 3 8 0 12 -8
9 -12 -5 -41 20 -48 41 -2 6 -9 9 -15 9 -7 -1 -13 1 -13 5 0 11 113 85 180
118 l65 32 53 -57 c30 -31 65 -76 79 -99z m4919 129 c-3 -10 -6 -55 -7 -102
-2 -47 -8 -88 -13 -92 -6 -4 -23 -8 -37 -8 -43 0 -121 -28 -183 -65 l-59 -35
-44 37 c-108 92 -101 88 -123 68 -11 -10 -20 -24 -20 -32 0 -7 28 -40 62 -73
57 -55 60 -61 46 -77 -9 -10 -33 -45 -53 -78 -27 -43 -36 -53 -32 -33 3 19 0
25 -10 21 -12 -5 -17 -17 -14 -35 1 -9 -47 -18 -116 -22 -57 -3 -76 -12 -53
-26 19 -11 8 -22 -14 -14 -52 20 39 217 162 348 129 139 276 218 437 235 69 8
78 6 71 -17z m-732 -6 c31 -14 76 -39 101 -56 l45 -31 -84 -94 c-47 -52 -97
-113 -113 -137 -15 -24 -31 -45 -34 -48 -3 -3 -14 -19 -22 -37 -9 -17 -30 -41
-47 -53 -17 -12 -28 -25 -26 -28 2 -4 -13 -6 -35 -6 -21 1 -42 -2 -45 -7 -3
-5 -16 -6 -30 -3 -17 4 -26 1 -30 -10 -3 -9 -10 -14 -14 -11 -4 3 -25 7 -46
10 -27 3 -34 2 -24 -5 13 -9 13 -10 0 -11 -8 -1 -18 -1 -22 0 -5 0 -8 -4 -8
-10 0 -5 -5 -7 -11 -4 -6 4 -21 -2 -33 -14 -12 -12 -33 -21 -47 -20 -13 1 -84
-2 -156 -6 -73 -4 -133 -5 -133 0 0 10 58 114 73 130 151 164 256 230 427 269
41 10 82 20 90 22 9 2 24 18 34 35 25 43 115 149 126 149 5 0 34 -11 64 -24z
m-5052 -287 c114 -24 219 -104 268 -203 39 -81 36 -82 -99 -91 -73 -4 -127 -3
-137 3 -12 7 -18 23 -18 53 l-1 44 -46 3 -45 3 0 99 c0 111 -5 106 78 89z
m5778 -99 l0 -100 -41 0 c-33 0 -40 -3 -35 -16 3 -9 6 -22 6 -29 0 -10 7 -12
30 -5 24 7 30 5 30 -6 0 -8 -13 -17 -30 -21 -17 -3 -33 -10 -36 -14 -7 -11
-291 -12 -298 -1 -8 14 48 125 83 164 62 71 173 126 259 127 l32 1 0 -100z"/>
<path d="M5105 6953 c-165 -13 -363 -67 -495 -133 -177 -89 -401 -283 -509
-442 -156 -231 -211 -419 -211 -723 l0 -185 110 0 110 0 0 -69 c0 -47 4 -72
14 -80 11 -9 90 -12 303 -9 259 3 291 5 315 21 41 28 59 62 83 162 31 124 80
218 154 293 34 34 65 62 71 62 14 0 13 -23 -2 -38 -9 -9 -9 -12 -1 -12 7 0 14
8 17 18 6 18 49 42 74 42 8 0 21 8 28 18 9 12 13 13 14 3 0 -9 8 -11 25 -7 18
5 25 2 25 -9 0 -20 9 -19 33 2 10 10 26 18 35 18 10 0 16 5 15 12 -2 7 4 10
12 7 8 -4 23 -3 33 2 12 6 3 10 -33 14 -49 7 -49 7 19 8 53 2 74 -2 89 -15 11
-10 17 -12 13 -5 -9 15 -2 15 54 -1 40 -12 48 -19 72 -68 36 -72 53 -179 39
-254 -6 -32 -27 -92 -47 -134 -50 -103 -125 -174 -298 -281 -212 -131 -319
-240 -400 -409 -61 -129 -77 -225 -74 -451 l3 -195 64 -1 65 -1 -3 -59 c-4
-107 -42 -98 478 -102 l451 -4 0 125 c0 125 12 184 53 263 24 45 112 129 222
212 116 88 222 192 289 286 49 69 130 219 159 294 l16 44 55 -4 54 -3 6 35
c10 59 9 60 -40 60 l-46 0 6 33 c37 180 32 382 -13 506 -45 122 -165 323 -246
411 -17 19 -47 62 -65 95 -79 144 -262 342 -396 428 -160 103 -329 173 -487
201 -86 15 -244 25 -312 19z m305 -139 c166 -34 352 -114 475 -204 148 -107
316 -316 384 -476 64 -150 76 -213 76 -399 0 -149 -3 -180 -24 -250 -80 -275
-233 -460 -517 -624 -60 -35 -137 -86 -171 -113 -107 -87 -187 -215 -213 -340
-7 -35 -17 -69 -23 -75 -7 -10 -70 -13 -255 -13 l-245 0 6 113 c10 213 62 334
201 472 77 76 113 102 231 169 245 138 343 226 411 371 52 110 67 181 63 309
-4 109 -5 113 -51 208 -59 122 -160 232 -270 296 -353 202 -806 8 -923 -395
-14 -47 -25 -95 -25 -107 0 -11 -3 -31 -6 -43 l-6 -23 -266 0 -265 0 6 103
c39 653 734 1157 1407 1021z m-95 -529 c147 -37 272 -128 362 -263 71 -106 87
-160 87 -292 1 -101 -2 -125 -27 -195 -25 -71 -56 -139 -57 -125 0 3 9 31 20
63 15 43 20 82 20 164 0 126 -23 226 -72 313 -43 75 -161 190 -230 224 -204
100 -430 65 -600 -92 -61 -57 -135 -160 -168 -235 -24 -54 -60 -191 -60 -229
l0 -28 -295 0 -295 0 0 28 0 28 277 3 c152 1 280 4 284 7 4 2 10 32 14 66 9
82 47 200 85 265 60 104 193 224 296 268 106 45 253 57 359 30z m-165 -399
c-8 -7 -28 -16 -45 -19 -26 -5 -25 -4 10 13 48 23 54 24 35 6z m1127 -679
c-98 -206 -164 -271 -492 -477 -183 -116 -304 -301 -305 -467 l0 -43 -290 0
-290 0 0 35 0 35 270 0 c247 0 270 1 270 17 0 39 35 153 65 213 61 122 144
207 270 275 104 57 243 154 309 215 70 66 167 194 201 267 16 33 21 38 23 22
2 -11 -12 -53 -31 -92z"/>
<path d="M6897 6245 c-18 -13 -21 -32 -11 -59 9 -24 61 -21 74 4 21 40 -27 82
-63 55z"/>
<path d="M3462 4878 c-20 -20 -14 -58 10 -67 50 -18 86 23 52 60 -20 22 -44
25 -62 7z"/>
<path d="M6930 4837 c-76 -50 -96 -146 -45 -213 63 -83 169 -94 236 -24 53 56
60 118 22 193 -33 66 -146 90 -213 44z m125 -247 c3 -5 1 -10 -4 -10 -6 0 -11
5 -11 10 0 6 2 10 4 10 3 0 8 -4 11 -10z"/>
<path d="M3748 4535 l4 -35 -42 0 c-37 0 -41 -2 -38 -22 2 -18 10 -23 33 -23
28 0 30 -3 35 -40 4 -32 9 -40 25 -40 16 0 21 8 23 36 3 34 6 37 43 43 30 5
39 11 39 26 0 17 -7 20 -40 20 -39 0 -40 1 -40 35 0 30 -3 35 -23 35 -20 0
-23 -4 -19 -35z"/>
<path d="M6134 4101 c-50 -31 -53 -92 -7 -134 18 -16 51 -17 453 -15 l434 3
19 33 c27 46 14 91 -33 114 -32 16 -74 18 -435 18 -375 0 -402 -1 -431 -19z
m860 -11 c15 -6 26 -17 25 -27 -1 -17 -2 -17 -6 0 -4 15 -18 17 -101 18 -266
1 -707 10 -711 14 -9 10 768 5 793 -5z m23 -91 c-4 -21 -5 -22 -402 -26 -334
-5 -397 -3 -393 8 4 12 73 14 393 14 302 0 389 3 392 13 7 20 13 14 10 -9z
m-839 -19 c-13 -20 -29 -26 -41 -14 -12 12 6 34 29 34 22 0 23 -2 12 -20z"/>
<path d="M6410 3650 c-23 -5 6 -8 82 -7 128 0 148 -7 143 -50 -5 -44 -30 -51
-129 -32 -50 9 -60 8 -77 -7 -10 -9 -16 -21 -13 -26 3 -5 14 -2 24 7 15 14 32
15 97 10 93 -8 116 3 116 55 0 49 -22 60 -122 59 -47 -1 -102 -5 -121 -9z"/>
<path d="M5853 3373 c15 -2 37 -2 50 0 12 2 0 4 -28 4 -27 0 -38 -2 -22 -4z"/>
<path d="M4226 3184 c-22 -21 -20 -50 4 -74 24 -24 38 -25 68 -4 41 29 19 94
-33 94 -13 0 -31 -7 -39 -16z"/>
<path d="M3587 2785 c-4 -8 -2 -17 3 -20 6 -4 10 3 10 14 0 25 -6 27 -13 6z"/>
<path d="M7744 6238 l-19 -23 23 19 c21 18 27 26 19 26 -2 0 -12 -10 -23 -22z"/>
<path d="M2542 5465 c0 -16 2 -22 5 -12 2 9 2 23 0 30 -3 6 -5 -1 -5 -18z"/>
<path d="M2770 5251 c0 -18 18 -21 30 -6 10 13 9 15 -9 15 -11 0 -21 -4 -21
-9z"/>
<path d="M2725 4510 c-18 -8 -17 -9 8 -9 15 -1 27 4 27 9 0 12 -8 12 -35 0z"/>
<path d="M7633 3979 c-38 -39 -69 -74 -71 -78 -1 -5 8 -15 21 -24 24 -15 26
-14 96 54 39 38 71 73 71 78 0 12 -29 41 -41 41 -5 0 -39 -32 -76 -71z"/>
<path d="M2770 3892 l0 -48 43 2 c35 1 43 5 45 24 2 12 1 33 -2 46 -5 20 -13
24 -46 24 l-40 0 0 -48z"/>
<path d="M2780 3675 l0 -45 40 0 40 0 0 45 0 45 -40 0 -40 0 0 -45z"/>
<path d="M7062 3677 c-9 -10 -6 -34 12 -99 28 -103 31 -108 60 -108 49 0 52
23 20 123 -27 81 -33 92 -55 95 -14 2 -31 -3 -37 -11z"/>
<path d="M5183 2431 l-973 -6 -31 -32 c-63 -63 -44 -175 36 -209 29 -12 183
-14 1005 -14 1060 0 1011 -3 1062 58 37 44 44 84 21 129 -23 47 -58 72 -108
76 -22 2 -478 1 -1012 -2z"/>
<path d="M2970 2140 c0 -5 5 -10 11 -10 5 0 7 5 4 10 -3 6 -8 10 -11 10 -2 0
-4 -4 -4 -10z"/>
<path d="M3336 1828 c3 -5 10 -6 15 -3 13 9 11 12 -6 12 -8 0 -12 -4 -9 -9z"/>
<path d="M8085 7860 c-38 -38 -42 -39 -80 -30 -79 19 -112 8 -101 -33 4 -16
17 -29 38 -36 l32 -11 -81 -82 -81 -81 -27 22 c-39 30 -115 27 -115 -4 0 -13
49 -59 72 -68 8 -3 -3 -21 -32 -51 -41 -43 -45 -45 -52 -25 -6 15 -15 20 -35
17 -27 -3 -28 -5 -31 -68 -2 -36 -7 -69 -13 -74 -5 -6 -9 -13 -9 -17 0 -10 29
-39 39 -39 5 0 50 43 101 95 l94 95 22 -21 c17 -16 30 -20 48 -15 31 8 34 35
9 77 -17 28 -16 29 8 55 13 14 50 49 82 76 l57 50 21 -26 c24 -31 65 -32 83
-4 8 14 5 23 -17 46 -15 15 -27 32 -27 37 0 5 18 30 40 56 42 50 48 67 28 87
-19 19 -31 15 -73 -28z"/>
<path d="M2307 7883 c-16 -15 -4 -46 33 -87 26 -29 38 -49 34 -60 -3 -9 -9
-16 -13 -16 -13 0 -32 -42 -26 -61 9 -27 44 -24 77 8 l29 27 82 -82 c81 -82
82 -82 59 -97 -24 -17 -29 -54 -10 -73 17 -17 39 -15 63 8 l21 20 97 -95 c54
-52 103 -95 110 -95 34 0 49 48 22 70 -8 7 -15 34 -17 68 -3 54 -4 57 -31 60
-21 3 -30 -1 -34 -16 -4 -17 -9 -15 -49 21 -24 22 -44 46 -44 52 0 7 18 24 40
39 40 27 50 52 28 74 -21 21 -51 13 -90 -25 l-38 -37 -75 74 c-41 41 -75 78
-75 83 0 4 13 16 29 25 76 43 8 99 -71 58 -25 -13 -28 -12 -64 25 -35 36 -71
49 -87 32z"/>
<path d="M2247 7282 c-24 -26 -25 -237 -1 -270 18 -27 45 -28 67 -4 24 26 25
253 1 276 -21 21 -47 20 -67 -2z"/>
<path d="M8127 7282 c-14 -15 -17 -41 -17 -133 0 -121 12 -159 49 -159 36 0
41 20 41 155 0 134 -6 155 -40 155 -9 0 -24 -8 -33 -18z"/>
<path d="M8841 7174 c0 -11 3 -14 6 -6 3 7 2 16 -1 19 -3 4 -6 -2 -5 -13z"/>
<path d="M8836 6476 c10 -8 21 -12 24 -10 5 6 -21 24 -34 24 -6 0 -1 -6 10
-14z"/>
<path d="M8815 6000 c-3 -5 3 -10 15 -10 12 0 18 5 15 10 -3 6 -10 10 -15 10
-5 0 -12 -4 -15 -10z"/>
<path d="M8823 5373 c12 -3 16 -10 12 -21 -5 -13 -3 -14 6 -5 14 14 3 33 -19
32 -15 -1 -14 -2 1 -6z"/>
<path d="M8810 5315 c0 -6 4 -17 10 -25 6 -9 5 -17 -3 -22 -9 -6 -9 -8 0 -8
21 0 25 19 9 42 -9 12 -16 18 -16 13z"/>
<path d="M8825 5220 c3 -5 10 -10 16 -10 5 0 9 5 9 10 0 6 -7 10 -16 10 -8 0
-12 -4 -9 -10z"/>
<path d="M8838 5153 c7 -3 16 -2 19 1 4 3 -2 6 -13 5 -11 0 -14 -3 -6 -6z"/>
<path d="M8841 5034 c0 -11 3 -14 6 -6 3 7 2 16 -1 19 -3 4 -6 -2 -5 -13z"/>
<path d="M8830 4391 c0 -6 4 -13 10 -16 6 -3 7 1 4 9 -7 18 -14 21 -14 7z"/>
<path d="M8826 3515 c4 -8 8 -15 10 -15 2 0 4 7 4 15 0 8 -4 15 -10 15 -5 0
-7 -7 -4 -15z"/>
<path d="M8830 2870 c0 -5 5 -10 11 -10 5 0 7 5 4 10 -3 6 -8 10 -11 10 -2 0
-4 -4 -4 -10z"/>
<path d="M8840 2836 c0 -8 4 -17 9 -20 5 -4 7 3 4 14 -6 23 -13 26 -13 6z"/>
<path d="M8818 2563 c7 -3 16 -2 19 1 4 3 -2 6 -13 5 -11 0 -14 -3 -6 -6z"/>
<path d="M8820 2245 c0 -9 5 -15 11 -13 6 2 11 8 11 13 0 5 -5 11 -11 13 -6 2
-11 -4 -11 -13z"/>
<path d="M8841 2104 c0 -11 3 -14 6 -6 3 7 2 16 -1 19 -3 4 -6 -2 -5 -13z"/>
<path d="M8790 1490 c0 -5 7 -10 15 -10 8 0 15 5 15 10 0 6 -7 10 -15 10 -8 0
-15 -4 -15 -10z"/>
<path d="M5170 999 c0 -5 5 -7 10 -4 6 3 10 8 10 11 0 2 -4 4 -10 4 -5 0 -10
-5 -10 -11z"/>
<path d="M5315 990 c3 -5 11 -10 16 -10 6 0 7 5 4 10 -3 6 -11 10 -16 10 -6 0
-7 -4 -4 -10z"/>
<path d="M6374 985 c-9 -21 -2 -26 13 -10 8 9 9 16 3 20 -6 3 -13 -1 -16 -10z"/>
<path d="M6090 980 c0 -5 5 -10 10 -10 6 0 10 5 10 10 0 6 -4 10 -10 10 -5 0
-10 -4 -10 -10z"/>
</g>
</svg>
