<?xml version="1.0" standalone="no"?>
<!DOCTYPE svg PUBLIC "-//W3C//DTD SVG 20010904//EN"
 "http://www.w3.org/TR/2001/REC-SVG-20010904/DTD/svg10.dtd">
<svg version="1.0" xmlns="http://www.w3.org/2000/svg"
 width="1024.000000pt" height="1024.000000pt" viewBox="0 0 1024.000000 1024.000000"
 preserveAspectRatio="xMidYMid meet">

<g transform="translate(0.000000,1024.000000) scale(0.100000,-0.100000)"
fill="#000000" stroke="none">
<path d="M148 10233 c7 -3 16 -2 19 1 4 3 -2 6 -13 5 -11 0 -14 -3 -6 -6z"/>
<path d="M191 10231 c-13 -9 -6 -54 10 -59 8 -2 10 0 4 5 -5 4 -11 16 -11 26
-1 10 1 16 4 13 3 -3 11 -1 19 5 9 9 13 8 13 0 0 -6 -5 -11 -11 -11 -5 0 -8
-4 -4 -10 3 -5 12 -7 20 -3 11 4 13 1 9 -11 -3 -9 -9 -14 -13 -11 -4 2 -8 -2
-9 -10 -1 -8 -3 -22 -4 -30 -1 -13 -3 -13 -19 1 -11 10 -19 12 -24 4 -3 -5
-10 -8 -15 -5 -5 3 -11 1 -14 -4 -3 -5 8 -7 25 -6 19 2 28 -2 26 -9 -2 -6 -14
-10 -25 -10 -12 1 -22 -3 -22 -9 0 -6 -6 -3 -13 7 -11 14 -18 16 -32 9 -13 -8
-14 -12 -5 -18 7 -4 16 -2 20 5 5 8 9 7 13 -4 4 -9 1 -16 -5 -16 -6 0 -9 -3
-6 -6 4 -3 17 0 30 7 12 7 29 12 36 11 6 -2 12 2 12 8 0 5 3 9 8 9 4 -1 10 0
15 1 12 4 26 7 37 9 6 0 10 5 10 10 0 5 -8 8 -17 6 -10 -1 -12 0 -4 2 9 4 10
7 3 12 -7 4 -5 11 8 18 15 10 21 9 32 -4 11 -15 11 -16 -4 -10 -10 3 -18 2
-18 -3 0 -6 8 -10 18 -10 14 0 15 -2 2 -10 -8 -5 -11 -10 -6 -10 5 0 3 -7 -4
-15 -9 -11 -9 -15 -1 -15 6 0 17 11 23 25 6 14 16 24 22 23 7 -2 13 2 14 7 1
6 -3 10 -9 10 -6 0 -16 7 -22 15 -16 20 -38 24 -48 8 -6 -9 -9 -10 -9 -1 0 14
34 35 44 28 3 -3 4 -2 1 2 -3 3 -1 11 5 18 7 8 -6 11 -46 11 -30 0 -58 -2 -63
-5z m83 -18 c-9 -7 -21 -10 -26 -7 -14 9 1 23 23 21 19 -1 19 -2 3 -14z"/>
<path d="M326 10229 c2 -4 -2 -10 -8 -13 -7 -3 -2 -3 12 0 40 10 45 10 43 -2
-1 -5 6 -15 15 -20 13 -8 25 -6 47 8 19 11 24 18 13 18 -9 0 -19 6 -22 13 -3
6 -4 4 -3 -7 1 -11 -5 -20 -15 -21 -20 -4 -23 6 -8 21 6 6 -6 10 -34 10 -25 0
-43 -4 -40 -7z"/>
<path d="M474 10222 c1 -19 36 -43 50 -35 5 4 6 1 2 -6 -4 -6 -13 -11 -19 -10
-7 1 -20 -1 -30 -6 -12 -5 -24 -2 -36 9 -14 13 -21 14 -27 5 -5 -8 -3 -10 6
-4 8 5 11 3 8 -6 -3 -8 -10 -15 -16 -15 -7 -1 -18 -2 -24 -3 -8 -1 -4 -9 9
-20 14 -12 31 -17 48 -13 17 3 22 7 15 12 -7 4 -20 5 -30 3 -10 -3 -21 0 -24
6 -4 6 2 8 14 6 11 -2 18 0 15 6 -4 5 -1 9 4 9 6 0 11 -5 11 -11 0 -6 7 -8 16
-5 13 5 15 1 12 -19 -4 -16 -1 -24 6 -22 6 2 11 14 11 27 0 13 7 25 15 27 12
4 12 3 1 -5 -8 -6 -9 -12 -3 -16 5 -3 13 1 16 10 3 8 10 12 16 9 5 -3 10 -1
10 4 0 6 -5 11 -11 11 -8 0 -8 5 1 15 22 26 36 -1 17 -32 -4 -6 -3 -14 3 -18
5 -3 10 1 10 9 0 9 7 16 17 16 15 0 15 1 0 18 -10 10 -14 22 -11 25 4 4 13 -1
21 -11 13 -15 13 -14 3 7 -7 13 -8 21 -2 17 5 -3 15 0 21 8 9 11 4 13 -28 12
-22 -1 -43 -5 -48 -10 -4 -5 -3 -6 5 -2 6 4 12 2 12 -3 0 -12 -11 -14 -34 -5
-9 3 -13 10 -10 15 3 5 0 9 -6 9 -7 0 -10 -7 -7 -15 4 -8 2 -17 -3 -20 -6 -4
-10 1 -10 9 0 8 -4 17 -9 20 -5 3 -8 -2 -7 -12z m116 4 c0 -2 -7 -9 -15 -16
-13 -11 -14 -10 -9 4 5 14 24 23 24 12z m-56 -24 c3 -5 -1 -9 -9 -9 -8 0 -12
4 -9 9 3 4 7 8 9 8 2 0 6 -4 9 -8z"/>
<path d="M642 10223 c2 -12 -3 -18 -14 -17 -13 1 -17 -4 -14 -20 2 -17 10 -21
44 -21 23 0 47 -6 54 -14 11 -12 10 -13 -4 -8 -10 3 -21 1 -25 -6 -8 -12 -43
-19 -41 -8 4 35 -28 38 -37 3 -4 -17 -1 -28 12 -37 21 -16 32 -10 15 7 -7 7
-12 19 -11 28 0 9 4 6 9 -7 8 -20 13 -21 35 -13 17 6 25 6 25 -1 0 -6 5 -7 12
-3 7 4 8 3 4 -4 -4 -7 -3 -12 3 -12 5 0 12 6 14 13 4 9 6 9 6 -1 1 -7 16 -21
33 -32 l33 -20 -34 5 c-33 4 -56 15 -32 15 7 0 9 5 6 11 -5 7 -14 4 -26 -7
-19 -17 -20 -17 -13 1 6 14 4 16 -6 10 -9 -5 -11 -4 -6 3 5 8 0 12 -13 12 -12
0 -21 -3 -22 -7 0 -5 -2 -16 -4 -25 -4 -20 6 -23 22 -7 7 7 9 0 8 -23 -2 -18
-4 -33 -5 -33 -1 0 -3 -10 -6 -22 -3 -18 1 -23 16 -23 11 0 20 -4 20 -10 0 -6
-9 -6 -22 -1 -13 5 -22 16 -22 25 1 9 -3 16 -10 16 -6 0 -5 4 3 9 8 5 16 20
18 32 3 19 1 21 -9 11 -18 -18 -37 -15 -31 7 4 14 -2 19 -24 23 -24 3 -28 0
-28 -19 0 -13 3 -23 8 -23 4 0 7 7 7 15 0 8 7 15 15 15 8 0 15 -5 15 -11 0 -5
-4 -7 -10 -4 -10 6 -12 -1 -13 -42 0 -13 -4 -23 -8 -23 -19 0 -24 -2 -38 -13
-11 -9 -13 -9 -8 -1 4 7 0 14 -8 18 -27 10 -26 -13 1 -31 20 -13 29 -14 32 -5
2 7 8 10 13 6 5 -3 9 -1 9 5 0 6 7 7 17 4 11 -4 14 -3 9 5 -4 7 -1 12 8 12 9
0 13 -6 10 -14 -3 -9 3 -17 15 -21 12 -3 21 -11 21 -16 0 -6 -5 -7 -11 -3 -7
4 -10 -1 -7 -12 2 -11 11 -19 20 -19 25 0 43 -21 27 -30 -8 -5 -10 -4 -5 3 7
11 -17 17 -51 13 -6 -1 -9 7 -6 17 3 13 -2 21 -16 25 -23 6 -38 -8 -21 -18 8
-5 7 -11 -1 -21 -10 -13 -6 -18 14 -15 4 0 7 -6 7 -14 0 -22 -4 -30 -12 -27
-13 4 -9 -16 5 -21 9 -4 9 -6 0 -6 -7 -1 -17 8 -23 20 -11 19 -25 18 -25 -2 0
-5 -3 -9 -7 -9 -32 0 -33 0 -19 9 9 6 10 11 2 15 -7 5 -8 13 -1 25 5 10 6 21
3 25 -3 3 -1 6 5 6 6 0 14 -5 17 -10 5 -8 11 -7 21 1 16 13 2 39 -22 39 -8 0
-14 5 -14 10 0 6 -4 10 -9 10 -6 0 -8 -10 -6 -21 4 -20 3 -21 -14 -5 -15 14
-20 14 -24 4 -4 -9 -6 -8 -6 4 -1 11 -7 15 -21 11 -15 -4 -18 -9 -10 -18 8
-10 6 -16 -7 -24 -14 -8 -15 -11 -3 -12 8 -1 21 -1 29 0 7 2 10 -2 6 -8 -3 -6
-12 -11 -20 -11 -13 0 -13 -11 -2 -50 2 -8 2 -11 -1 -7 -2 4 -11 2 -20 -5 -14
-10 -15 -10 -4 2 16 19 16 35 -1 21 -10 -8 -14 -7 -14 4 0 8 4 12 8 9 4 -2 10
0 13 5 3 5 0 11 -7 13 -17 6 -59 -17 -49 -27 4 -5 1 -5 -6 -1 -10 6 -10 11 -1
22 6 7 16 11 22 7 6 -3 7 -1 3 5 -6 11 -37 9 -57 -4 -8 -4 -7 -9 2 -16 11 -8
11 -9 -1 -5 -8 2 -24 -3 -35 -12 l-20 -16 20 24 c17 21 18 24 3 18 -10 -3 -24
0 -32 8 -12 12 -16 12 -31 -5 -17 -18 -55 -24 -55 -7 0 5 9 6 19 2 11 -3 22
-2 25 3 3 5 -10 9 -28 9 -19 -1 -33 -4 -30 -8 2 -4 0 -10 -6 -14 -6 -4 -8 -11
-4 -16 3 -5 10 -6 16 -3 7 4 8 2 4 -5 -6 -9 -11 -9 -22 0 -11 9 -11 15 -3 25
8 10 8 14 1 14 -6 0 -13 -4 -17 -10 -3 -5 -13 -6 -23 -3 -11 4 -6 -6 13 -27
17 -18 25 -30 19 -27 -13 8 -37 -16 -27 -26 3 -4 1 -7 -5 -7 -15 0 -16 17 -2
25 6 4 7 12 3 18 -4 7 -8 17 -8 22 0 9 -7 11 -36 7 -5 -1 -8 -6 -4 -11 3 -5
-2 -16 -11 -25 -21 -22 -9 -39 19 -25 20 9 21 9 4 -5 -10 -8 -19 -18 -20 -22
-2 -9 -13 -12 -54 -16 -21 -2 -22 -7 -21 -88 0 -47 6 -91 12 -99 8 -11 8 -13
-1 -7 -10 5 -13 -995 -13 -4759 l0 -4765 5120 0 5120 0 0 5120 0 5120 -3660 0
c-2882 0 -3659 -3 -3654 -13 6 -9 4 -9 -8 1 -21 17 -153 12 -153 -5 0 -7 -3
-13 -7 -13 -5 0 -11 0 -14 0 -4 0 -1 7 6 16 12 14 -9 15 -216 13 -149 -1 -234
-6 -243 -13 -11 -8 -13 -8 -8 1 11 17 -341 17 -362 0 -12 -9 -13 -9 -7 1 5 8
-1 12 -21 12 -16 0 -35 -6 -42 -12 -11 -10 -13 -10 -7 0 10 18 -39 16 -54 -3
-10 -13 -9 -15 8 -15 36 0 32 -15 -4 -16 -19 0 -31 2 -27 5 5 3 9 13 10 21 2
13 -12 16 -86 17 -86 2 -89 1 -86 -19 3 -11 1 -17 -3 -14 -4 4 -8 12 -8 17 -1
5 -2 12 -3 15 0 4 -9 0 -18 -7 -11 -10 -14 -10 -9 -1 4 7 2 12 -7 12 -8 0 -14
-7 -13 -16 0 -9 -6 -19 -14 -21 -12 -4 -13 -3 -1 5 33 24 -7 29 -207 28 -191
-1 -211 -3 -235 -20 -23 -18 -29 -45 -7 -31 5 3 11 1 15 -5 4 -6 11 -7 17 -4
7 4 8 2 4 -5 -4 -6 -11 -9 -16 -6 -4 3 -13 -1 -19 -9 -7 -8 -8 -16 -4 -18 4
-3 3 -3 -4 -2 -7 2 -15 -1 -18 -6 -5 -9 7 -14 27 -12 3 1 9 -5 12 -14 4 -10 2
-13 -6 -8 -30 19 -116 -5 -102 -27 3 -5 -2 -9 -11 -9 -9 0 -13 -5 -10 -11 4
-6 -2 -5 -13 2 -12 7 -25 10 -29 5 -10 -10 27 -37 40 -29 6 3 7 1 3 -5 -5 -9
-13 -9 -26 -2 -29 15 -39 41 -33 84 4 29 2 37 -8 31 -8 -5 -10 -4 -5 4 4 7 13
10 19 8 13 -4 17 -47 4 -47 -5 0 -4 -7 3 -15 7 -8 16 -12 21 -9 5 3 9 0 9 -6
0 -6 5 -8 11 -5 6 4 8 9 5 13 -8 8 43 32 68 32 17 0 18 2 6 9 -8 6 -17 8 -21
5 -4 -2 -11 0 -14 6 -4 6 -3 9 2 8 5 -2 21 7 36 19 21 16 24 24 15 30 -7 4
-16 8 -20 8 -5 0 -8 3 -8 8 0 30 1 31 10 17 9 -13 10 -13 10 0 0 10 3 11 8 3
5 -8 12 -8 26 2 17 13 15 14 -20 12 -22 -1 -44 -8 -50 -16 -9 -11 -12 -12 -19
-1 -6 9 -4 11 6 5 12 -7 12 -5 1 6 -11 12 -14 12 -22 -1 -5 -8 -10 -11 -10 -7
0 4 -10 2 -22 -4 -20 -11 -21 -10 -11 2 10 13 -7 15 -132 15 -79 0 -139 -4
-132 -8 6 -3 14 -5 18 -2 5 2 6 -5 4 -16 -2 -11 1 -20 7 -20 5 0 8 7 4 15 -3
8 0 15 5 15 7 0 9 -9 6 -21 -3 -13 -1 -19 6 -16 7 3 11 10 9 16 -1 7 2 10 7 7
5 -4 12 2 14 11 4 16 5 16 6 -1 1 -20 1 -20 16 0 8 10 15 14 15 7 0 -12 17
-12 37 0 6 4 15 3 18 -3 4 -6 1 -9 -6 -8 -6 2 -13 -2 -16 -9 -2 -7 4 -11 16
-10 11 1 23 7 25 14 3 7 10 13 16 13 5 0 2 -9 -7 -19 -9 -11 -20 -18 -25 -15
-4 3 -8 0 -8 -7 0 -6 8 -9 20 -6 11 3 22 1 25 -4 3 -4 13 -6 23 -3 14 5 14 3
-2 -6 -14 -10 -20 -10 -26 0 -6 9 -13 3 -26 -21 -10 -19 -17 -38 -16 -44 1 -5
-6 1 -15 14 -22 30 -24 48 -7 48 8 0 14 -4 14 -9 0 -4 -5 -8 -11 -8 -5 0 -7
-4 -4 -10 9 -15 22 -12 29 6 10 25 -13 45 -46 40 -34 -5 -36 1 -5 15 21 9 21
9 -3 4 -14 -4 -31 -7 -37 -7 -16 -2 -17 -18 -1 -18 6 0 8 -3 5 -7 -4 -3 -25 2
-47 12 -31 14 -43 15 -54 6 -8 -7 -17 -8 -20 -3 -6 10 21 27 37 24 12 -3 8 2
-14 21 -19 17 -20 17 -17 0z m550 -22 l-23 -17 23 0 c13 1 24 -3 26 -8 4 -14
-30 -17 -45 -5 -15 13 -6 39 13 39 8 0 14 5 14 12 0 6 3 8 7 4 4 -4 -3 -15
-15 -25z m86 20 c2 -1 0 -6 -4 -12 -4 -7 -10 -7 -16 -1 -6 6 -18 8 -27 5 -13
-4 -13 -3 -2 5 11 8 24 9 49 3z m52 -1 c0 -5 -5 -10 -11 -10 -5 0 -7 5 -4 10
3 6 8 10 11 10 2 0 4 -4 4 -10z m49 -14 l23 -24 -24 -12 c-20 -10 -21 -9 -6 3
13 10 15 16 6 25 -14 14 -32 16 -23 3 3 -5 1 -12 -4 -15 -5 -4 -8 2 -6 11 2
10 4 21 4 26 1 11 6 9 30 -17z m281 9 c-7 -8 -20 -15 -29 -15 -11 0 -8 5 9 14
33 19 35 19 20 1z m45 6 c3 -5 2 -12 -3 -15 -5 -3 -9 1 -9 9 0 17 3 19 12 6z
m46 -14 c-10 -9 -11 -8 -5 6 3 10 9 15 12 12 3 -3 0 -11 -7 -18z m654 5 c-3
-3 -11 0 -18 7 -9 10 -8 11 6 5 10 -3 15 -9 12 -12z m-1258 -14 c1 -11 -3 -18
-9 -16 -15 5 -19 35 -4 35 7 0 13 -9 13 -19z m328 13 c-3 -2 -16 -6 -28 -8
-15 -2 -18 0 -9 5 14 9 45 12 37 3z m469 -7 c3 -8 2 -12 -4 -9 -6 3 -10 10
-10 16 0 14 7 11 14 -7z m111 7 c3 -5 0 -13 -6 -17 -7 -4 -9 -3 -5 4 3 5 0 13
-6 15 -9 4 -10 6 -1 6 6 1 14 -3 18 -8z m-1081 -12 c9 8 18 6 32 -5 18 -14 18
-15 -3 -5 -14 7 -24 8 -28 1 -3 -5 2 -11 12 -11 15 -1 16 -2 1 -6 -18 -5 -33
-33 -17 -33 6 0 8 -4 4 -10 -3 -5 -12 -7 -20 -4 -12 5 -12 9 1 29 17 26 6 35
-39 30 -15 -2 -29 1 -32 5 -3 5 4 7 16 5 12 -3 29 0 38 5 10 5 17 5 19 -1 3
-6 8 -6 16 0z m336 -29 c-19 -11 -29 -4 -25 18 2 9 4 19 4 22 1 2 9 -4 19 -13
14 -15 15 -19 2 -27z m713 13 c-4 -11 -8 -13 -11 -5 -2 7 -9 9 -15 5 -7 -4 -6
1 2 10 16 20 33 13 24 -10z m-429 -4 c-3 -5 -10 -7 -15 -3 -5 3 -7 10 -3 15 3
5 10 7 15 3 5 -3 7 -10 3 -15z m966 17 c0 -2 -8 -10 -17 -17 -16 -13 -17 -12
-4 4 13 16 21 21 21 13z m-1299 -29 c-10 -9 -11 -8 -5 6 3 10 9 15 12 12 3 -3
0 -11 -7 -18z m199 17 c0 -8 -19 -13 -24 -6 -3 5 1 9 9 9 8 0 15 -2 15 -3z
m53 -11 c-4 -10 -2 -14 5 -9 6 3 13 2 17 -3 3 -6 11 -9 18 -7 7 1 9 1 4 -1 -4
-3 -4 -10 0 -16 3 -7 2 -9 -2 -4 -5 4 -16 0 -25 -8 -15 -14 -18 -14 -23 -1 -4
11 -1 13 11 10 14 -5 14 -3 -2 10 -16 13 -17 46 -2 46 3 0 2 -7 -1 -17z m137
13 c0 -3 -4 -8 -10 -11 -5 -3 -10 -1 -10 4 0 6 5 11 10 11 6 0 10 -2 10 -4z
m210 -6 c-14 -9 -7 -14 13 -11 5 1 6 -3 2 -9 -5 -8 -11 -8 -19 -1 -7 6 -17 7
-22 3 -4 -4 -2 1 5 11 7 9 19 17 25 17 6 0 4 -5 -4 -10z m-155 -18 c-3 -3 -11
0 -18 7 -9 10 -8 11 6 5 10 -3 15 -9 12 -12z m379 6 c-3 -4 -11 -5 -19 -1 -21
7 -19 12 4 10 11 0 18 -5 15 -9z m-922 -13 c2 3 5 -1 5 -9 0 -10 -9 -13 -30
-10 -33 4 -50 14 -24 14 10 0 17 5 17 11 0 8 4 9 13 0 8 -6 16 -9 19 -6z m889
-27 c-11 -11 -13 -10 -7 0 4 7 2 21 -5 30 -12 15 -11 15 6 0 16 -15 17 -20 6
-30z m278 35 c-1 -5 0 -10 1 -13 7 -20 7 -41 -2 -47 -6 -3 -8 -1 -4 5 3 6 2
13 -3 16 -7 5 -8 23 -2 44 2 6 11 1 10 -5z m-1539 -10 c0 -5 -5 -15 -11 -23
-9 -12 -10 -11 -5 5 6 20 6 20 -9 1 -12 -16 -12 -22 -2 -29 9 -6 8 -7 -3 -4
-8 2 -14 10 -12 17 2 8 -3 10 -13 6 -10 -3 -14 -2 -9 5 11 18 64 36 64 22z
m217 1 c-3 -3 -12 -4 -19 -1 -8 3 -5 6 6 6 11 1 17 -2 13 -5z m623 2 c0 -2 -8
-10 -17 -17 -16 -13 -17 -12 -4 4 13 16 21 21 21 13z m-435 -15 c3 -5 2 -12
-3 -15 -5 -3 -9 1 -9 9 0 17 3 19 12 6z m75 5 c0 -3 -4 -8 -10 -11 -5 -3 -10
-1 -10 4 0 6 5 11 10 11 6 0 10 -2 10 -4z m55 -7 c-3 -3 2 -12 10 -19 8 -7 13
-16 10 -20 -10 -15 16 -22 33 -9 16 12 16 12 0 -6 -14 -15 -20 -16 -32 -5 -9
7 -16 9 -16 5 0 -4 -7 -2 -15 5 -8 7 -15 18 -14 24 0 7 2 6 6 -2 2 -6 9 -9 15
-6 5 4 3 13 -6 23 -14 15 -14 18 -1 18 8 0 12 -4 10 -8z m389 3 c2 -4 -4 -8
-14 -8 -10 0 -16 4 -14 8 3 4 9 8 14 8 5 0 11 -4 14 -8z m93 -7 c0 -8 -4 -12
-9 -9 -5 3 -6 10 -3 15 9 13 12 11 12 -6z m137 7 c3 -5 -1 -9 -9 -9 -8 0 -12
4 -9 9 3 4 7 8 9 8 2 0 6 -4 9 -8z m306 2 c0 -8 -19 -13 -24 -6 -3 5 1 9 9 9
8 0 15 -2 15 -3z m280 2 c0 -2 -8 -10 -17 -17 -16 -13 -17 -12 -4 4 13 16 21
21 21 13z m-1825 -16 c3 -5 1 -10 -4 -10 -6 0 -11 5 -11 10 0 6 2 10 4 10 3 0
8 -4 11 -10z m781 -2 c4 -7 4 -10 -1 -6 -4 4 -14 3 -22 -4 -11 -8 -12 -7 -7 6
7 19 20 21 30 4z m158 4 c3 -5 -1 -9 -9 -9 -8 0 -12 4 -9 9 3 4 7 8 9 8 2 0 6
-4 9 -8z m131 -1 c3 -5 2 -12 -3 -15 -5 -3 -9 1 -9 9 0 17 3 19 12 6z m410
-11 c-1 -11 -4 -22 -7 -25 -4 -5 -4 34 1 43 4 8 7 -1 6 -18z m685 14 c0 -8
-19 -13 -24 -6 -3 5 1 9 9 9 8 0 15 -2 15 -3z m-1585 -13 c3 -5 2 -12 -3 -15
-5 -3 -9 1 -9 9 0 17 3 19 12 6z m100 -9 c-3 -3 -11 0 -18 7 -9 10 -8 11 6 5
10 -3 15 -9 12 -12z m305 -4 c0 -6 -6 -5 -15 2 -8 7 -15 14 -15 16 0 2 7 1 15
-2 8 -4 15 -11 15 -16z m150 18 c0 -2 -8 -10 -17 -17 -16 -13 -17 -12 -4 4 13
16 21 21 21 13z m74 -4 c3 -5 -1 -9 -9 -9 -8 0 -15 4 -15 9 0 4 4 8 9 8 6 0
12 -4 15 -8z m-930 -14 c-2 -3 -13 -6 -24 -5 -24 2 -18 13 9 13 11 0 18 -4 15
-8z m621 3 c3 -5 2 -12 -3 -15 -5 -3 -9 1 -9 9 0 17 3 19 12 6z m-805 -16 c-7
-8 -20 -14 -29 -14 -13 1 -13 2 2 6 9 2 17 9 17 14 0 5 5 9 11 9 8 0 8 -5 -1
-15z m83 -28 c-3 -4 -12 -7 -21 -5 -10 1 -23 -1 -31 -6 -9 -6 -12 -5 -7 2 3 6
-2 13 -11 16 -10 2 -1 3 20 0 36 -4 37 -3 26 18 l-12 23 20 -20 c11 -11 18
-24 16 -28z m277 18 c11 -16 11 -18 0 -8 -11 10 -17 10 -28 0 -13 -10 -14 -9
-1 10 7 12 14 21 14 20 0 -1 7 -11 15 -22z m54 13 c-5 -8 -1 -9 12 -4 14 5 16
4 7 -5 -13 -13 -37 -3 -28 12 4 5 8 9 11 9 3 0 2 -5 -2 -12z m-169 -18 c3 5
10 10 14 10 11 0 11 -49 1 -55 -4 -3 -7 1 -6 8 0 6 -3 12 -9 12 -5 0 -9 -3 -7
-7 1 -5 -3 -8 -9 -8 -6 0 -9 6 -6 14 3 7 0 20 -6 27 -10 11 -9 11 5 1 11 -9
18 -10 23 -2z m220 0 c-3 -5 2 -10 11 -10 10 0 15 -3 11 -6 -10 -10 -39 5 -32
16 3 5 8 10 11 10 3 0 2 -4 -1 -10z m235 -15 c0 -8 -5 -17 -10 -20 -6 -4 -10
-3 -9 2 4 21 -2 34 -13 27 -7 -4 -8 -3 -4 4 9 14 36 4 36 -13z m50 21 c0 -2
-8 -10 -17 -17 -16 -13 -17 -12 -4 4 13 16 21 21 21 13z m144 -5 c3 -5 -2 -15
-12 -22 -15 -12 -16 -12 -5 2 7 9 10 19 6 22 -3 4 -4 7 0 7 3 0 8 -4 11 -9z
m-587 -16 c0 -6 -6 -12 -12 -12 -6 0 -12 6 -12 12 0 6 6 12 12 12 6 0 12 -6
12 -12z m313 11 c0 -2 -7 -7 -16 -10 -8 -3 -12 -2 -9 4 6 10 25 14 25 6z m164
-4 c3 -5 -1 -9 -9 -9 -8 0 -12 4 -9 9 3 4 7 8 9 8 2 0 6 -4 9 -8z m151 -10
c-3 -3 -11 0 -18 7 -9 10 -8 11 6 5 10 -3 15 -9 12 -12z m31 3 c-1 -8 -5 -18
-9 -21 -4 -4 -2 -13 4 -20 7 -8 6 -14 -2 -20 -7 -4 -9 -3 -5 4 3 6 2 13 -4 17
-6 4 -7 12 -3 18 4 7 8 15 9 20 3 14 4 17 8 17 2 0 3 -7 2 -15z m222 6 c11 -7
10 -9 -3 -14 -9 -4 -14 -3 -10 2 3 5 -1 12 -7 14 -7 3 -8 6 -3 6 6 0 16 -3 23
-8z m62 4 c0 -2 -6 -8 -13 -14 -10 -8 -14 -7 -14 2 0 8 6 14 14 14 7 0 13 -1
13 -2z m-1254 -43 c-17 -16 -18 -16 -5 5 7 12 15 20 18 17 3 -2 -3 -12 -13
-22z m599 10 c-3 -3 -11 0 -18 7 -9 10 -8 11 6 5 10 -3 15 -9 12 -12z m793 -7
c-3 -3 -9 2 -12 12 -6 14 -5 15 5 6 7 -7 10 -15 7 -18z m522 21 c0 -2 -8 -10
-17 -17 -16 -13 -17 -12 -4 4 13 16 21 21 21 13z m-1995 -16 c3 -6 -1 -7 -9
-4 -18 7 -21 14 -7 14 6 0 13 -4 16 -10z m280 0 c3 -5 1 -10 -4 -10 -6 0 -11
5 -11 10 0 6 2 10 4 10 3 0 8 -4 11 -10z m541 -13 c1 -9 -1 -19 -6 -22 -5 -3
-7 3 -6 12 2 10 -2 22 -8 26 -7 6 -6 7 3 5 8 -2 15 -12 17 -21z m295 6 c13
-16 12 -17 -3 -4 -10 7 -18 15 -18 17 0 8 8 3 21 -13z m-1068 -6 c-2 -4 -5 -6
-6 -4 -2 1 -12 -5 -23 -13 -17 -14 -18 -13 -7 1 7 9 10 18 7 22 -3 3 2 4 13 3
10 -2 17 -6 16 -9z m407 -12 c-8 -10 -7 -14 2 -18 7 -2 0 -4 -15 -4 -27 0 -27
0 -7 14 11 8 17 19 14 25 -4 7 -2 8 5 4 9 -6 9 -11 1 -21z m422 11 c7 4 8 2 4
-4 -4 -6 -13 -9 -21 -6 -8 4 -12 11 -8 17 5 8 8 7 11 -1 2 -7 9 -9 14 -6z
m405 8 c-3 -3 -12 -4 -19 -1 -8 3 -5 6 6 6 11 1 17 -2 13 -5z m-1369 -27 c2
-9 -2 -17 -9 -17 -7 0 -9 3 -6 7 4 3 1 13 -6 21 -10 13 -9 14 3 10 8 -2 16
-12 18 -21z m252 -10 c0 -7 -4 -6 -10 3 -8 13 -13 9 -12 -10 0 -3 -14 -5 -31
-6 l-32 0 28 10 c16 6 26 15 23 23 -4 11 -1 11 14 3 11 -6 20 -16 20 -23z
m164 25 c3 -5 -1 -9 -9 -9 -8 0 -12 4 -9 9 3 4 7 8 9 8 2 0 6 -4 9 -8z m370 0
c3 -5 -1 -9 -9 -9 -8 0 -12 4 -9 9 3 4 7 8 9 8 2 0 6 -4 9 -8z m399 -5 c4 3 7
4 7 1 0 -3 -8 -12 -18 -21 -17 -15 -18 -15 -18 8 0 17 3 21 11 15 7 -6 15 -7
18 -3z m-999 -7 c-33 -13 -68 -62 -52 -72 9 -5 3 -8 -15 -8 -16 0 -26 -4 -22
-10 3 -5 3 -10 -2 -11 -4 0 -21 -2 -38 -4 l-30 -4 30 17 c29 17 44 52 21 52
-6 0 -5 4 4 9 20 13 34 2 19 -15 -6 -8 -9 -18 -5 -22 10 -9 46 40 39 52 -3 5
-1 6 4 3 6 -4 16 0 23 8 7 8 20 15 29 14 11 0 10 -3 -5 -9z m863 -16 c-9 -9
-28 6 -21 18 4 6 10 6 17 -1 6 -6 8 -13 4 -17z m237 17 c4 -5 -3 -7 -14 -4
-23 6 -26 13 -6 13 8 0 17 -4 20 -9z m-1214 -16 c-7 -9 -15 -13 -19 -10 -3 3
1 10 9 15 21 14 24 12 10 -5z m273 -10 c-3 -9 -8 -14 -10 -11 -3 3 -2 9 2 15
9 16 15 13 8 -4z m1202 -3 c-3 -3 -11 0 -18 7 -9 10 -8 11 6 5 10 -3 15 -9 12
-12z m-901 0 c3 -5 -1 -9 -9 -9 -8 0 -12 4 -9 9 3 4 7 8 9 8 2 0 6 -4 9 -8z
m212 -7 c-1 -8 -5 -17 -8 -21 -5 -4 -4 16 1 34 3 9 9 -1 7 -13z m434 11 c0 -2
-8 -10 -17 -17 -16 -13 -17 -12 -4 4 13 16 21 21 21 13z m80 -2 c0 -8 -19 -13
-24 -6 -3 5 1 9 9 9 8 0 15 -2 15 -3z m134 -2 c3 -5 -1 -9 -9 -9 -8 0 -12 4
-9 9 3 4 7 8 9 8 2 0 6 -4 9 -8z m-271 -20 c15 -16 15 -19 2 -19 -8 0 -13 3
-10 5 3 3 0 11 -6 19 -17 20 -5 16 14 -5z m-1053 -2 c0 -5 -2 -10 -4 -10 -3 0
-8 5 -11 10 -3 6 -1 10 4 10 6 0 11 -4 11 -10z m74 2 c3 -5 -1 -9 -9 -9 -8 0
-12 4 -9 9 3 4 7 8 9 8 2 0 6 -4 9 -8z m60 0 c3 -5 -1 -9 -9 -9 -8 0 -12 4 -9
9 3 4 7 8 9 8 2 0 6 -4 9 -8z m107 -9 c13 -16 12 -17 -3 -4 -17 13 -22 21 -14
21 2 0 10 -8 17 -17z m635 -9 c1 -9 0 -13 -4 -10 -3 4 -7 14 -8 22 -1 9 0 13
4 10 3 -4 7 -14 8 -22z m-671 -2 c-3 -3 -11 0 -18 7 -9 10 -8 11 6 5 10 -3 15
-9 12 -12z m1005 12 c0 -8 -19 -13 -24 -6 -3 5 1 9 9 9 8 0 15 -2 15 -3z m137
-9 c0 -8 -4 -12 -9 -9 -5 3 -6 10 -3 15 9 13 12 11 12 -6z m-1310 -29 c0 -19
-4 -34 -8 -33 -4 1 -7 -2 -7 -8 0 -5 4 -9 10 -7 5 1 7 -2 4 -7 -4 -5 2 -15 11
-21 15 -10 15 -11 1 -6 -20 6 -31 -4 -18 -18 6 -8 2 -12 -13 -13 -15 -2 -18 0
-8 6 9 6 10 11 2 15 -6 4 -15 4 -21 1 -6 -3 -7 1 -4 9 3 9 9 14 12 13 4 -1 8
2 9 8 4 13 -30 13 -39 0 -5 -6 -8 -6 -8 2 0 6 5 15 10 18 6 4 7 11 4 17 -4 6
1 6 14 -1 15 -8 23 -7 31 3 9 10 8 15 -4 20 -8 3 -15 11 -14 18 0 10 2 10 6 1
5 -14 24 -18 22 -5 -2 10 0 22 4 22 2 0 4 -15 4 -34z m39 6 c-3 -3 0 -12 7
-21 10 -14 10 -14 -4 -4 -9 7 -20 9 -25 5 -4 -4 -3 0 4 9 6 9 8 20 4 24 -4 5
-1 5 6 1 7 -5 11 -11 8 -14z m-122 -10 c3 -5 -1 -9 -9 -9 -8 0 -12 4 -9 9 3 4
7 8 9 8 2 0 6 -4 9 -8z m164 -9 c-12 -15 -22 -18 -14 -4 4 5 0 11 -6 14 -7 3
-3 4 9 4 17 -1 19 -4 11 -14z m82 3 c0 -2 -8 -10 -17 -17 -16 -13 -17 -12 -4
4 13 16 21 21 21 13z m27 -11 c0 -8 -4 -12 -9 -9 -5 3 -6 10 -3 15 9 13 12 11
12 -6z m58 6 c-9 -8 -36 -10 -30 -2 2 4 11 8 20 8 8 0 13 -3 10 -6z m915 3 c0
-8 -19 -13 -24 -6 -3 5 1 9 9 9 8 0 15 -2 15 -3z m-354 -16 c4 -7 4 -10 -1 -6
-4 4 -15 2 -24 -5 -14 -11 -14 -10 -2 6 16 20 18 21 27 5z m54 -4 c0 -8 -19
-13 -24 -6 -3 5 1 9 9 9 8 0 15 -2 15 -3z m314 -12 c3 -5 -1 -9 -9 -9 -8 0
-12 4 -9 9 3 4 7 8 9 8 2 0 6 -4 9 -8z m-1352 -9 c-6 -3 -9 -10 -5 -16 4 -7
-2 -5 -13 3 -10 8 -20 15 -22 16 -2 1 10 1 25 1 15 0 22 -2 15 -4z m50 -5 c-9
-9 -9 -15 1 -27 10 -14 10 -14 -4 -4 -9 7 -18 10 -21 7 -3 -3 -9 0 -14 7 -4 7
-3 10 3 6 6 -4 16 0 23 8 7 8 15 15 18 15 3 0 1 -5 -6 -12z m345 -3 c0 -8 -4
-12 -9 -9 -5 3 -6 10 -3 15 9 13 12 11 12 -6z m318 -3 c-3 -3 -11 0 -18 7 -9
10 -8 11 6 5 10 -3 15 -9 12 -12z m555 12 c0 -8 -19 -13 -24 -6 -3 5 1 9 9 9
8 0 15 -2 15 -3z m1505 -3 c3 -5 2 -12 -3 -15 -5 -3 -9 1 -9 9 0 17 3 19 12 6z
m-2515 -7 c0 -8 -19 -13 -24 -6 -3 5 1 9 9 9 8 0 15 -2 15 -3z m287 -9 c0 -8
-4 -12 -9 -9 -5 3 -6 10 -3 15 9 13 12 11 12 -6z m279 0 c-1 -8 -5 -17 -8 -21
-5 -4 -4 16 1 34 3 9 9 -1 7 -13z m-994 -41 c-6 -11 -11 -13 -16 -5 -4 6 -2
11 3 11 6 0 11 5 11 10 0 6 -8 10 -17 10 -15 0 -16 2 -3 10 19 12 35 -14 22
-36z m671 39 c8 -8 -12 -33 -26 -33 -6 0 -2 7 9 16 17 14 17 15 1 10 -11 -3
-16 -2 -12 4 7 12 19 13 28 3z m-891 -27 c3 3 5 -3 5 -13 -1 -9 4 -18 11 -19
6 -1 15 -3 20 -4 4 -1 11 -2 15 -1 5 1 6 -3 2 -9 -5 -8 -11 -8 -19 -1 -7 6
-15 8 -19 5 -3 -3 -11 3 -18 15 -12 18 -15 19 -29 6 -15 -13 -17 -13 -17 -1 0
8 5 14 11 13 6 -1 10 4 8 12 -2 11 0 12 11 3 8 -7 16 -9 19 -6z m413 2 c5 4 5
1 1 -6 -6 -10 -11 -10 -22 -1 -8 6 -14 14 -14 16 0 3 6 0 13 -6 8 -6 18 -7 22
-3z m-325 -13 c0 -9 -41 -11 -47 -3 -3 7 -1 8 5 4 7 -4 12 -3 12 3 0 6 7 8 15
5 8 -4 15 -7 15 -9z m417 -13 c1 -12 -2 -22 -7 -22 -6 0 -9 4 -7 9 1 5 -7 16
-17 24 -18 13 -18 14 4 12 15 -1 24 -9 27 -23z m-374 5 c7 3 9 3 5 -2 -4 -4
-2 -15 4 -24 10 -13 10 -14 -2 -4 -10 10 -17 10 -29 1 -13 -10 -14 -10 -4 1 6
7 10 19 9 25 -2 6 -1 8 1 3 3 -4 10 -4 16 0z m304 -9 c2 -17 0 -19 -7 -8 -5 8
-6 18 -4 22 8 12 10 10 11 -14z m-134 0 c-6 -10 -50 -10 -57 0 -2 4 11 7 29 7
18 0 31 -3 28 -7z m108 -13 c5 4 9 2 9 -3 0 -5 -12 -14 -27 -21 -25 -10 -26
-10 -10 3 20 15 12 25 -16 21 -9 -2 -15 1 -11 6 3 5 10 7 15 4 5 -4 9 0 9 7 0
8 5 6 11 -5 6 -9 14 -15 20 -12z m67 -7 c-2 -7 2 -12 8 -11 12 2 12 -33 -1
-44 -4 -5 -5 -3 -1 4 4 7 -2 21 -13 32 -18 18 -17 23 7 30 1 1 1 -5 0 -11z
m-570 -22 c-16 -15 -22 -16 -31 -6 -9 10 -9 11 0 6 6 -3 14 -2 17 3 4 5 -2 12
-11 14 -10 2 -4 4 14 3 31 -1 31 -1 11 -20z m83 15 c0 10 2 10 5 2 3 -7 13 -9
22 -6 15 4 15 3 2 -6 -14 -10 -7 -16 13 -12 5 1 6 -3 2 -9 -3 -5 1 -13 9 -16
9 -3 16 -11 16 -16 0 -6 -6 -5 -15 2 -8 7 -16 10 -16 6 -8 -39 -3 -49 20 -37
10 6 23 6 31 1 12 -7 10 -9 -5 -9 -11 1 -29 -1 -41 -4 -16 -4 -21 -1 -20 16 1
12 5 27 9 33 8 14 -14 35 -41 37 -10 0 -19 7 -19 14 0 9 4 10 14 2 10 -9 13
-8 14 2z m99 5 c0 -3 -4 -8 -10 -11 -5 -3 -10 -1 -10 4 0 6 5 11 10 11 6 0 10
-2 10 -4z m178 -15 c-7 -9 -13 -18 -15 -20 -1 -2 -1 5 0 16 0 11 7 20 14 20
10 0 10 -4 1 -16z m40 5 c-2 -1 -12 -8 -22 -16 -18 -14 -18 -14 -6 7 8 12 18
19 23 16 4 -3 7 -6 5 -7z m-177 -19 c-13 -13 -26 -3 -16 12 3 6 11 8 17 5 6
-4 6 -10 -1 -17z m99 14 c0 -5 -7 -11 -14 -14 -10 -4 -13 -1 -9 9 6 15 23 19
23 5z m485 -11 c-3 -5 -12 -10 -18 -10 -7 0 -6 4 3 10 19 12 23 12 15 0z
m-848 -15 c4 -4 3 -5 -4 -1 -6 3 -14 2 -18 -4 -4 -6 -11 -8 -16 -4 -5 3 -7 9
-4 14 6 10 31 7 42 -5z m92 3 c14 5 13 3 -2 -12 -9 -10 -15 -22 -11 -27 3 -5
0 -8 -7 -7 -7 2 -14 -4 -14 -12 -2 -25 6 -32 23 -18 10 8 13 8 9 1 -4 -6 -4
-13 0 -16 5 -2 3 -3 -3 -1 -6 1 -17 -3 -23 -9 -7 -7 -12 -7 -11 -2 5 22 -1 29
-11 15 -9 -13 -10 -12 -5 2 3 10 1 20 -5 23 -5 4 -7 11 -3 16 3 5 9 7 14 4 13
-8 20 9 9 25 -5 9 -9 10 -9 4 0 -7 -8 -15 -17 -18 -13 -5 -11 0 7 19 15 16 27
22 33 16 5 -5 17 -7 26 -3z m368 -1 c0 -8 -6 -14 -14 -14 -9 0 -10 4 -2 14 6
7 12 13 14 13 1 0 2 -6 2 -13z m-326 -21 c-6 -7 -8 -16 -4 -20 4 -4 -1 -4 -11
0 -15 6 -17 4 -11 -6 5 -8 4 -11 -3 -6 -14 8 -4 36 11 33 7 -1 11 4 9 11 -1 8
2 11 8 7 8 -5 8 -11 1 -19z m414 6 c-3 -3 -11 0 -18 7 -9 10 -8 11 6 5 10 -3
15 -9 12 -12z m391 -18 c1 -9 0 -13 -4 -10 -3 4 -7 14 -8 22 -1 9 0 13 4 10 3
-4 7 -14 8 -22z m-989 9 c-4 -3 -20 -6 -36 -5 -24 0 -31 -5 -36 -26 -4 -15 -9
-22 -12 -15 -10 27 17 53 54 53 20 0 33 -3 30 -7z m43 -3 c-13 -9 -13 -10 0
-11 9 0 6 -5 -8 -11 -16 -8 -26 -8 -34 0 -8 8 -5 9 11 5 12 -3 21 -2 20 3 -3
17 1 24 14 24 8 0 7 -4 -3 -10z m252 -4 c7 4 8 2 4 -4 -11 -18 -26 -14 -25 6
0 10 3 12 6 4 2 -6 10 -9 15 -6z m155 -2 c-3 -3 -12 -4 -19 -1 -8 3 -5 6 6 6
11 1 17 -2 13 -5z m-469 -36 c-8 -6 -2 -7 17 -5 24 4 33 0 41 -17 8 -18 7 -22
-7 -22 -10 0 -15 4 -13 8 3 4 3 8 0 8 -2 0 -13 3 -23 7 -15 6 -16 4 -6 -8 10
-13 9 -19 -7 -36 -10 -12 -16 -24 -12 -29 4 -4 1 -4 -6 0 -10 6 -10 11 -1 23
10 12 10 16 -1 23 -9 5 -20 5 -27 -2 -23 -19 -14 0 13 27 14 14 23 29 19 33
-3 4 -15 -4 -26 -18 l-20 -25 12 25 c7 14 12 28 11 32 -1 4 10 2 23 -4 19 -8
22 -14 13 -20z m2112 28 c0 -2 -8 -10 -17 -17 -16 -13 -17 -12 -4 4 13 16 21
21 21 13z m-1689 -19 c-6 -8 -8 -17 -4 -20 3 -4 2 -7 -4 -7 -19 0 -22 13 -5
26 22 17 27 17 13 1z m43 5 c3 -5 -1 -9 -9 -9 -8 0 -12 4 -9 9 3 4 7 8 9 8 2
0 6 -4 9 -8z m56 -7 c7 -9 8 -15 2 -15 -5 0 -12 7 -16 15 -3 8 -4 15 -2 15 2
0 9 -7 16 -15z m160 9 c0 -8 -19 -13 -24 -6 -3 5 1 9 9 9 8 0 15 -2 15 -3z
m-359 -21 c13 -16 12 -17 -3 -4 -10 7 -18 15 -18 17 0 8 8 3 21 -13z m-124 1
c-3 -3 -12 -4 -19 -1 -8 3 -5 6 6 6 11 1 17 -2 13 -5z m58 -13 c-3 -5 4 -13
16 -16 11 -4 18 -9 16 -11 -2 -3 -16 1 -31 7 -19 9 -23 15 -14 21 17 10 20 10
13 -1z m350 -18 c-1 -10 3 -25 9 -33 9 -13 9 -13 -6 -2 -9 8 -23 11 -30 7 -7
-4 -4 1 6 9 11 9 16 16 12 16 -4 0 -4 5 -1 10 9 15 14 12 10 -7z m-90 -2 c3
-5 2 -12 -3 -15 -5 -3 -9 1 -9 9 0 17 3 19 12 6z m-408 -8 c-4 -3 0 -11 8 -17
13 -9 11 -11 -9 -11 -20 0 -22 3 -15 18 5 9 13 17 16 17 3 0 3 -3 0 -7z m113
1 c0 -8 -19 -13 -24 -6 -3 5 1 9 9 9 8 0 15 -2 15 -3z m-188 -21 c-6 -2 -9 -9
-6 -15 3 -5 15 -2 27 9 12 10 9 2 -8 -17 -46 -53 -50 -57 -32 -28 11 17 13 29
7 33 -13 8 -3 25 13 24 9 0 8 -2 -1 -6z m233 -12 c-3 -6 -11 -11 -16 -11 -5 0
-4 6 3 14 14 16 24 13 13 -3z m-301 -18 c3 -7 4 -15 3 -17 -1 -1 5 -11 13 -22
14 -17 13 -18 -1 -7 -9 7 -19 10 -22 6 -4 -3 -7 -1 -7 5 0 7 5 12 12 12 9 0 9
3 0 12 -10 10 -15 10 -22 -2 -7 -12 -9 -10 -8 6 2 23 24 28 32 7z m236 14 c0
-2 -9 -12 -19 -21 -14 -13 -21 -14 -27 -5 -4 7 -3 10 3 6 6 -4 16 0 23 8 12
14 20 19 20 12z m201 -10 c-6 -8 -7 -18 -3 -22 4 -5 1 -5 -6 -1 -10 6 -10 11
-1 22 6 8 14 14 16 14 3 0 0 -6 -6 -13z m240 0 c-6 -8 -8 -16 -5 -19 3 -3 1
-9 -4 -12 -6 -3 -9 0 -8 6 2 16 15 38 23 38 3 0 0 -6 -6 -13z m-305 -23 c2
-12 -1 -13 -12 -3 -13 11 -18 6 -15 -14 1 -5 -3 -5 -9 -2 -8 5 -6 13 6 26 18
20 26 18 30 -7z m-281 6 c-3 -5 -1 -10 6 -10 7 0 10 -3 6 -6 -9 -9 -28 6 -22
17 4 5 8 9 11 9 3 0 2 -4 -1 -10z m170 1 c-9 -8 -36 -10 -30 -2 2 4 11 8 20 8
8 0 13 -3 10 -6z m140 0 c3 -5 2 -12 -3 -15 -5 -3 -9 1 -9 9 0 17 3 19 12 6z
m399 1 c3 -5 -1 -9 -9 -9 -8 0 -12 4 -9 9 3 4 7 8 9 8 2 0 6 -4 9 -8z m-194
-16 c0 -2 -8 -10 -17 -17 -16 -13 -17 -12 -4 4 13 16 21 21 21 13z m-431 -29
c0 -8 -2 -8 -6 1 -4 10 -10 9 -27 -5 l-21 -18 19 22 c19 23 37 22 35 0z m85
-5 c3 -5 -1 -9 -9 -9 -8 0 -12 4 -9 9 3 4 7 8 9 8 2 0 6 -4 9 -8z m250 -10 c3
-5 -1 -9 -9 -9 -8 0 -12 4 -9 9 3 4 7 8 9 8 2 0 6 -4 9 -8z m83 -7 c0 -6 -10
-11 -21 -12 -12 -1 -15 1 -8 4 6 3 10 8 8 12 -3 4 1 8 8 8 7 0 13 -5 13 -12z
m143 -19 c0 -2 -8 -10 -17 -17 -16 -13 -17 -12 -4 4 13 16 21 21 21 13z m-340
-10 c0 -2 -8 -10 -17 -17 -16 -13 -17 -12 -4 4 13 16 21 21 21 13z m69 -50
c10 -12 9 -14 -6 -12 -10 2 -21 -1 -24 -6 -3 -5 -9 -2 -12 7 -4 9 -3 13 2 10
5 -3 12 -1 16 5 8 13 10 13 24 -4z m-429 -2 c0 -8 -19 -13 -24 -6 -3 5 1 9 9
9 8 0 15 -2 15 -3z m105 -43 c3 -5 2 -12 -3 -15 -5 -3 -9 1 -9 9 0 17 3 19 12
6z m-118 -28 c0 -8 -4 -10 -12 -3 -7 5 -16 6 -20 2 -5 -4 -5 -2 -2 4 9 15 34
13 34 -3z m419 -49 c1 -9 0 -13 -4 -10 -3 4 -7 14 -8 22 -1 9 0 13 4 10 3 -4
7 -14 8 -22z m-351 -3 c3 -5 2 -12 -3 -15 -5 -3 -9 1 -9 9 0 17 3 19 12 6z
m-85 -7 c0 -8 -19 -13 -24 -6 -3 5 1 9 9 9 8 0 15 -2 15 -3z m810 -58 c0 -2
-8 -10 -17 -17 -16 -13 -17 -12 -4 4 13 16 21 21 21 13z m-685 -65 c3 -5 2
-12 -3 -15 -5 -3 -9 1 -9 9 0 17 3 19 12 6z m5345 -287 c91 -7 206 -20 255
-29 177 -31 446 -92 415 -94 -8 0 -44 6 -80 15 -108 25 -332 65 -387 69 -29 2
-57 6 -62 9 -5 4 -39 5 -75 2 -36 -2 -68 -1 -71 2 -3 4 -17 7 -30 8 -16 0 -22
-3 -18 -14 5 -11 1 -13 -18 -7 -20 6 -22 5 -11 -6 17 -18 15 -34 -3 -19 -11 9
-15 9 -15 1 0 -7 -5 -9 -12 -5 -7 4 -8 3 -4 -4 4 -7 16 -12 26 -12 15 0 50
-37 38 -41 -19 -5 -50 -4 -54 3 -3 5 -2 8 3 7 19 -3 33 2 33 11 0 6 -11 8 -26
6 -16 -3 -27 0 -31 9 -4 12 -7 12 -19 0 -17 -17 -18 -25 -1 -25 16 0 20 -37 5
-46 -7 -4 -8 -2 -4 5 10 16 -12 41 -30 34 -7 -3 -12 -8 -10 -12 3 -4 -11 -6
-29 -5 -24 2 -38 -2 -45 -14 -10 -15 -11 -15 -7 4 5 23 -15 26 -48 6 -16 -9
-17 -11 -3 -12 9 0 19 6 21 13 3 7 6 5 6 -5 1 -12 -6 -18 -19 -18 -11 0 -20
-3 -20 -7 0 -5 -11 -9 -25 -9 -17 -1 -25 4 -26 15 -1 14 -2 14 -6 -1 -2 -10
-13 -18 -23 -18 -13 0 -17 -5 -14 -15 4 -8 1 -15 -5 -15 -6 0 -10 5 -8 11 1 7
-11 15 -26 20 -23 6 -28 5 -23 -6 3 -8 -3 -19 -14 -25 -24 -13 -30 -13 -30 0
0 6 3 9 8 9 27 -5 31 3 12 23 -11 12 -23 18 -27 15 -3 -4 -1 -7 5 -7 20 0 13
-18 -9 -25 -17 -6 -19 -9 -8 -16 10 -6 6 -9 -15 -9 -26 0 -27 2 -15 18 12 15
12 16 -2 4 -9 -7 -23 -10 -31 -7 -9 4 -22 -1 -31 -10 -14 -14 -17 -14 -27 2
-8 13 -10 13 -7 3 8 -25 -44 -20 -54 5 l-8 20 -1 -20 c-2 -11 -2 -23 -1 -28 1
-4 -10 -5 -24 -1 -17 4 -25 2 -25 -6 0 -9 -10 -11 -30 -6 -19 3 -29 2 -25 -4
4 -6 -6 -10 -21 -10 -15 0 -25 -3 -21 -6 3 -3 65 2 139 13 189 26 655 26 848
0 288 -39 568 -108 835 -205 498 -182 993 -497 1347 -858 549 -561 855 -1172
950 -1901 29 -223 31 -627 4 -838 -52 -418 -184 -856 -343 -1145 -20 -36 -49
-90 -65 -120 -64 -118 -227 -347 -348 -490 -106 -125 -389 -400 -504 -490
-366 -288 -777 -500 -1227 -633 -228 -68 -361 -96 -664 -139 -122 -18 -657
-17 -790 0 -154 20 -415 70 -539 102 -244 64 -576 186 -576 212 0 5 -4 7 -8 4
-17 -10 -362 169 -362 188 0 4 11 1 25 -8 14 -9 24 -13 23 -9 -5 13 28 53 37
45 5 -4 5 -1 0 7 -7 12 -10 11 -22 -4 -7 -11 -13 -15 -13 -10 0 5 -5 4 -12 -3
-14 -14 -32 -16 -23 -3 3 5 1 12 -5 16 -6 4 -7 12 -4 18 4 7 -4 1 -18 -11 -32
-29 -29 -30 -193 86 -186 132 -225 163 -218 175 4 6 1 7 -6 3 -7 -5 -23 2 -39
17 -15 14 -52 47 -82 73 -30 26 -55 50 -54 53 1 3 -11 15 -26 26 -15 11 -25
25 -23 31 2 6 -3 17 -12 24 -13 11 -14 10 -9 -6 4 -10 -20 9 -54 43 -34 34
-62 67 -62 73 0 6 4 9 8 6 5 -3 9 1 9 9 0 11 -4 12 -14 3 -11 -9 -20 -5 -44
18 -34 32 -60 72 -38 59 8 -5 10 -4 5 3 -4 7 -13 12 -21 12 -17 0 -28 17 -20
31 5 7 14 5 29 -5 15 -9 28 -11 37 -5 10 6 10 9 2 9 -7 0 -12 3 -12 8 5 27 -2
35 -14 17 -8 -10 -19 -15 -25 -11 -6 3 -13 2 -17 -4 -9 -14 -25 -13 -25 3 0 7
-9 18 -20 25 -11 7 -20 18 -20 26 0 7 -10 21 -21 32 -29 26 -135 175 -132 185
2 5 -1 9 -6 9 -14 0 -129 182 -193 305 -212 409 -343 886 -363 1321 -4 71 -8
147 -9 169 -7 83 14 405 34 526 81 498 210 857 441 1227 219 351 557 721 884
967 50 37 89 72 87 77 -1 5 2 7 6 4 5 -3 54 24 108 60 76 50 98 69 96 84 -2
11 1 20 7 20 6 0 8 -7 5 -15 -4 -8 -3 -15 0 -15 4 0 63 32 132 71 229 130 574
273 793 329 41 11 48 21 16 26 -8 1 -13 -1 -10 -6 5 -8 -29 -20 -55 -19 -10 0
-8 3 5 9 16 7 17 9 3 9 -9 1 -21 -5 -25 -12 -10 -17 -151 -67 -169 -60 -7 2
-11 14 -9 25 3 11 1 17 -3 14 -4 -4 -7 -11 -7 -14 -1 -20 -27 -50 -47 -55 -22
-6 -22 -5 -4 8 11 8 15 15 10 15 -6 0 -16 -6 -23 -12 -12 -11 -13 -9 -7 7 6
16 5 17 -5 8 -10 -10 -9 -16 2 -29 12 -16 12 -17 -6 -12 -11 3 -26 -1 -33 -9
-20 -21 -30 -15 -24 15 2 15 2 24 -2 21 -3 -3 -7 -18 -8 -32 -3 -33 -13 -35
-22 -4 -6 22 -7 22 -21 3 -8 -11 -15 -25 -15 -30 0 -7 3 -6 8 1 5 7 13 9 21 4
10 -7 9 -10 -8 -16 -12 -4 -28 -2 -34 4 -9 7 -17 7 -27 -1 -12 -8 -11 -9 3 -4
12 4 17 2 14 -6 -4 -13 -11 -14 -57 -7 -21 3 -25 0 -24 -18 1 -13 -1 -23 -5
-24 -3 0 -14 -2 -23 -4 -25 -5 -22 12 3 18 14 4 18 10 13 18 -6 10 -9 10 -12
1 -2 -7 -8 -10 -13 -6 -5 3 -9 0 -9 -6 0 -6 -4 -9 -9 -5 -5 3 -16 -2 -25 -10
-8 -8 -19 -14 -23 -13 -4 2 -9 -1 -11 -7 -1 -5 3 -11 8 -11 23 -3 24 -5 10
-14 -8 -5 -24 -7 -35 -4 -17 4 -18 3 -5 -6 13 -10 13 -11 0 -7 -9 2 -14 13
-12 28 2 19 1 21 -7 9 -9 -13 -12 -12 -26 5 -10 13 -14 15 -13 5 2 -9 -3 -14
-14 -12 -10 2 -18 -2 -18 -9 0 -8 -5 -7 -17 2 -12 10 -15 11 -9 1 4 -7 2 -19
-4 -27 -10 -12 -10 -18 0 -29 8 -10 8 -21 2 -32 -9 -16 -10 -15 -17 5 -3 12
-11 18 -17 15 -7 -4 -8 -2 -4 5 4 6 12 8 18 5 7 -4 8 -2 4 5 -4 6 -11 9 -16 6
-5 -3 -11 -1 -15 5 -3 5 3 10 14 10 11 0 22 4 25 9 7 11 -34 2 -51 -11 -7 -5
-18 -6 -24 -2 -8 5 -9 3 -5 -5 5 -7 15 -10 23 -7 11 5 13 2 9 -10 -4 -10 3
-23 16 -35 19 -16 20 -18 4 -12 -12 4 -17 3 -13 -4 9 -15 -16 -34 -32 -24 -9
6 -10 11 -2 15 6 4 15 5 20 2 5 -4 7 3 4 15 -5 16 -8 18 -15 7 -6 -9 -7 -6 -3
10 4 13 2 22 -5 22 -6 0 -8 -4 -5 -10 3 -5 1 -10 -5 -10 -6 0 -8 -4 -5 -10 3
-5 -1 -10 -10 -10 -10 0 -13 5 -9 11 5 9 -1 10 -22 5 -23 -5 -26 -4 -14 4 13
10 13 11 0 7 -8 -2 -15 -10 -15 -18 0 -8 7 -14 15 -14 9 0 15 -9 14 -25 0 -14
-5 -24 -12 -22 -7 1 -15 -5 -19 -14 -5 -13 -7 -13 -14 -2 -7 11 -11 10 -20 -2
-9 -13 -10 -12 -5 3 3 10 6 23 6 28 0 5 5 9 10 9 6 0 10 -7 10 -17 0 -20 13
-9 16 15 3 14 -5 17 -36 17 -21 0 -37 -2 -34 -4 7 -7 -28 -41 -37 -36 -4 3
-11 0 -15 -6 -4 -8 -3 -9 4 -5 7 4 12 2 12 -3 0 -6 -6 -11 -14 -11 -8 0 -17
-6 -19 -12 -3 -7 -6 2 -6 20 -1 20 -5 31 -11 27 -6 -4 -8 -15 -5 -26 6 -17 -3
-24 -28 -20 -4 1 -12 -10 -17 -25 -6 -14 -15 -22 -20 -19 -8 5 -7 11 1 21 6 8
8 14 3 14 -5 0 4 11 20 25 16 14 24 25 17 25 -6 0 -21 -11 -33 -25 -11 -13
-26 -21 -32 -18 -6 4 -5 -1 3 -10 11 -14 11 -17 0 -17 -11 0 -11 -2 -1 -8 15
-10 24 -50 13 -57 -5 -2 -8 5 -7 18 1 18 -4 21 -23 19 -28 -3 -43 15 -35 39 5
18 -24 54 -34 44 -4 -3 0 -10 8 -15 8 -5 15 -23 15 -39 0 -29 -13 -29 -19 0
-9 45 -16 48 -47 18 -16 -16 -34 -29 -40 -29 -6 0 -7 -4 -4 -10 3 -5 -1 -10
-9 -10 -20 0 -88 -59 -80 -71 3 -5 -1 -6 -9 -4 -17 7 -109 -73 -100 -87 3 -6
1 -8 -5 -4 -6 3 -55 -38 -111 -94 -56 -55 -99 -100 -96 -100 3 0 -14 -17 -37
-37 -24 -21 -45 -42 -47 -48 -2 -5 -17 -21 -33 -35 -15 -13 -28 -28 -28 -32 0
-3 -16 -24 -36 -45 -51 -53 -212 -264 -266 -348 -177 -274 -279 -471 -353
-682 -11 -29 -21 -51 -23 -49 -9 10 80 231 150 370 226 451 605 923 1007 1253
452 370 945 613 1556 768 408 103 781 134 1215 99z m40 -59 c0 -14 -5 -25 -11
-25 -5 0 -8 4 -4 9 3 6 -3 15 -12 21 -17 11 -17 11 0 6 9 -3 17 -1 17 4 0 6 2
10 5 10 3 0 5 -11 5 -25z m85 12 c3 -4 2 -5 -2 -2 -3 3 -12 0 -20 -6 -10 -9
-13 -8 -13 0 0 7 -5 9 -12 5 -6 -4 -8 -3 -5 3 7 11 44 11 52 0z m-145 -37
c-20 -13 -33 -13 -25 0 3 6 14 10 23 10 15 0 15 -2 2 -10z m-150 -76 c0 -8
-19 -13 -24 -6 -3 5 1 9 9 9 8 0 15 -2 15 -3z m-1630 -388 c0 -2 -9 -6 -20 -9
-11 -3 -18 -1 -14 4 5 9 34 13 34 5z m-119 -49 c-16 -16 -25 -1 -10 16 8 8 16
11 18 5 2 -5 -2 -15 -8 -21z m-153 -41 c-7 -8 -15 -12 -17 -11 -5 6 10 25 20
25 5 0 4 -6 -3 -14z m36 -20 c-24 -18 -62 -30 -46 -14 14 14 56 35 61 31 3 -2
-4 -10 -15 -17z m-578 -170 c-1 -14 -5 -28 -9 -32 -3 -4 -5 3 -2 15 3 14 -1
21 -12 21 -13 0 -13 3 -3 15 16 20 27 12 26 -19z m54 -61 c0 -8 -2 -15 -4 -15
-2 0 -6 7 -10 15 -3 8 -1 15 4 15 6 0 10 -7 10 -15z m-63 -10 c0 -8 -4 -12 -9
-9 -5 3 -6 10 -3 15 9 13 12 11 12 -6z m109 -57 c3 -4 -1 -5 -10 -4 -8 1 -18
5 -22 8 -3 4 1 5 10 4 8 -1 18 -5 22 -8z m-1421 -1578 c-4 -12 -9 -19 -12 -17
-3 3 -2 15 2 27 4 12 9 19 12 17 3 -3 2 -15 -2 -27z m-38 -112 c-3 -8 -6 -5
-6 6 -1 11 2 17 5 13 3 -3 4 -12 1 -19z m-13 -52 c-3 -15 -8 -25 -11 -23 -2 3
-1 17 3 31 3 15 8 25 11 23 2 -3 1 -17 -3 -31z m-17 -58 c-3 -8 -6 -5 -6 6 -1
11 2 17 5 13 3 -3 4 -12 1 -19z m-13 -52 c-3 -15 -8 -25 -11 -23 -2 3 -1 17 3
31 3 15 8 25 11 23 2 -3 1 -17 -3 -31z m-17 -68 c-3 -8 -6 -5 -6 6 -1 11 2 17
5 13 3 -3 4 -12 1 -19z m-10 -40 c-3 -8 -6 -5 -6 6 -1 11 2 17 5 13 3 -3 4
-12 1 -19z m-50 -265 c-3 -10 -5 -4 -5 12 0 17 2 24 5 18 2 -7 2 -21 0 -30z
m1050 -2608 c0 -8 -4 -12 -9 -9 -5 3 -6 10 -3 15 9 13 12 11 12 -6z m852 -771
c-6 -7 -15 -11 -21 -8 -5 3 -4 12 3 20 6 7 15 11 21 8 5 -3 4 -12 -3 -20z"/>
<path d="M1293 10185 c0 -8 4 -12 9 -9 5 3 6 10 3 15 -9 13 -12 11 -12 -6z"/>
<path d="M206 9717 c3 -10 9 -15 12 -12 3 3 0 11 -7 18 -10 9 -11 8 -5 -6z"/>
<path d="M56 9632 c-3 -6 1 -13 10 -16 23 -9 28 -2 10 13 -8 7 -17 8 -20 3z"/>
<path d="M5335 8850 c-7 -11 -5 -12 28 -14 12 -1 21 -7 20 -12 -1 -6 5 -11 13
-11 11 0 11 4 -3 19 -9 10 -18 16 -21 13 -3 -3 -11 0 -18 6 -8 7 -14 7 -19 -1z"/>
<path d="M5415 8840 c-3 -6 1 -7 9 -4 18 7 21 14 7 14 -6 0 -13 -4 -16 -10z"/>
<path d="M5334 8782 c3 -5 1 -12 -6 -14 -8 -3 -9 -6 -1 -11 6 -4 13 0 17 8 3
8 0 17 -6 21 -6 4 -8 3 -4 -4z"/>
<path d="M4732 8654 c-12 -8 -22 -21 -22 -27 1 -7 5 -6 13 4 7 9 18 14 26 11
8 -3 11 0 7 6 -3 6 0 13 6 15 7 3 8 6 3 6 -6 1 -21 -6 -33 -15z"/>
<path d="M4596 8603 c-4 -4 -15 -8 -24 -8 -9 -1 -30 -2 -45 -3 -16 -1 -26 -6
-23 -10 3 -5 -18 -9 -47 -10 -75 -2 -90 -6 -98 -28 -4 -10 -8 -13 -8 -5 -1 11
-4 11 -16 1 -11 -9 -19 -10 -28 -1 -10 8 -17 7 -27 -2 -10 -10 -12 -8 -6 8 6
16 5 18 -5 7 -11 -10 -10 -15 2 -28 14 -14 26 -13 120 10 57 13 131 30 165 36
40 8 61 17 61 26 0 15 -9 18 -21 7z"/>
<path d="M5004 8439 c-315 -17 -682 -102 -1050 -244 -245 -95 -616 -302 -839
-469 -258 -193 -522 -464 -731 -748 -314 -429 -511 -970 -554 -1522 -44 -565
67 -1159 310 -1661 45 -92 151 -276 177 -307 8 -9 12 -22 7 -29 -4 -7 -3 -10
4 -5 7 4 32 -25 63 -71 138 -206 411 -498 619 -663 227 -181 613 -405 875
-508 481 -190 1054 -286 1516 -254 683 48 1268 252 1833 639 209 143 365 280
540 472 416 457 655 939 777 1566 39 202 49 313 49 566 0 325 -21 523 -81 764
-93 371 -337 866 -561 1137 -77 93 -301 339 -339 372 -19 16 -65 57 -104 91
-517 453 -1179 754 -1864 849 -95 14 -464 39 -496 34 -5 0 -74 -4 -151 -9z
m234 -139 l22 0 0 -190 0 -190 -55 0 -55 0 0 189 c0 199 1 205 45 196 11 -3
30 -5 43 -5z m-218 -88 c0 -49 -3 -91 -6 -94 -3 -4 -22 5 -41 18 -21 14 -44
22 -57 19 -11 -2 -73 -14 -136 -25 -258 -46 -283 -53 -299 -81 -17 -31 -8 -74
18 -89 14 -7 36 -4 82 10 35 12 122 30 194 41 134 20 197 33 228 44 15 6 17
-1 17 -72 l0 -79 -101 -12 c-201 -24 -475 -101 -676 -190 -59 -27 -123 -55
-141 -62 -60 -24 -80 -82 -42 -120 16 -16 33 -20 81 -20 59 0 63 -2 98 -40 40
-44 72 -51 103 -23 27 24 23 72 -9 105 -15 15 -33 28 -40 28 -36 0 -2 20 100
58 393 146 754 190 1121 136 54 -8 120 -19 145 -25 83 -20 315 -91 394 -121
l78 -30 -40 -37 c-29 -27 -41 -46 -41 -66 0 -39 26 -65 65 -65 25 0 38 8 64
40 31 39 34 40 94 40 72 0 107 18 107 56 0 38 -34 65 -170 132 -206 101 -459
177 -689 206 -62 8 -115 17 -117 19 -6 6 -6 379 0 385 16 15 368 -40 556 -88
330 -84 679 -259 918 -460 69 -58 73 -64 66 -93 -9 -44 -10 -44 -42 -15 -47
44 -117 86 -203 124 -46 20 -131 58 -188 85 -137 65 -163 64 -177 -7 -4 -22 5
-50 34 -109 22 -44 62 -128 90 -187 36 -75 68 -124 108 -167 l56 -61 -31 -32
c-17 -18 -41 -47 -54 -65 -12 -18 -24 -33 -27 -33 -3 0 -56 50 -118 110 -63
61 -118 110 -122 110 -5 0 -15 -10 -21 -22 -9 -17 -9 -23 0 -26 27 -9 146
-119 208 -191 137 -160 256 -370 316 -556 79 -245 94 -593 37 -858 -21 -99
-88 -284 -135 -377 -42 -83 -146 -238 -200 -300 -27 -30 -58 -65 -69 -78 -20
-22 -21 -34 -18 -170 l4 -147 -59 -72 -58 -72 -5 141 c-3 81 -9 143 -15 144
-5 2 -32 -15 -58 -39 l-49 -42 1 -167 2 -168 -48 -63 c-26 -34 -57 -79 -68
-100 -11 -20 -24 -37 -29 -37 -5 0 -7 87 -4 210 4 174 3 210 -9 210 -7 0 -38
-24 -68 -53 l-55 -53 0 -281 c0 -273 -1 -282 -23 -321 l-22 -39 -19 26 c-11
14 -13 20 -6 14 19 -18 28 -16 26 5 0 9 5 16 12 15 14 -3 14 -1 6 21 -3 9 -10
16 -15 16 -4 0 -5 -8 -2 -17 6 -16 5 -17 -13 -3 -18 14 -18 14 -5 -2 7 -10 10
-18 5 -18 -5 0 -17 11 -27 25 -12 17 -14 26 -5 31 7 5 8 3 3 -6 -6 -9 -4 -11
5 -5 9 6 11 4 5 -5 -5 -9 -4 -11 4 -6 6 4 9 12 6 17 -7 10 23 8 42 -4 12 -8
12 10 0 31 -7 10 -13 9 -30 -3 -18 -13 -23 -13 -37 0 -15 14 -17 10 -19 -46
-2 -48 1 -59 11 -53 10 6 11 5 1 -7 -7 -8 -14 -42 -16 -74 -2 -33 -4 41 -5
164 -2 179 1 237 15 292 28 117 -14 109 -61 -11 -38 -97 -46 -181 -46 -496 l0
-304 -34 38 -34 37 -381 2 -380 3 -34 -40 -34 -40 -6 218 c-4 119 -7 267 -7
327 -1 61 -7 137 -14 170 -24 111 -84 221 -99 181 -3 -8 -1 -30 4 -48 6 -18
12 -80 14 -137 5 -104 0 -121 -30 -121 -5 1 -2 5 8 11 9 6 15 15 11 21 -4 6
-10 5 -15 -3 -7 -11 -9 -10 -9 5 0 12 5 16 15 12 17 -6 21 19 5 29 -8 5 -8 11
0 20 7 9 6 16 -5 25 -8 7 -12 17 -8 24 4 7 1 6 -9 -1 -8 -7 -19 -9 -23 -5 -5
4 -5 2 -1 -5 3 -6 2 -14 -3 -17 -5 -3 -11 3 -14 14 -3 11 1 21 9 23 9 3 8 4
-3 3 -11 -1 -18 -12 -21 -36 -6 -54 -12 -49 -12 9 0 29 4 50 9 47 5 -3 11 1
14 9 4 9 1 12 -9 8 -12 -4 -14 13 -15 103 -1 159 -3 174 -26 193 -12 9 -39 31
-60 48 -22 18 -43 30 -47 26 -3 -3 -6 -99 -6 -212 l0 -206 -35 54 c-19 29 -48
71 -64 94 -28 41 -29 45 -35 210 -4 113 -10 173 -19 181 -32 31 -86 66 -101
66 -16 0 -18 -12 -14 -135 1 -74 0 -135 -4 -135 -3 0 -29 30 -56 66 l-50 67
-7 155 c-6 135 -10 158 -27 176 -92 97 -195 246 -251 359 l-52 108 -107 -2
c-59 -2 -111 0 -115 4 -3 4 42 7 101 7 107 0 107 0 100 23 -17 54 -25 67 -41
67 -17 1 -63 32 -63 43 0 3 6 5 13 4 53 -2 57 1 42 36 -8 19 -24 81 -36 138
-30 143 -33 454 -6 604 56 306 228 625 466 866 48 48 98 92 113 98 20 7 25 15
21 30 -3 12 -11 21 -17 21 -18 0 -111 -81 -188 -163 -38 -39 -68 -67 -68 -62
0 6 -12 23 -26 40 -22 26 -23 31 -11 39 14 9 13 11 -1 22 -15 11 -14 12 8 7
23 -6 24 -5 11 10 -12 15 -12 17 4 11 14 -6 16 -4 9 7 -20 32 -14 50 21 65 34
14 51 29 19 17 -12 -4 -15 -2 -12 8 3 8 10 13 16 12 7 -2 9 4 5 14 -4 9 -2 14
3 11 5 -4 9 7 9 23 0 16 -4 29 -8 29 -5 0 -1 7 7 16 9 8 16 21 16 28 0 23 56
149 89 200 40 65 44 131 7 147 -19 9 -31 8 -58 -6 -18 -9 -107 -50 -197 -91
-180 -81 -225 -106 -296 -160 -26 -19 -48 -34 -50 -32 -1 2 -5 20 -8 40 -5 36
-4 38 86 111 237 191 421 295 692 387 234 79 540 142 728 148 l47 2 0 -88z
m-1712 -639 c-4 -81 -10 -123 -28 -168 -27 -70 -70 -118 -96 -108 -13 5 -15 3
-10 -8 4 -8 0 -5 -8 5 -15 19 -16 17 -16 -25 l-1 -44 -17 30 c-12 21 -16 55
-17 116 0 79 3 92 35 154 25 49 51 82 88 112 29 24 58 43 63 43 8 0 10 -35 7
-107z m3864 73 c48 -37 99 -109 116 -166 19 -62 20 -166 1 -155 -6 4 -8 14 -5
22 3 8 2 12 -3 9 -7 -5 -114 54 -135 74 -23 23 -48 250 -27 250 4 0 28 -15 53
-34z m-3302 9 c0 -17 -53 -106 -85 -143 -41 -47 -118 -97 -137 -89 -8 4 -7 6
3 6 9 1 19 8 23 16 3 8 11 15 19 15 7 0 24 11 36 24 21 22 12 20 -84 -20 -59
-24 -111 -44 -116 -44 -15 0 31 73 74 118 51 53 101 80 187 103 76 20 80 21
80 14z m2781 -21 c69 -20 140 -65 184 -116 34 -41 68 -111 42 -90 -6 5 -48 22
-92 37 -44 15 -95 36 -114 47 l-34 19 18 -27 c32 -49 0 -16 -37 38 -43 62 -58
108 -36 108 8 0 39 -7 69 -16z m-3024 -220 c-3 -3 -12 -4 -19 -1 -8 3 -5 6 6
6 11 1 17 -2 13 -5z m-618 -210 c18 -48 24 -83 22 -132 -1 -21 -2 -22 -17 -8
-20 20 -28 20 -20 1 3 -8 1 -15 -4 -15 -6 0 -10 4 -10 10 0 5 -13 39 -30 73
-39 82 -39 135 -3 208 l28 54 7 -71 c4 -39 16 -93 27 -120z m871 182 c0 -2 -8
-10 -17 -17 -16 -13 -17 -12 -4 4 13 16 21 21 21 13z m3611 -91 c0 -5 2 -18 4
-28 2 -10 -1 -14 -7 -10 -7 4 -9 -2 -6 -15 4 -12 2 -20 -3 -16 -5 3 -14 -7
-19 -23 -18 -47 -40 -89 -40 -75 0 6 -4 12 -10 12 -5 0 -11 -17 -12 -37 -1
-35 -1 -36 -5 -7 -2 18 7 64 21 104 16 44 26 96 26 129 l1 56 24 -40 c14 -22
25 -44 26 -50z m-3661 40 c-7 -8 -17 -15 -22 -15 -6 0 -5 7 2 15 7 8 17 15 22
15 6 0 5 -7 -2 -15z m-204 -66 l69 -21 -40 -35 c-22 -18 -57 -43 -77 -54 -38
-19 -38 -19 -38 1 0 11 7 20 15 20 8 0 15 4 15 8 0 15 -229 -15 -257 -33 -25
-17 -25 -17 3 19 37 47 91 84 146 101 60 19 86 18 164 -6z m3367 -5 c42 -14
137 -86 137 -103 0 -4 -30 0 -67 10 -38 9 -111 20 -163 24 -90 7 -150 25 -150
44 0 17 76 40 136 40 33 1 81 -6 107 -15z m-4183 -174 c24 -53 35 -94 38 -140
2 -36 1 -62 -3 -58 -5 4 -13 0 -20 -9 -19 -26 -88 105 -93 178 -4 56 21 132
37 113 4 -5 23 -43 41 -84z m4859 63 c17 -37 27 -128 14 -120 -6 4 -16 0 -22
-7 -10 -11 -8 -15 6 -19 12 -3 8 -5 -9 -6 -22 -1 -28 -6 -28 -23 0 -16 -3 -19
-8 -10 -6 9 -12 5 -20 -13 -7 -14 -12 -32 -12 -40 0 -8 -4 -15 -10 -15 -15 0
-12 60 6 121 25 85 55 159 63 159 4 0 13 -12 20 -27z m-3805 -53 c-6 -6 -15
-5 -24 1 -12 9 -12 10 4 5 14 -5 17 -3 12 11 -6 15 -5 16 5 6 8 -8 10 -16 3
-23z m2756 20 c79 -18 99 -31 146 -94 109 -145 219 -418 251 -623 l5 -33 -71
0 c-78 0 -73 -5 -90 91 -13 72 -72 249 -117 347 -38 83 -146 263 -169 282 -16
13 -21 40 -7 40 4 0 27 -5 52 -10z m-2862 -47 c-9 -10 -18 -25 -21 -33 -4 -12
-6 -11 -6 3 -1 23 2 33 12 30 4 -2 7 2 7 7 0 6 5 10 12 10 7 0 6 -6 -4 -17z
m82 13 c0 -2 -8 -10 -17 -17 -16 -13 -17 -12 -4 4 13 16 21 21 21 13z m-120
-51 c5 -14 15 -24 21 -23 6 2 14 -3 17 -11 3 -8 0 -11 -7 -7 -6 4 -11 0 -11
-10 0 -17 -14 -11 -16 7 -1 5 -2 13 -3 17 0 4 -9 8 -20 8 -13 0 -18 -7 -16
-23 1 -12 -4 -24 -11 -27 -8 -3 -14 -2 -15 2 0 4 -2 15 -4 25 -2 9 1 15 6 11
5 -3 9 2 9 11 0 9 7 15 16 13 10 -2 19 3 22 11 3 9 0 11 -8 6 -9 -5 -11 -4 -6
3 11 17 15 15 26 -13z m72 10 c17 3 17 2 0 -20 -11 -14 -19 -19 -24 -12 -4 6
-4 15 -2 19 3 4 0 8 -6 8 -6 0 -8 5 -4 11 4 7 9 7 13 1 3 -5 14 -8 23 -7z
m-80 -52 c-10 -4 -9 -8 5 -18 13 -9 22 -10 30 -3 9 7 13 7 13 0 0 -5 -7 -13
-16 -16 -8 -3 -13 -10 -10 -15 3 -4 -8 -33 -24 -63 -63 -116 -135 -316 -160
-445 l-13 -63 -70 0 -69 0 6 33 c4 17 9 49 13 70 4 27 10 37 22 35 10 -2 16 4
16 17 0 12 6 19 14 17 12 -3 12 0 2 12 -7 9 -8 16 -2 20 10 6 8 37 -4 56 -4 6
-3 10 2 9 19 -3 27 2 15 10 -11 7 -8 22 14 77 46 117 72 162 91 160 10 0 17 5
16 12 -2 6 2 12 8 12 5 0 7 5 4 10 -4 7 3 9 19 6 13 -2 29 1 35 8 7 9 4 12
-14 12 -13 0 -21 -4 -18 -10 3 -5 1 -6 -6 -2 -9 6 -9 11 0 22 8 9 16 11 23 5
13 -11 40 1 42 19 3 18 4 20 17 19 9 0 9 -2 -1 -6z m-1113 -58 c62 -70 112
-202 77 -202 -9 0 -16 5 -16 11 0 6 -4 4 -9 -4 -13 -19 -3 -34 14 -20 7 6 15
7 17 3 9 -16 8 -143 -1 -143 -5 0 -35 28 -68 63 -67 72 -83 113 -83 213 0 122
15 140 69 79z m777 15 c32 -12 30 -24 -6 -50 -23 -17 -59 -25 -144 -35 -110
-13 -150 -26 -209 -67 -50 -35 -40 -12 23 55 59 63 103 92 165 108 34 9 135 2
171 -11z m3921 -16 c47 -23 133 -104 133 -126 0 -4 -21 2 -47 16 -54 26 -122
42 -231 52 -58 5 -80 12 -104 32 -25 22 -27 27 -14 34 60 34 185 30 263 -8z
m596 -13 c5 -26 4 -68 -3 -110 -13 -77 -30 -114 -30 -66 0 22 -3 26 -9 16 -5
-8 -8 -19 -7 -25 2 -6 1 -8 -1 -3 -3 4 -15 7 -28 7 -29 0 -75 -71 -75 -113 0
-15 -4 -27 -10 -27 -19 0 -11 133 11 198 22 65 110 177 133 169 6 -2 14 -23
19 -46z m-88 -201 c3 -5 1 -10 -4 -10 -6 0 -11 5 -11 10 0 6 2 10 4 10 3 0 8
-4 11 -10z m-5329 -133 c10 -12 38 -42 61 -67 46 -49 66 -98 57 -137 -4 -12
-9 -23 -12 -23 -3 0 -30 23 -61 52 -113 106 -145 177 -121 268 l12 43 23 -57
c13 -32 32 -67 41 -79z m5548 107 c3 -9 6 -39 6 -67 0 -66 -32 -129 -91 -177
-23 -19 -39 -29 -35 -22 7 11 4 11 -13 0 -12 -7 -21 -16 -21 -21 0 -4 5 -5 10
-2 6 3 10 2 10 -4 0 -5 -4 -13 -10 -16 -5 -3 -10 -1 -10 4 0 6 -7 11 -15 11
-28 0 -17 56 20 102 19 24 49 61 66 83 16 22 40 43 52 46 12 3 21 10 20 15 -1
5 -5 22 -8 37 -8 29 8 39 19 11z m-4921 -70 c43 -8 46 -19 12 -56 -17 -19 -39
-29 -72 -33 -76 -11 -194 -45 -245 -71 -26 -13 -50 -24 -53 -24 -14 0 63 95
102 127 66 54 153 74 256 57z m4386 -10 c56 -16 131 -77 163 -131 l17 -30 -47
23 c-26 12 -103 33 -171 46 -115 23 -127 27 -149 56 l-23 31 43 9 c65 15 109
14 167 -4z m-4022 -19 c0 -8 -5 -15 -10 -15 -5 0 -7 -7 -4 -15 4 -8 2 -17 -4
-21 -6 -3 -8 -13 -4 -23 5 -12 3 -13 -5 -5 -9 9 -8 22 1 53 12 41 26 55 26 26z
m-1138 -179 c7 -13 44 -54 82 -92 39 -38 67 -74 65 -81 -3 -7 -1 -13 4 -13 6
0 9 -10 9 -22 -1 -16 -3 -18 -6 -6 -2 9 -17 20 -34 23 -16 4 -27 10 -24 15 3
4 -2 13 -10 20 -10 8 -15 9 -15 1 0 -16 -50 9 -78 39 l-23 25 17 -27 c9 -16
14 -28 11 -28 -14 0 -47 71 -47 99 0 34 15 71 29 71 4 0 13 -11 20 -24z m5813
-43 c-2 -41 -32 -94 -68 -118 -15 -9 -23 -12 -20 -6 4 6 2 11 -5 11 -17 0 -5
11 15 14 9 1 17 6 17 12 0 5 6 15 12 23 9 12 9 13 0 7 -8 -4 -13 -1 -13 8 0 9
-5 16 -11 16 -5 0 -7 -4 -4 -10 8 -13 -8 -13 -22 1 -7 7 -23 -4 -53 -38 -23
-26 -36 -38 -27 -25 8 13 46 56 83 95 58 61 71 70 83 59 8 -8 14 -29 13 -49z
m-118 -88 c-4 -8 -11 -12 -16 -9 -6 4 -5 10 3 15 19 12 19 11 13 -6z m-5659
-45 c10 -11 16 -20 13 -20 -3 0 -13 9 -23 20 -10 11 -16 20 -13 20 3 0 13 -9
23 -20z m1155 -105 l0 -116 -69 3 -69 3 -5 38 c-3 21 -3 72 0 113 l6 74 68 0
69 0 0 -115z m3520 0 l0 -115 -70 0 -70 0 0 99 c0 55 -3 106 -6 115 -5 14 5
16 70 16 l76 0 0 -115z m-4831 48 c26 -27 73 -70 105 -97 31 -27 62 -60 68
-75 14 -38 17 -110 4 -118 -6 -3 -8 -2 -3 2 4 5 -4 21 -19 36 -19 19 -22 29
-13 34 7 5 10 4 6 -2 -3 -5 0 -10 8 -10 8 0 11 5 8 10 -4 6 -1 7 7 2 8 -5 11
-4 6 3 -6 10 -23 10 -51 0 -16 -5 -156 112 -149 124 4 7 2 8 -4 4 -12 -7 -35
24 -46 60 -6 21 8 74 20 74 3 0 27 -21 53 -47z m738 34 c28 -8 64 -22 79 -32
l27 -18 -25 -13 c-13 -7 -80 -20 -148 -29 -129 -17 -198 -38 -261 -80 -22 -14
-39 -23 -39 -19 0 11 59 91 91 123 74 72 169 95 276 68z m4743 -25 c51 -25
140 -116 140 -142 0 -5 -22 2 -48 15 -66 33 -149 54 -246 61 -85 6 -169 30
-160 45 9 15 63 40 107 49 64 13 146 2 207 -28z m597 -20 c-3 -12 -5 -11 -6 6
0 12 -6 22 -12 22 -5 0 -7 5 -3 11 9 16 27 -16 21 -39z m-42 28 c-3 -5 0 -10
8 -10 9 0 17 -13 20 -32 5 -33 -8 -62 -23 -53 -4 3 -14 -3 -21 -13 -13 -15
-12 -16 4 -3 23 18 22 -1 -2 -23 -11 -10 -26 -14 -37 -10 -13 4 -15 3 -6 -3
11 -8 11 -12 0 -20 -25 -19 -41 -27 -34 -15 8 13 -28 35 -39 24 -4 -4 -2 4 4
16 19 36 7 36 -29 0 -27 -28 -30 -29 -16 -7 20 31 95 93 92 76 -1 -6 -6 -18
-10 -26 -7 -10 -6 -12 4 -6 9 6 11 4 5 -6 -5 -8 -4 -11 1 -6 9 8 10 12 13 38
1 8 5 8 16 -1 8 -7 12 -16 9 -21 -10 -16 3 -9 17 9 7 9 9 14 4 9 -4 -4 -17 1
-27 10 -18 16 -17 18 14 50 32 33 45 42 33 23z m-6056 -314 c68 -54 116 -127
109 -165 -2 -17 -19 -7 -107 59 -113 85 -141 119 -141 166 0 49 18 57 48 22
14 -16 55 -53 91 -82z m6191 58 c0 -34 -41 -85 -109 -136 -52 -39 -68 -46 -93
-41 -20 4 -33 1 -39 -8 -5 -8 -9 -9 -9 -3 0 24 49 81 118 137 40 32 80 69 90
82 15 20 18 21 29 6 7 -9 13 -25 13 -37z m-5216 -126 c-4 -7 -2 -8 5 -4 6 4 9
12 5 17 -4 7 8 9 32 7 26 -3 39 -9 39 -18 0 -8 -5 -14 -11 -13 -15 3 -13 -21
4 -36 12 -12 13 -11 7 8 -4 12 -2 21 4 21 6 0 11 -11 11 -24 0 -26 21 -119 46
-204 8 -29 12 -58 8 -65 -4 -6 -3 -9 1 -4 5 4 26 -34 46 -84 21 -50 55 -113
74 -140 20 -28 33 -55 29 -61 -4 -6 -3 -8 3 -5 6 4 19 -5 28 -20 l17 -26 -59
5 c-62 6 -209 70 -198 88 3 5 0 12 -6 16 -8 4 -9 3 -5 -4 4 -7 4 -12 -1 -12
-21 1 -34 21 -44 73 -10 46 -9 60 2 74 13 16 12 17 -3 4 -16 -12 -18 -11 -19
10 -1 13 -3 33 -5 44 -24 165 -33 382 -14 370 6 -3 7 -11 4 -17z m4082 13 c20
-1 22 -7 23 -93 2 -98 -8 -189 -36 -352 l-17 -99 -67 -43 c-83 -54 -107 -63
-186 -73 -58 -7 -62 -6 -51 10 102 137 136 201 187 354 21 63 41 112 43 109 3
-2 3 7 0 22 -4 24 -3 26 19 19 22 -7 23 -6 6 7 -17 12 -17 20 -7 81 12 65 13
67 39 63 14 -2 36 -5 47 -5z m-4466 -5 c0 -3 -9 -20 -20 -39 -17 -29 -36 -40
-118 -72 -53 -21 -125 -50 -159 -66 -35 -15 -63 -25 -63 -21 0 4 9 25 21 47
38 72 98 124 169 146 27 8 170 12 170 5z m5041 -11 c49 -18 75 -39 130 -108
57 -71 52 -84 -19 -48 -32 16 -87 37 -122 46 -35 9 -76 23 -90 30 -26 14 -70
66 -70 85 0 16 122 12 171 -5z m-4333 -12 c-10 -2 -26 -2 -35 0 -10 3 -2 5 17
5 19 0 27 -2 18 -5z m3500 0 c-21 -2 -57 -2 -80 0 -24 2 -7 4 37 4 44 0 63 -2
43 -4z m1411 -80 c-8 -9 -48 -41 -89 -71 -41 -30 -88 -67 -105 -81 l-30 -26
27 30 c23 25 196 162 207 164 2 1 -3 -7 -10 -16z m-6287 -56 c99 -65 128 -95
47 -47 -30 17 -71 39 -91 47 -21 9 -38 20 -38 26 0 5 -7 7 -15 3 -15 -5 -21
15 -8 28 8 8 2 12 105 -57z m-105 -9 c-3 -8 -6 -5 -6 6 -1 11 2 17 5 13 3 -3
4 -12 1 -19z m1549 -80 c3 -4 -1 -5 -10 -4 -8 1 -18 5 -22 8 -3 4 1 5 10 4 8
-1 18 -5 22 -8z m-1295 -40 c15 -28 5 -21 -21 15 -15 20 -17 27 -6 18 9 -8 22
-23 27 -33z m5907 -18 c-7 -10 -14 -17 -17 -15 -4 4 18 35 25 35 2 0 -1 -9 -8
-20z m-5502 -166 c-16 -47 -135 -196 -150 -187 -8 6 -4 50 9 88 6 17 5 17 -5
5 -9 -12 -11 -4 -7 36 6 73 43 139 107 192 l55 45 3 -68 c2 -41 -3 -85 -12
-111z m5168 101 c40 -52 57 -95 59 -145 1 -26 5 -46 10 -43 4 2 7 -23 7 -56 0
-34 -3 -61 -7 -61 -13 1 -96 107 -127 161 -29 50 -47 157 -32 194 5 15 9 15
37 -2 17 -10 41 -31 53 -48z m-895 18 c-21 -28 -23 -29 -16 -10 6 15 -1 17
-69 17 -48 0 -73 -4 -69 -10 3 -5 1 -10 -4 -10 -12 0 -14 13 -4 23 3 4 44 7
91 7 79 0 84 -1 71 -17z m1501 -38 c0 -5 -167 -115 -210 -140 -47 -26 18 22
105 79 112 72 105 68 105 61z m-6370 -53 c114 -72 161 -105 156 -109 -2 -3
-32 14 -65 36 -33 23 -62 41 -66 41 -11 0 -105 65 -105 73 0 9 0 9 80 -41z
m5530 -44 c0 -88 -22 -142 -75 -185 -37 -31 -128 -63 -179 -63 -24 0 -26 3
-20 23 25 82 102 181 192 247 37 28 70 50 75 50 4 0 7 -33 7 -72z m-4688 6
c93 -75 156 -163 171 -239 3 -16 4 -24 1 -17 -3 6 -10 12 -15 12 -6 0 -7 -5
-3 -11 4 -7 0 -9 -12 -6 -11 3 -31 8 -46 11 -15 4 -45 25 -66 48 -23 25 -42
37 -45 30 -4 -6 9 -20 28 -32 20 -12 34 -24 31 -27 -9 -10 -76 44 -100 81 -27
42 -42 125 -31 175 4 17 9 31 12 31 3 0 37 -25 75 -56z m736 30 c81 -10 61
-25 -30 -22 -54 2 -83 7 -86 16 -4 14 32 16 116 6z m3240 -6 c-8 -24 -168 -21
-168 2 0 6 38 10 86 10 64 0 85 -3 82 -12z m-3194 -166 c3 -5 -1 -9 -9 -9 -8
0 -12 4 -9 9 3 4 7 8 9 8 2 0 6 -4 9 -8z m30 -54 c-3 -5 -12 -4 -20 3 -7 6
-11 15 -8 21 3 5 12 4 20 -3 7 -6 11 -15 8 -21z m-451 -22 c60 -45 106 -58
227 -64 l114 -5 76 -76 c41 -42 93 -91 115 -107 36 -28 38 -33 26 -48 -11 -13
-11 -16 -1 -14 9 2 13 -8 13 -32 1 -34 -1 -35 -39 -38 -34 -3 -42 1 -54 23 -7
14 -15 23 -18 20 -3 -2 1 -11 8 -20 7 -9 8 -15 2 -15 -13 0 -62 58 -62 73 0 7
-14 32 -30 57 -16 25 -30 42 -30 37 0 -4 -13 -1 -30 8 -22 11 -63 15 -164 15
l-134 0 -13 53 c-6 28 -20 76 -30 105 -10 28 -16 52 -13 52 3 0 20 -11 37 -24z
m3881 -94 c-48 -169 -95 -301 -153 -424 l-51 -108 -132 0 c-77 -1 -157 -7
-190 -14 l-58 -14 0 78 0 77 63 5 c103 9 160 49 203 145 13 28 27 54 32 57 11
7 72 10 91 5 16 -5 48 44 53 80 3 24 1 25 -57 22 -112 -4 -158 -30 -200 -111
-13 -25 -32 -53 -43 -63 -23 -21 -74 -34 -114 -29 -26 3 -28 6 -28 51 0 47 2
50 54 89 30 23 82 73 117 112 l63 70 102 0 c113 0 161 12 227 59 23 17 45 30
48 31 3 0 -9 -53 -27 -118z m-3399 78 c10 -11 16 -20 13 -20 -3 0 -13 9 -23
20 -10 11 -16 20 -13 20 3 0 13 -9 23 -20z m-1564 -90 c44 -17 113 -39 152
-48 42 -10 63 -18 50 -20 -57 -9 -323 98 -368 148 -13 14 -2 10 32 -13 29 -20
89 -49 134 -67z m6119 34 c0 -8 -140 -71 -185 -82 -83 -21 -95 -22 -95 -12 0
5 12 10 28 10 29 0 170 47 217 73 35 19 35 19 35 11z m-5260 -154 c-4 -23 -9
-42 -11 -43 -2 -1 -30 -14 -61 -29 -32 -15 -75 -44 -97 -64 -47 -42 -97 -136
-107 -200 -3 -24 -10 -47 -14 -49 -15 -9 -33 107 -28 177 11 145 121 246 269
248 l56 0 -7 -40z m4495 12 c55 -27 121 -101 134 -148 15 -53 13 -149 -3 -209
-14 -53 -17 -51 -37 25 -28 112 -95 194 -197 243 -63 30 -82 52 -82 99 0 19 4
20 73 16 45 -3 87 -13 112 -26z m-5462 -80 c48 -26 129 -76 179 -112 109 -76
341 -298 333 -318 -2 -7 -1 -11 4 -8 9 6 57 -49 111 -129 l34 -49 -30 21 c-16
11 -38 31 -49 44 l-20 24 20 -15 c17 -12 18 -12 7 0 -7 8 -20 15 -30 15 -9 0
-16 6 -15 12 2 7 -1 12 -6 10 -7 -2 -163 96 -263 164 -15 11 -32 19 -38 19 -5
0 -10 5 -10 11 0 6 6 9 13 6 8 -3 20 -1 28 5 12 8 12 9 -1 5 -8 -2 -23 0 -34
5 -13 7 -16 7 -12 -1 4 -6 4 -11 0 -11 -14 0 -134 82 -134 92 0 5 -4 7 -9 4
-17 -11 -128 102 -148 151 -25 59 -36 103 -26 103 5 0 47 -22 96 -48z m6365
36 c-3 -7 -13 -37 -24 -67 -24 -68 -91 -143 -181 -204 -88 -58 -111 -69 -125
-61 -6 4 -8 3 -5 -3 7 -12 -115 -96 -139 -96 -8 0 -12 -2 -9 -5 2 -3 -30 -29
-73 -59 -99 -70 -110 -79 -173 -133 l-53 -45 39 60 c87 138 237 301 361 397
99 75 350 227 378 228 4 0 6 -6 4 -12z m-4906 -29 c27 -12 61 -66 51 -81 -3
-7 -1 -8 5 -4 11 7 16 -7 15 -41 -1 -7 3 -11 7 -8 4 2 17 -7 30 -20 30 -32 99
-58 156 -59 l44 -1 0 -79 c0 -70 -2 -77 -17 -71 -10 4 -48 12 -85 18 -49 8
-68 16 -69 27 0 10 -2 11 -6 3 -2 -7 -9 -13 -14 -13 -6 0 -8 4 -5 8 2 4 -4 8
-14 8 -10 0 -16 -4 -14 -8 3 -4 -11 -8 -31 -8 -20 0 -34 4 -30 10 3 5 13 7 23
4 13 -5 14 -4 3 4 -7 5 -11 14 -7 20 3 6 1 14 -6 18 -7 4 -10 4 -6 -1 4 -4 0
-21 -10 -37 -14 -25 -22 -29 -52 -26 -31 2 -38 9 -63 56 -15 29 -25 58 -21 64
5 7 3 8 -6 3 -10 -6 -12 -4 -7 9 4 9 3 15 -2 11 -5 -3 -21 28 -36 67 -23 63
-37 97 -53 131 -6 11 194 8 220 -4z m2883 -447 c30 -139 15 -312 -37 -425 -37
-81 -108 -151 -225 -223 -138 -85 -233 -167 -287 -248 -31 -46 -32 -39 -7 79
55 258 184 497 416 771 29 34 65 80 81 102 34 48 38 44 59 -56z m-3306 53
c135 -57 278 -177 363 -305 89 -136 133 -206 134 -215 1 -5 2 -16 3 -22 0 -7
6 -13 12 -13 7 0 8 5 3 13 -5 7 3 -1 18 -18 14 -16 25 -31 23 -33 -8 -8 -45
10 -39 19 3 6 0 9 -7 8 -27 -4 -75 14 -128 50 -30 20 -69 45 -87 57 -19 11
-31 24 -27 29 5 4 2 5 -5 1 -7 -4 -9 -12 -6 -18 5 -7 2 -9 -8 -5 -17 6 -38
-29 -38 -63 0 -29 96 -106 195 -156 64 -32 114 -49 174 -60 47 -8 87 -17 90
-20 8 -9 -94 6 -159 23 -54 14 -215 103 -256 142 -12 11 -25 18 -28 15 -3 -2
-4 -1 -1 2 2 4 -8 18 -23 32 -15 13 -21 21 -13 17 9 -5 12 -3 9 6 -3 8 -12 13
-19 11 -9 -2 -8 3 4 16 20 21 22 38 6 48 -8 4 -9 -1 -4 -17 7 -24 7 -24 -10
-4 l-17 20 7 -20 c6 -19 5 -19 -12 -3 -16 17 -16 18 1 31 10 7 21 31 25 54 7
37 6 42 -20 57 -15 9 -34 16 -43 16 -23 0 -66 -45 -66 -69 0 -26 47 -81 64
-75 19 7 30 -14 16 -31 -7 -9 -8 -15 0 -20 5 -3 10 -1 10 6 0 7 3 10 6 6 3 -3
3 -11 -1 -17 -5 -8 -13 -6 -26 6 -18 16 -19 16 -20 -2 -1 -10 -1 -23 0 -27 1
-5 -3 -6 -8 -3 -5 3 -7 16 -4 29 5 22 5 22 -10 2 -8 -11 -19 -17 -23 -12 -4 4
-2 7 4 7 7 0 12 5 12 11 0 5 -4 8 -9 5 -14 -9 -22 23 -11 44 12 22 5 28 -32
25 -29 -2 -38 9 -15 18 6 3 -3 6 -21 6 -20 1 -31 5 -27 11 4 6 11 8 16 5 5 -3
6 1 2 11 -5 13 -7 13 -14 3 -4 -8 -7 -18 -7 -23 0 -5 -6 -13 -14 -18 -10 -8
-9 -9 3 -5 12 4 18 -2 22 -21 7 -38 3 -37 -27 7 -23 33 -26 43 -16 60 13 25
25 28 15 4 -5 -14 -4 -15 6 -6 9 9 9 16 1 26 -7 8 -9 16 -6 20 8 8 -19 3 -34
-7 -10 -6 -11 -11 -3 -19 6 -6 11 -16 11 -22 -1 -38 -71 105 -88 180 -13 61
-22 192 -15 213 9 22 115 10 192 -23z m1019 -107 c66 -79 143 -174 172 -213
95 -127 225 -415 250 -555 6 -36 13 -72 14 -81 2 -9 -38 25 -88 75 -58 58
-135 120 -211 171 -140 93 -202 154 -243 239 -35 71 -62 183 -62 255 0 92 28
251 44 251 3 0 59 -64 124 -142z m3362 93 c0 -64 -26 -210 -47 -263 -29 -76
-110 -191 -186 -267 -52 -51 -77 -69 -82 -60 -5 7 -4 10 2 6 6 -4 16 0 23 8
10 12 8 16 -11 24 -17 7 -19 10 -7 10 12 1 15 6 11 17 -3 9 -9 12 -12 7 -5 -7
-26 -9 -60 -4 -5 0 -8 8 -7 16 1 9 6 14 12 13 5 -2 8 -7 6 -11 -1 -5 2 -6 8
-2 5 3 10 1 10 -5 0 -6 5 -8 11 -5 6 5 3 13 -10 22 -22 15 -19 39 2 26 7 -4 5
2 -3 12 -9 11 -10 16 -2 11 6 -4 12 -3 12 1 0 5 -9 14 -19 20 -16 10 -22 8
-36 -7 -17 -18 -17 -19 3 -15 22 4 25 -21 3 -34 -6 -4 -13 -18 -14 -29 -1 -12
-5 -22 -10 -22 -4 0 -5 -6 -1 -12 4 -7 4 -10 -1 -6 -5 5 -22 -3 -40 -16 -17
-13 -53 -39 -81 -57 -27 -18 -52 -38 -56 -43 -4 -6 -8 -7 -8 -3 0 4 -9 3 -20
-3 -11 -6 -17 -16 -14 -22 4 -7 3 -8 -5 -4 -16 10 -53 -3 -45 -16 4 -7 2 -8
-4 -4 -18 11 -94 -15 -88 -30 3 -9 -13 -12 -61 -13 -63 0 -65 0 -49 18 11 12
38 21 79 25 107 13 238 75 345 164 55 46 64 72 35 104 -25 28 -53 22 -113 -23
-75 -56 -230 -133 -230 -113 0 2 20 30 44 61 24 32 73 105 109 163 137 218
261 328 432 383 44 15 101 26 128 27 l47 0 0 -49z m-3764 -47 c57 -9 104 -21
104 -25 0 -5 -10 -7 -22 -4 -94 21 -124 25 -210 25 -59 0 -98 4 -98 10 0 15
108 12 226 -6z m3169 6 c-3 -5 -36 -10 -73 -11 -37 0 -110 -6 -162 -13 -92
-13 -110 -13 -98 0 24 23 347 47 333 24z m-3068 -134 c3 -3 -53 -6 -125 -6
-73 0 -132 3 -132 8 0 9 248 7 257 -2z m3010 2 c-3 -10 -38 -13 -133 -13 -137
0 -148 1 -139 16 4 5 67 9 141 9 104 0 135 -3 131 -12z m-4487 -44 c149 -49
346 -149 477 -241 61 -43 175 -134 252 -202 274 -241 552 -433 812 -560 57
-28 98 -51 91 -51 -18 0 -397 126 -567 190 -461 171 -675 313 -920 608 -43 52
-89 99 -101 104 -30 14 -74 -4 -74 -29 0 -26 90 -167 154 -243 30 -35 53 -67
50 -69 -2 -3 -17 -6 -32 -8 -15 -1 -53 -9 -85 -17 l-58 -14 -38 76 c-82 164
-143 337 -156 447 l-8 57 49 -7 c27 -4 96 -22 154 -41z m5895 -21 c-17 -158
-167 -513 -270 -635 l-24 -29 -20 40 c-11 21 -36 56 -56 76 -19 21 -35 39 -35
41 0 2 12 16 26 31 98 104 198 257 206 313 3 22 -1 25 -31 28 -32 3 -40 -2
-95 -65 -34 -37 -117 -124 -186 -193 -246 -246 -466 -360 -1085 -561 -148 -48
-271 -87 -273 -85 -1 2 70 40 158 85 260 130 419 242 730 511 179 154 303 248
410 310 189 110 408 193 523 199 l29 1 -7 -67z m-3621 -22 c-3 -3 -10 -7 -15
-7 -5 -1 -13 -2 -19 -3 -11 -1 -9 -23 3 -32 4 -3 0 -12 -9 -20 -16 -12 -17
-12 -12 3 4 9 4 19 0 22 -10 10 -13 48 -3 42 5 -3 14 1 21 9 10 12 16 13 27 4
7 -7 11 -15 7 -18z m-4 -31 c0 -5 -2 -10 -4 -10 -3 0 -8 5 -11 10 -3 6 -1 10
4 10 6 0 11 -4 11 -10z m-785 -10 c4 -6 -23 -10 -72 -11 -43 0 -86 -2 -95 -4
-9 -2 -22 3 -29 11 -10 12 4 14 89 14 56 0 104 -4 107 -10z m720 0 c3 -5 1
-10 -4 -10 -6 0 -11 5 -11 10 0 6 2 10 4 10 3 0 8 -4 11 -10z m2184 -41 c-17
-27 -34 -48 -37 -45 -3 3 3 15 13 26 10 11 15 20 10 20 -4 0 -2 6 4 14 10 12
2 14 -51 11 -35 -2 -73 -3 -85 -4 -12 -1 -24 -9 -26 -18 -3 -10 -5 -3 -6 15
l-1 32 105 0 105 0 -31 -51z m-3705 10 c-3 -5 -10 -7 -15 -3 -5 3 -7 10 -3 15
3 5 10 7 15 3 5 -3 7 -10 3 -15z m1513 -11 c-3 -8 -6 -5 -6 6 -1 11 2 17 5 13
3 -3 4 -12 1 -19z m2158 -8 c-6 -9 -9 -9 -16 1 -10 17 0 34 13 21 6 -6 7 -16
3 -22z m-76 -9 c-6 -2 -18 4 -27 13 -15 15 -15 15 10 4 15 -7 23 -15 17 -17z
m-2055 10 c3 -5 -2 -15 -12 -22 -15 -12 -16 -12 -5 2 7 9 10 19 6 22 -3 4 -4
7 0 7 3 0 8 -4 11 -9z m2057 -39 c-7 -2 -18 1 -23 6 -8 8 -4 9 13 5 13 -4 18
-8 10 -11z m54 -2 c-3 -4 1 -10 7 -13 7 -3 3 -4 -9 -4 -15 1 -19 5 -13 13 6 6
6 15 2 19 -4 5 -1 5 6 1 7 -4 10 -11 7 -16z m-3556 -25 c28 2 29 1 18 -22 -6
-14 -13 -20 -15 -14 -2 6 -8 9 -13 6 -5 -4 -6 2 -3 12 5 16 4 16 -10 -1 -9
-11 -16 -16 -17 -10 0 5 -2 20 -5 34 -3 20 -2 22 6 9 6 -11 20 -16 39 -14z
m2705 -3 c3 -5 -1 -9 -9 -9 -8 0 -12 4 -9 9 3 4 7 8 9 8 2 0 6 -4 9 -8z m741
-1 c-9 -8 -36 -10 -30 -2 2 4 11 8 20 8 8 0 13 -3 10 -6z m103 -10 c6 -2 -40
-61 -89 -116 -48 -51 -89 -71 -89 -42 0 8 -3 8 -9 -2 -5 -8 -16 -11 -25 -8 -9
4 -16 2 -16 -3 0 -6 -5 -10 -12 -10 -7 0 -5 7 5 18 8 9 32 44 51 76 31 51 43
58 37 24 -1 -9 24 -5 52 7 11 5 16 14 12 24 -4 11 0 10 12 -4 10 -11 17 -18
16 -16 -1 2 3 13 9 25 7 11 11 24 10 28 -1 5 12 5 36 -1z m-114 -42 c-3 -5
-10 -7 -15 -3 -5 3 -7 10 -3 15 3 5 10 7 15 3 5 -3 7 -10 3 -15z m-3421 -22
c3 -8 -1 -14 -8 -14 -7 0 -11 6 -8 14 3 7 6 13 8 13 2 0 5 -6 8 -13z m897
-244 c81 -28 238 -125 308 -188 37 -35 89 -95 116 -134 47 -70 96 -176 96
-206 0 -8 -33 19 -72 62 -40 42 -123 113 -184 159 -136 100 -272 215 -339 284
l-50 51 40 -6 c22 -3 60 -13 85 -22z m2411 0 c-47 -65 -224 -221 -346 -304
-91 -62 -215 -180 -240 -228 -28 -55 -29 -26 -2 61 55 176 183 320 367 413 80
41 193 83 223 84 17 1 17 -1 -2 -26z m-3766 -111 c35 -32 111 -82 124 -82 5 0
14 -6 20 -14 10 -12 -2 -22 -62 -55 -82 -45 -96 -50 -76 -23 13 15 12 16 -3 3
-10 -7 -15 -17 -13 -22 5 -7 -72 -59 -88 -59 -4 0 -15 17 -26 39 -18 35 -19
43 -7 94 7 31 19 65 27 74 23 31 63 73 68 73 3 0 20 -12 36 -28z m5107 -9 c62
-66 85 -158 51 -209 -14 -22 -21 -25 -52 -19 -19 4 -49 13 -66 22 -39 19 -155
96 -155 103 0 3 15 15 33 27 18 13 57 43 86 68 29 25 56 45 60 45 4 0 23 -17
43 -37z m-3907 -3 c4 -7 -53 -10 -164 -10 -102 0 -172 4 -176 10 -4 7 53 10
164 10 102 0 172 -4 176 -10z m2985 0 c-8 -5 -88 -10 -178 -10 -103 0 -171 -4
-185 -11 -22 -12 -22 -12 -3 10 18 20 27 21 200 21 121 0 176 -4 166 -10z
m-270 -167 c-42 -19 -264 -27 -233 -9 10 6 68 14 128 17 61 3 117 6 125 6 8 1
-1 -6 -20 -14z m-2555 -14 c46 -21 155 -94 200 -135 34 -30 31 -29 -20 9 -81
60 -153 102 -195 116 -20 6 -83 15 -140 20 l-105 10 115 -3 c70 -2 127 -8 145
-17z m-1032 -19 c14 -11 30 -20 35 -20 5 0 26 -7 46 -15 l36 -15 -20 -20 c-12
-12 -25 -18 -31 -15 -5 4 -8 2 -7 -3 3 -9 -83 -82 -96 -82 -2 0 -3 11 -1 25 2
19 -1 23 -10 15 -6 -5 -14 -9 -16 -7 -2 1 0 -3 6 -8 27 -27 13 -43 -67 -71
l-41 -14 6 50 c7 56 35 123 48 114 5 -3 9 1 9 10 0 19 48 76 65 76 7 0 24 -9
38 -20z m4456 -15 c43 -49 71 -108 80 -167 l8 -50 -35 6 c-42 6 -102 42 -196
116 l-66 52 72 38 c40 21 80 39 89 39 10 1 31 -15 48 -34z m-4151 -118 c23 -7
39 -16 35 -21 -4 -4 0 -4 9 -1 39 15 34 -9 -13 -68 -28 -34 -54 -69 -57 -77
-10 -26 -32 -42 -48 -36 -8 3 -12 2 -9 -4 3 -6 3 -10 -2 -11 -4 0 -16 -2 -25
-5 -10 -2 -25 -5 -33 -7 -8 -2 -18 -6 -21 -10 -13 -13 -24 -7 -24 11 0 27 10
33 27 16 11 -11 18 -12 29 -3 7 6 17 8 22 5 5 -3 9 1 9 9 0 8 -4 12 -9 9 -15
-9 -21 26 -7 43 8 10 9 14 2 10 -7 -4 -16 0 -22 10 -9 14 -10 12 -5 -12 9 -52
9 -60 -1 -60 -5 0 -9 4 -7 8 1 5 -2 6 -7 3 -42 -26 6 93 64 162 41 48 36 46
93 29z m3838 -12 c38 -29 101 -149 110 -212 l6 -42 -45 14 c-88 26 -122 53
-182 143 -16 24 -39 52 -51 61 l-23 18 52 12 c29 6 59 16 67 21 22 14 30 13
66 -15z m-2836 -30 c13 -14 21 -25 18 -25 -2 0 -15 11 -28 25 -13 14 -21 25
-18 25 2 0 15 -11 28 -25z m1038 -147 c179 -185 254 -266 311 -335 l43 -53
-49 -52 c-205 -223 -450 -467 -469 -468 -6 0 -92 84 -191 188 -213 221 -303
322 -303 338 0 6 13 29 29 51 60 83 448 483 468 483 7 0 79 -69 161 -152z
m1613 20 c29 -44 30 -49 18 -83 -12 -32 -11 -41 4 -68 l17 -32 -20 24 c-11 13
-20 35 -20 50 0 20 -2 23 -10 11 -11 -17 -13 -9 -4 15 6 13 9 14 16 3 7 -10 8
-9 4 5 -3 10 0 17 7 18 9 0 9 2 -1 6 -6 2 -10 9 -6 14 3 5 3 9 -1 9 -3 0 -10
-12 -15 -26 -6 -15 -14 -22 -22 -18 -8 5 -9 2 -5 -10 4 -10 3 -15 -3 -11 -15
9 -12 33 6 43 14 8 14 10 -4 14 -18 5 -19 0 -21 -71 -2 -73 -9 -142 -16 -150
-2 -2 -4 69 -4 158 -1 89 -2 165 -2 169 -6 38 36 3 82 -70z m-2871 -123 c106
-34 182 -72 246 -123 67 -53 140 -128 175 -179 34 -49 99 -181 99 -201 0 -7
-25 4 -61 29 -78 53 -161 91 -379 173 -96 37 -209 87 -251 112 -87 53 -257
202 -237 209 29 10 89 13 203 10 98 -2 136 -8 205 -30z m2608 11 c8 -9 -58
-70 -158 -146 -82 -64 -253 -148 -395 -195 -114 -38 -286 -119 -343 -162 l-33
-25 7 29 c25 97 107 225 207 319 122 117 278 181 467 193 101 6 235 -1 248
-13z m-4 -227 c-45 -150 -161 -287 -304 -359 l-45 -22 37 38 c48 52 91 121
118 194 20 52 31 66 89 109 36 27 77 61 90 75 14 14 26 24 28 23 1 -2 -4 -28
-13 -58z m-2893 -52 c43 -32 60 -52 69 -82 19 -60 44 -106 101 -180 l52 -68
-51 28 c-109 59 -207 173 -268 312 -34 77 -32 92 9 59 17 -15 57 -46 88 -69z
m2519 -171 c-88 -129 -226 -226 -410 -289 -65 -22 -112 -34 -250 -63 -24 -5
-23 -4 10 31 98 102 263 211 419 276 99 42 255 98 259 94 2 -2 -10 -24 -28
-49z m-2186 8 c147 -49 282 -113 396 -190 100 -67 199 -148 190 -157 -3 -3
-37 1 -75 9 -191 40 -383 127 -490 222 -38 35 -141 152 -133 152 2 0 53 -16
112 -36z"/>
<path d="M5485 8152 c-28 -5 -55 -32 -55 -52 0 -43 31 -59 144 -75 61 -8 165
-29 233 -46 101 -25 126 -29 139 -18 30 25 35 47 20 78 -14 26 -26 32 -103 50
-124 29 -354 67 -378 63z"/>
<path d="M4260 7991 c-134 -52 -140 -56 -140 -92 0 -30 31 -68 56 -69 6 0 38
12 70 27 33 14 86 34 119 43 75 21 99 53 75 98 -23 40 -66 38 -180 -7z"/>
<path d="M6017 8012 c-35 -38 -15 -97 35 -107 18 -4 73 -22 122 -41 48 -19 96
-34 107 -34 26 0 53 44 45 75 -7 29 -33 43 -162 90 -111 40 -125 42 -147 17z"/>
<path d="M4989 7586 c-91 -16 -166 -37 -279 -78 -385 -139 -716 -467 -873
-865 -82 -207 -115 -432 -97 -657 17 -205 55 -337 155 -538 122 -246 284 -425
588 -651 43 -32 108 -87 146 -122 77 -73 194 -232 186 -252 -2 -8 -1 -12 4 -9
10 7 56 -115 72 -189 5 -27 13 -152 16 -278 l6 -227 291 2 291 3 6 220 c7 235
16 288 73 417 72 162 171 275 413 470 194 156 307 264 387 371 171 230 274
509 295 802 41 561 -224 1067 -724 1382 -118 75 -316 155 -462 189 -95 21
-394 27 -494 10z m476 -265 c296 -71 580 -268 767 -532 137 -193 202 -406 202
-669 0 -218 -31 -354 -126 -545 -108 -216 -224 -344 -497 -548 -292 -217 -423
-395 -491 -662 -18 -72 -24 -127 -28 -272 l-4 -183 -83 0 -82 0 -6 193 c-5
140 -11 214 -26 272 -25 100 -76 222 -126 300 -21 33 -38 65 -38 72 0 7 -4 10
-8 7 -9 -5 -74 73 -74 90 0 6 -6 11 -13 11 -7 0 -42 24 -77 54 -54 46 -62 57
-52 70 11 14 10 14 -6 2 -15 -12 -20 -11 -37 4 -11 10 -17 22 -14 26 3 5 -3 6
-12 2 -13 -5 -15 -3 -9 7 5 8 4 11 -2 7 -9 -6 -42 13 -74 41 -8 7 -33 26 -57
43 -25 17 -40 34 -36 41 4 7 3 8 -4 4 -16 -10 -163 134 -236 231 -79 105 -135
212 -179 338 -50 145 -62 226 -61 410 1 185 22 285 94 450 56 126 99 196 193
309 196 237 444 384 746 441 110 21 339 14 456 -14z"/>
<path d="M5015 7163 c-404 -86 -732 -391 -835 -778 -79 -297 -29 -589 148
-865 54 -84 253 -276 362 -350 222 -149 364 -291 434 -433 24 -50 50 -113 57
-140 7 -26 18 -46 23 -44 5 2 17 25 26 53 41 119 123 247 230 355 36 36 137
119 225 184 264 195 388 329 480 519 65 134 91 224 106 367 17 179 -12 356
-86 516 -140 304 -465 554 -803 619 -94 18 -277 17 -367 -3z m303 -225 c75
-36 130 -130 131 -223 1 -130 -105 -229 -244 -229 -169 0 -284 179 -214 334
60 132 197 182 327 118z m-338 -520 c39 -37 70 -65 70 -62 0 3 13 -9 30 -26
16 -16 33 -30 38 -30 5 0 15 -7 22 -15 7 -9 15 -14 17 -12 2 3 29 -2 60 -9 45
-10 60 -11 72 -1 12 10 13 9 6 -3 -6 -12 -5 -13 6 -2 7 6 17 12 22 12 4 0 5
-6 1 -12 -5 -7 8 -1 28 14 31 24 38 25 48 13 7 -8 16 -12 22 -9 5 4 5 11 -1
18 -8 9 -7 13 4 13 8 0 15 -4 15 -9 0 -4 7 -8 16 -8 8 0 13 4 10 8 -3 5 1 9 9
9 23 0 7 -16 -43 -41 -186 -92 -425 -56 -556 84 -51 54 -100 145 -89 163 4 7
8 18 8 26 0 7 10 17 23 22 17 7 22 5 22 -9 0 -14 2 -14 9 -3 5 8 7 21 4 30 -3
9 9 -9 26 -39 17 -30 63 -85 101 -122z m-196 117 c3 -8 1 -15 -4 -15 -6 0 -10
7 -10 15 0 8 2 15 4 15 2 0 6 -7 10 -15z m-48 -213 c14 -18 24 -36 21 -38 -3
-3 -14 7 -26 22 -11 15 -21 23 -22 18 0 -5 -2 -19 -5 -32 -2 -13 0 -21 4 -18
5 3 9 -1 9 -9 0 -8 -5 -11 -10 -8 -6 3 -7 1 -3 -6 6 -8 12 -9 20 -2 7 6 17 7
22 3 5 -4 1 2 -9 14 -23 28 -22 41 3 19 11 -10 20 -15 20 -12 0 4 28 -16 63
-43 245 -198 593 -183 813 35 50 49 82 92 108 145 25 49 36 64 31 42 -18 -84
-145 -237 -249 -297 -131 -76 -310 -103 -453 -67 -85 22 -166 58 -219 98 -17
13 -35 24 -41 24 -5 0 -19 9 -32 21 -18 17 -25 18 -36 9 -8 -7 -15 -9 -15 -5
0 4 -7 2 -15 -5 -16 -13 -17 -12 -19 23 -1 12 -7 21 -13 20 -6 -1 -10 8 -8 23
2 23 -9 39 -29 39 -5 0 -11 7 -13 15 -3 9 -1 11 4 5 14 -17 32 -16 42 4 8 14
6 28 -7 55 -10 20 -21 34 -24 30 -4 -3 -4 4 -1 15 4 17 2 20 -13 14 -16 -6
-17 -5 -4 9 14 15 18 9 48 -55 18 -39 44 -86 58 -105z m-73 66 c6 -21 5 -22
-7 -5 -13 16 -14 16 -20 1 -4 -9 -9 -14 -13 -11 -7 7 15 37 27 37 4 0 10 -10
13 -22z m873 -50 c4 -7 4 -10 -1 -6 -4 4 -14 0 -22 -10 -13 -15 -13 -15 -3 6
12 25 16 27 26 10z m-746 -122 c0 -2 -7 -7 -16 -10 -8 -3 -12 -2 -9 4 6 10 25
14 25 6z m-5 -241 c33 -22 98 -54 145 -71 292 -110 597 -46 835 175 49 46 53
49 26 16 -88 -106 -236 -197 -385 -235 -57 -14 -112 -20 -193 -20 -133 0 -227
19 -328 65 -65 30 -206 126 -213 147 -2 5 -11 3 -20 -4 -14 -10 -15 -10 -5 1
9 11 4 23 -25 60 -27 33 -18 27 33 -24 39 -39 97 -88 130 -110z m26 148 c13
-16 12 -17 -3 -4 -10 7 -18 15 -18 17 0 8 8 3 21 -13z m-202 -87 c-3 -3 -11 5
-18 17 -13 21 -12 21 5 5 10 -10 16 -20 13 -22z m110 -280 c95 -63 207 -109
319 -133 94 -19 296 -13 387 12 118 32 291 124 375 199 34 30 34 30 10 2 -86
-99 -314 -211 -482 -237 -228 -36 -556 60 -709 207 -19 19 -39 31 -44 27 -4
-5 -5 -2 -1 5 4 7 -2 24 -13 38 -12 15 -21 23 -21 18 0 -12 -20 18 -20 31 0 5
26 -18 58 -52 31 -35 95 -87 141 -117z m1076 -216 c-26 -27 -52 -47 -57 -44
-4 3 -8 1 -8 -4 0 -16 -179 -98 -270 -123 -73 -20 -108 -23 -250 -24 -141 0
-177 3 -248 23 -148 40 -307 127 -348 190 -12 18 0 12 37 -21 68 -59 209 -130
314 -157 165 -43 359 -37 530 17 103 32 238 102 295 152 62 55 64 51 5 -9z
m-395 -432 c0 -20 -351 -21 -372 0 -4 4 78 7 182 7 105 0 190 -3 190 -7z"/>
<path d="M4806 6478 c3 -5 10 -6 15 -3 13 9 11 12 -6 12 -8 0 -12 -4 -9 -9z"/>
<path d="M5364 6268 c-10 -13 -12 -17 -4 -11 8 6 18 12 23 12 8 1 11 11 4 17
-2 2 -12 -6 -23 -18z"/>
<path d="M4681 6346 c-8 -9 -8 -16 -2 -20 6 -4 8 -13 4 -21 -3 -8 -1 -15 4
-15 5 0 8 16 8 35 0 40 1 39 -14 21z"/>
<path d="M4687 5127 c-3 -8 1 -14 8 -14 7 0 11 6 8 14 -3 7 -6 13 -8 13 -2 0
-5 -6 -8 -13z"/>
<path d="M3900 7370 c0 -5 5 -10 11 -10 5 0 7 5 4 10 -3 6 -8 10 -11 10 -2 0
-4 -4 -4 -10z"/>
<path d="M4602 4276 c-9 -15 -12 -39 -4 -31 4 4 7 12 7 18 0 7 5 12 12 12 6 0
14 3 17 6 3 3 -1 6 -9 6 -9 0 -19 -5 -23 -11z"/>
<path d="M5823 4075 c0 -8 4 -12 9 -9 5 3 6 10 3 15 -9 13 -12 11 -12 -6z"/>
<path d="M3707 6964 c-3 -3 -3 -13 0 -22 4 -9 2 -13 -4 -9 -6 4 -20 -4 -31
-18 -11 -13 -23 -21 -27 -17 -5 4 -5 1 0 -7 7 -12 10 -12 19 0 17 22 40 23 32
2 -4 -12 1 -9 13 7 13 17 17 29 11 41 -5 9 -6 19 -3 23 3 3 4 6 1 6 -2 0 -7
-3 -11 -6z m8 -43 c-9 -8 -36 -10 -30 -2 2 4 11 8 20 8 8 0 13 -3 10 -6z"/>
<path d="M3570 6871 c0 -5 7 -12 16 -15 14 -5 15 -4 4 9 -14 17 -20 19 -20 6z"/>
<path d="M3539 6813 c0 -5 -2 -16 -4 -26 -3 -14 -1 -16 10 -7 8 6 11 18 8 26
-6 15 -13 19 -14 7z"/>
<path d="M3506 6733 c-6 -14 -5 -15 5 -6 7 7 10 15 7 18 -3 3 -9 -2 -12 -12z"/>
<path d="M2636 6645 c-3 -8 -1 -15 3 -15 5 0 11 7 15 15 3 8 1 15 -3 15 -5 0
-11 -7 -15 -15z"/>
<path d="M2665 6630 c3 -5 8 -10 11 -10 2 0 4 5 4 10 0 6 -5 10 -11 10 -5 0
-7 -4 -4 -10z"/>
<path d="M8075 6380 c-21 -22 -35 -40 -30 -40 17 1 45 27 37 34 -4 4 5 5 21 1
27 -7 38 7 17 20 -6 4 -8 11 -5 16 12 19 -2 8 -40 -31z m40 10 c3 -5 1 -10 -4
-10 -6 0 -11 5 -11 10 0 6 2 10 4 10 3 0 8 -4 11 -10z"/>
<path d="M2200 6080 c0 -5 5 -10 11 -10 5 0 7 5 4 10 -3 6 -8 10 -11 10 -2 0
-4 -4 -4 -10z"/>
<path d="M2300 6000 c0 -5 5 -10 11 -10 5 0 7 5 4 10 -3 6 -8 10 -11 10 -2 0
-4 -4 -4 -10z"/>
<path d="M2360 5945 c0 -2 6 -8 13 -14 10 -8 14 -7 14 2 0 8 -6 14 -14 14 -7
0 -13 -1 -13 -2z"/>
<path d="M8246 6141 c-4 -5 -2 -12 3 -15 5 -4 12 -2 15 3 4 5 2 12 -3 15 -5 4
-12 2 -15 -3z"/>
<path d="M8144 6108 c-15 -24 -12 -54 6 -66 12 -7 21 -8 25 -2 3 6 0 10 -7 11
-7 0 1 7 17 15 25 13 26 14 6 10 -32 -7 -56 11 -40 30 6 8 9 14 6 14 -3 0 -9
-5 -13 -12z"/>
<path d="M3186 5688 c3 -5 10 -6 15 -3 13 9 11 12 -6 12 -8 0 -12 -4 -9 -9z"/>
<path d="M3215 5506 c-13 -19 -14 -29 -5 -45 6 -12 15 -21 21 -21 6 0 8 -4 5
-9 -13 -20 47 4 61 25 14 22 14 26 -1 49 -22 33 -60 33 -81 1z"/>
<path d="M3284 5343 c2 -10 6 -17 10 -16 15 3 16 11 2 22 -12 10 -14 9 -12 -6z"/>
<path d="M3290 5255 c0 -2 6 -8 13 -14 10 -8 14 -7 14 2 0 8 -6 14 -14 14 -7
0 -13 -1 -13 -2z"/>
<path d="M7228 5813 c6 -2 9 -10 6 -15 -4 -7 -2 -8 5 -4 13 9 5 26 -12 25 -9
0 -8 -2 1 -6z"/>
<path d="M7200 5736 c0 -2 7 -7 16 -10 8 -3 12 -2 9 4 -6 10 -25 14 -25 6z"/>
<path d="M7189 5643 c-13 -16 -12 -17 4 -4 9 7 17 15 17 17 0 8 -8 3 -21 -13z"/>
<path d="M7239 5638 c-6 -20 -6 -39 0 -42 4 -3 7 6 7 20 0 20 -4 32 -7 22z"/>
<path d="M7176 5568 c3 -5 10 -6 15 -3 13 9 11 12 -6 12 -8 0 -12 -4 -9 -9z"/>
<path d="M7122 5518 c-7 -7 -12 -21 -12 -33 0 -28 19 -45 50 -45 30 0 50 16
50 41 0 40 -60 65 -88 37z"/>
<path d="M7803 5347 c0 -8 6 -14 14 -14 9 0 10 4 2 14 -6 7 -12 13 -14 13 -1
0 -2 -6 -2 -13z"/>
<path d="M2873 5234 c9 -17 13 -35 9 -38 -3 -4 1 -4 11 0 11 4 19 0 23 -10 3
-9 13 -16 21 -16 8 0 12 -4 9 -9 -3 -4 6 -13 20 -20 14 -6 22 -16 18 -22 -4
-8 0 -8 15 0 30 17 26 26 -24 56 -25 14 -62 41 -82 58 l-36 32 16 -31z"/>
<path d="M3017 5122 c-16 -18 -16 -19 5 -16 13 1 25 3 28 4 3 1 9 2 13 1 5 -1
6 3 2 9 -5 8 -12 7 -23 -2 -13 -11 -15 -10 -9 5 8 22 4 22 -16 -1z"/>
<path d="M3386 5037 c3 -10 9 -15 12 -12 3 3 0 11 -7 18 -10 9 -11 8 -5 -6z"/>
<path d="M3532 5027 c10 -8 16 -17 13 -20 -3 -4 -2 -5 2 -2 3 3 13 -1 22 -8
14 -11 14 -10 2 6 -8 10 -24 23 -35 28 -19 9 -19 9 -4 -4z"/>
<path d="M3584 5023 c2 -9 11 -17 20 -19 17 -2 17 -2 0 17 -21 23 -23 23 -20
2z"/>
<path d="M3320 5006 c0 -2 8 -10 18 -17 15 -13 16 -12 3 4 -13 16 -21 21 -21
13z"/>
<path d="M3653 4975 c0 -8 4 -12 9 -9 5 3 6 10 3 15 -9 13 -12 11 -12 -6z"/>
<path d="M3586 4962 c-3 -5 1 -15 8 -21 11 -10 14 -9 12 3 -3 21 -13 29 -20
18z"/>
<path d="M3636 4942 c-3 -5 1 -15 8 -21 11 -10 14 -9 12 3 -3 21 -13 29 -20
18z"/>
<path d="M3676 4922 c-3 -5 1 -9 9 -9 8 0 12 4 9 9 -3 4 -7 8 -9 8 -2 0 -6 -4
-9 -8z"/>
<path d="M3716 4922 c-3 -5 3 -17 14 -27 11 -10 17 -22 13 -28 -3 -6 -1 -7 6
-3 8 6 9 12 2 20 -6 7 -9 15 -6 18 3 3 -1 11 -9 17 -8 7 -17 8 -20 3z"/>
<path d="M3675 4870 c-3 -5 -1 -11 4 -14 5 -4 12 -2 16 4 4 6 12 7 18 4 7 -4
8 -3 4 1 -11 12 -36 15 -42 5z"/>
<path d="M3774 4854 c1 -8 4 -15 7 -16 2 -2 3 -1 2 1 -2 2 2 9 7 16 7 8 5 12
-4 12 -8 0 -13 -6 -12 -13z"/>
<path d="M3696 4833 c-6 -14 -5 -15 5 -6 7 7 10 15 7 18 -3 3 -9 -2 -12 -12z"/>
<path d="M3796 4803 c10 -7 22 -13 26 -13 5 0 3 6 -4 13 -7 8 -19 14 -26 14
-11 0 -10 -4 4 -14z"/>
<path d="M3706 4798 c3 -5 10 -6 15 -3 13 9 11 12 -6 12 -8 0 -12 -4 -9 -9z"/>
<path d="M3740 4806 c0 -2 9 -6 20 -9 11 -3 18 -1 14 4 -5 9 -34 13 -34 5z"/>
<path d="M3774 4768 c2 -12 12 -14 49 -9 7 1 4 6 -7 12 -14 9 -20 8 -26 -1 -6
-9 -9 -9 -13 -1 -3 7 -5 7 -3 -1z"/>
<path d="M6883 4718 c-23 -30 -23 -49 2 -74 13 -13 28 -24 33 -24 18 0 52 42
52 65 0 38 -64 62 -87 33z"/>
<path d="M2200 4630 c0 -5 5 -10 11 -10 5 0 7 5 4 10 -3 6 -8 10 -11 10 -2 0
-4 -4 -4 -10z"/>
<path d="M2358 4593 c7 -3 16 -2 19 1 4 3 -2 6 -13 5 -11 0 -14 -3 -6 -6z"/>
<path d="M2391 4583 c5 -29 -2 -36 -17 -17 -8 10 -13 13 -9 7 14 -28 13 -54
-1 -60 -12 -4 -12 -7 3 -18 14 -10 21 -11 32 -2 12 10 13 9 7 -8 -4 -11 -4
-16 0 -12 4 4 26 -8 48 -26 57 -46 62 -49 75 -33 10 12 9 14 -6 11 -10 -1 -26
2 -36 7 -15 7 -16 12 -6 24 17 20 34 17 18 -3 -13 -17 -12 -17 5 -3 17 14 17
15 -10 37 -20 15 -32 19 -40 12 -9 -7 -16 -5 -23 10 -7 13 -8 22 -1 26 9 6 14
-1 11 -17 0 -4 6 -5 15 -1 14 5 14 7 -2 17 -23 13 -44 16 -43 8 3 -19 -2 -33
-10 -28 -5 4 -8 14 -6 24 2 9 4 21 4 25 1 5 7 5 14 1 8 -5 8 -2 -2 9 -14 18
-22 22 -20 10z m3 -84 c-3 -5 -10 -7 -15 -3 -5 3 -7 10 -3 15 3 5 10 7 15 3 5
-3 7 -10 3 -15z m36 -4 c7 -9 8 -15 2 -15 -5 0 -12 7 -16 15 -3 8 -4 15 -2 15
2 0 9 -7 16 -15z m49 -31 c-17 -21 -41 -6 -28 18 8 15 13 17 25 7 10 -8 11
-15 3 -25z"/>
<path d="M2555 4380 c10 -11 23 -20 28 -20 6 0 1 9 -11 20 -12 11 -24 20 -28
20 -4 0 1 -9 11 -20z"/>
<path d="M8317 4783 c-4 -3 -7 -11 -7 -17 0 -6 5 -5 12 2 6 6 9 14 7 17 -3 3
-9 2 -12 -2z"/>
<path d="M8223 4728 c-4 -7 -8 -17 -8 -23 -1 -5 -6 -9 -11 -8 -6 1 -11 -4 -11
-11 0 -7 6 -13 13 -13 7 0 13 3 12 6 -2 20 4 22 21 7 15 -14 21 -15 27 -4 4 7
3 10 -1 5 -5 -4 -17 0 -27 9 -14 13 -15 20 -7 31 6 7 9 13 6 13 -3 0 -9 -6
-14 -12z"/>
<path d="M8160 4690 c-9 -6 -10 -10 -3 -10 6 0 15 5 18 10 8 12 4 12 -15 0z"/>
<path d="M8109 4658 c-7 -23 -4 -35 7 -35 9 0 11 4 4 12 -5 7 -7 15 -3 18 3 4
3 7 0 7 -4 0 -7 -1 -8 -2z"/>
<path d="M8192 4650 c2 -8 -3 -14 -9 -15 -14 0 -18 -20 -5 -20 4 0 14 -4 22
-9 8 -5 12 -5 7 -1 -4 5 3 20 15 34 13 14 16 20 7 13 -12 -9 -18 -9 -28 1 -10
9 -12 9 -9 -3z"/>
<path d="M7974 4538 l-29 -33 33 29 c17 17 32 31 32 33 0 8 -8 1 -36 -29z"/>
<path d="M8010 4510 c-9 -6 -10 -10 -3 -10 6 0 15 5 18 10 8 12 4 12 -15 0z"/>
<path d="M7945 4470 c-3 -5 1 -10 9 -10 9 0 16 5 16 10 0 6 -4 10 -9 10 -6 0
-13 -4 -16 -10z"/>
<path d="M3434 4832 c4 -3 14 -7 22 -8 9 -1 13 0 10 4 -4 3 -14 7 -22 8 -9 1
-13 0 -10 -4z"/>
<path d="M3530 4815 c5 -7 6 -16 2 -21 -4 -5 -3 -5 2 -1 15 12 15 34 0 34 -9
0 -11 -4 -4 -12z"/>
<path d="M3463 4795 c0 -8 4 -12 9 -9 5 3 6 10 3 15 -9 13 -12 11 -12 -6z"/>
<path d="M3410 4797 c0 -2 6 -10 14 -16 11 -9 16 -9 22 1 4 7 4 10 -1 6 -4 -4
-14 -3 -22 3 -7 6 -13 9 -13 6z"/>
<path d="M3472 4724 c-25 -17 -29 -56 -7 -74 8 -7 13 -16 10 -20 -2 -3 10 -6
27 -5 54 3 76 57 38 95 -24 24 -38 25 -68 4z"/>
<path d="M3389 4707 c6 -8 7 -18 3 -22 -4 -5 -1 -5 6 -1 10 6 10 11 1 22 -6 8
-14 14 -16 14 -3 0 0 -6 6 -13z"/>
<path d="M3576 4653 c-6 -14 -5 -15 5 -6 7 7 10 15 7 18 -3 3 -9 -2 -12 -12z"/>
<path d="M3590 4630 c-9 -6 -10 -10 -3 -10 6 0 15 5 18 10 8 12 4 12 -15 0z"/>
<path d="M3635 4620 c3 -5 8 -10 11 -10 2 0 4 5 4 10 0 6 -5 10 -11 10 -5 0
-7 -4 -4 -10z"/>
<path d="M3496 4607 c3 -10 9 -15 12 -12 3 3 0 11 -7 18 -10 9 -11 8 -5 -6z"/>
<path d="M3524 4590 c0 -16 3 -27 8 -24 5 3 5 10 2 16 -4 6 -1 14 6 18 9 5 8
9 -2 13 -10 3 -14 -3 -14 -23z"/>
<path d="M3568 4603 c6 -3 10 -9 6 -14 -8 -14 2 -11 14 4 8 10 6 13 -11 14
-12 0 -16 -1 -9 -4z"/>
<path d="M3775 4592 c-12 -9 -17 -75 -5 -67 4 3 11 -1 14 -7 3 -7 4 -4 3 7 -1
11 -6 23 -11 26 -4 4 -3 16 3 28 13 23 12 25 -4 13z"/>
<path d="M3806 4591 c-3 -4 4 -17 17 -27 22 -19 22 -19 4 2 -9 11 -14 24 -10
27 3 4 4 7 0 7 -3 0 -8 -4 -11 -9z"/>
<path d="M3473 4583 c4 -6 1 -14 -5 -17 -9 -3 -7 -9 7 -21 11 -9 19 -19 17
-22 -1 -4 4 -8 13 -9 8 -1 13 1 10 6 -3 5 7 13 22 19 21 8 22 10 5 7 -12 -2
-25 1 -30 7 -10 16 -48 45 -39 30z m27 -33 c0 -5 -7 -7 -15 -4 -8 4 -12 10 -9
15 6 11 24 2 24 -11z"/>
<path d="M3605 4580 c-3 -6 1 -13 9 -16 9 -3 14 -9 11 -13 -5 -10 71 -8 80 1
4 4 -1 5 -12 4 -10 -2 -23 1 -29 6 -7 5 -16 8 -20 7 -21 -3 -35 2 -29 11 3 6
4 10 1 10 -3 0 -8 -5 -11 -10z"/>
<path d="M3727 4569 c7 -7 15 -10 18 -7 3 3 -2 9 -12 12 -14 6 -15 5 -6 -5z"/>
<path d="M3690 4526 c0 -2 9 -6 20 -9 11 -3 20 -1 20 4 0 5 -9 9 -20 9 -11 0
-20 -2 -20 -4z"/>
<path d="M3812 4511 c-11 -7 -10 -9 3 -14 9 -4 14 -3 10 2 -3 5 1 12 7 14 7 3
9 6 3 6 -5 0 -16 -3 -23 -8z"/>
<path d="M6181 4024 c-25 -32 -26 -43 -5 -72 30 -44 104 -16 104 40 0 22 -38
58 -61 58 -10 0 -27 -12 -38 -26z"/>
<path d="M3101 4264 c-12 -15 -21 -37 -21 -50 0 -29 33 -64 60 -64 27 0 70 43
70 70 0 26 -43 70 -69 70 -11 0 -29 -12 -40 -26z"/>
<path d="M3352 4111 c-11 -6 -9 -9 6 -13 15 -4 19 -2 15 8 -6 16 -4 16 -21 5z"/>
<path d="M3456 4040 c5 -5 9 -6 35 -9 5 0 8 -5 4 -10 -3 -5 -2 -12 3 -15 4 -2
8 5 8 17 0 17 -6 22 -28 22 -15 1 -25 -2 -22 -5z"/>
<path d="M3527 4027 c-3 -8 1 -14 8 -14 7 0 11 6 8 14 -3 7 -6 13 -8 13 -2 0
-5 -6 -8 -13z"/>
<path d="M3185 4000 c3 -5 1 -10 -6 -10 -8 0 -9 -3 0 -13 12 -15 69 -16 61 -1
-3 5 -13 8 -22 8 -10 -1 -18 5 -18 12 0 8 -5 14 -11 14 -5 0 -7 -4 -4 -10z"/>
<path d="M3424 3998 c-4 -7 -4 -10 1 -6 4 4 14 3 22 -4 11 -8 12 -7 7 6 -7 19
-20 21 -30 4z"/>
<path d="M3464 4001 c13 -21 44 -32 52 -19 4 7 3 10 -1 5 -5 -4 -19 0 -33 9
-13 9 -21 11 -18 5z"/>
<path d="M3534 3982 c0 -10 6 -19 13 -19 8 0 9 6 2 19 -5 10 -11 18 -12 18 -2
0 -3 -8 -3 -18z"/>
<path d="M4166 4029 c-43 -34 -29 -91 25 -104 21 -5 31 -1 48 21 11 15 21 35
21 45 0 16 -43 59 -60 59 -4 0 -19 -9 -34 -21z"/>
<path d="M7226 4258 c-9 -12 -16 -31 -16 -41 0 -24 44 -67 70 -67 50 0 80 79
42 113 -27 25 -78 22 -96 -5z"/>
<path d="M7173 4125 c-21 -9 -35 -23 -39 -41 -8 -32 3 -53 39 -74 24 -13 28
-13 54 6 66 49 20 140 -54 109z"/>
<path d="M7180 3973 c0 -6 5 -15 10 -18 6 -4 7 -12 3 -18 -4 -8 -1 -7 9 1 10
8 19 9 22 3 3 -5 0 -12 -6 -14 -7 -3 -4 -6 8 -6 12 -1 21 5 21 14 0 8 -4 12
-8 9 -4 -2 -10 0 -14 6 -4 6 -10 8 -15 5 -5 -3 -13 3 -19 12 -6 10 -11 13 -11
6z"/>
<path d="M7217 3896 c-3 -8 -2 -18 3 -21 13 -8 20 9 11 24 -6 10 -10 9 -14 -3z"/>
<path d="M6659 3983 c-13 -16 -12 -17 4 -4 16 13 21 21 13 21 -2 0 -10 -8 -17
-17z"/>
<path d="M6594 3935 c-12 -8 -25 -11 -29 -7 -5 4 -4 1 0 -7 6 -11 4 -13 -11
-7 -15 6 -17 5 -6 -5 9 -10 15 -10 24 -1 16 16 29 15 22 -2 -3 -8 -13 -17 -22
-19 -15 -4 -15 -5 -1 -6 20 -1 38 19 44 48 5 25 5 25 -21 6z"/>
<path d="M6509 3898 c-6 -21 -5 -38 2 -38 5 0 9 2 9 4 0 2 3 11 6 20 3 9 1 16
-5 16 -6 0 -11 -1 -12 -2z"/>
<path d="M2680 3470 c0 -5 5 -10 11 -10 5 0 7 5 4 10 -3 6 -8 10 -11 10 -2 0
-4 -4 -4 -10z"/>
<path d="M2590 3415 c6 -8 18 -11 26 -8 18 7 13 12 -16 18 -18 3 -20 2 -10
-10z"/>
<path d="M2573 3395 c0 -8 4 -12 9 -9 5 3 6 10 3 15 -9 13 -12 11 -12 -6z"/>
<path d="M2624 3396 c-10 -8 -17 -16 -14 -19 3 -2 14 4 24 14 23 22 18 25 -10
5z"/>
<path d="M3006 3318 c3 -5 10 -6 15 -3 13 9 11 12 -6 12 -8 0 -12 -4 -9 -9z"/>
<path d="M2952 3278 c-17 -17 -15 -28 6 -27 11 0 12 2 4 6 -10 4 -10 8 -1 19
14 17 8 19 -9 2z"/>
<path d="M2915 3261 c-3 -5 -2 -12 3 -15 5 -3 9 1 9 9 0 17 -3 19 -12 6z"/>
<path d="M2896 3227 c3 -10 9 -15 12 -12 3 3 0 11 -7 18 -10 9 -11 8 -5 -6z"/>
<path d="M2875 3209 c-7 -10 21 -38 40 -39 5 0 -1 7 -13 16 -12 8 -20 20 -17
25 4 5 4 9 1 9 -3 0 -8 -5 -11 -11z"/>
<path d="M3245 3180 c-4 -6 -10 -8 -14 -6 -4 3 -14 -6 -21 -20 -11 -19 -11
-27 -1 -37 10 -9 11 -8 6 5 -10 25 3 40 23 29 14 -7 17 -4 17 15 0 27 -1 28
-10 14z"/>
<path d="M3282 3175 c-11 -13 -10 -15 7 -15 14 0 19 5 15 15 -7 18 -6 18 -22
0z"/>
<path d="M3325 3149 c-11 -16 -1 -19 13 -3 7 8 8 14 3 14 -5 0 -13 -5 -16 -11z"/>
<path d="M3280 3131 c1 -16 29 -41 35 -32 3 6 1 11 -5 11 -7 0 -10 6 -7 13 3
8 -1 14 -9 14 -8 0 -14 -3 -14 -6z"/>
<path d="M3258 3113 c6 -2 12 -9 12 -14 0 -4 -6 -6 -14 -3 -8 3 -17 1 -21 -5
-4 -7 0 -8 11 -4 13 5 16 3 11 -10 -3 -9 -1 -19 5 -23 7 -4 8 -3 4 5 -4 6 0
14 8 17 12 5 13 10 5 25 -5 10 -15 19 -22 18 -9 0 -9 -2 1 -6z"/>
<path d="M5056 2829 c-80 -83 -146 -156 -146 -161 0 -10 278 -298 295 -306 4
-2 74 67 156 153 l149 157 -147 152 c-80 83 -149 152 -153 154 -4 1 -73 -65
-154 -149z m209 -104 c34 -33 33 -78 -1 -110 -33 -30 -73 -32 -108 -4 -55 43
-18 139 54 139 19 0 40 -9 55 -25z"/>
<path d="M6912 3112 c1 -26 3 -30 10 -18 5 10 5 23 -1 34 -8 14 -10 10 -9 -16z"/>
<path d="M3636 8348 c3 -5 10 -6 15 -3 13 9 11 12 -6 12 -8 0 -12 -4 -9 -9z"/>
<path d="M3563 8335 c0 -8 4 -12 9 -9 5 3 6 10 3 15 -9 13 -12 11 -12 -6z"/>
<path d="M3600 8346 c0 -2 7 -7 16 -10 8 -3 12 -2 9 4 -6 10 -25 14 -25 6z"/>
<path d="M3246 8208 c3 -5 10 -6 15 -3 13 9 11 12 -6 12 -8 0 -12 -4 -9 -9z"/>
<path d="M3095 8179 c-4 -6 -4 -13 -1 -16 3 -4 6 -1 6 6 0 7 5 9 12 5 7 -4 8
-3 4 4 -9 15 -13 15 -21 1z"/>
<path d="M3060 8150 c-9 -6 -10 -10 -3 -10 6 0 15 5 18 10 8 12 4 12 -15 0z"/>
<path d="M3257 8135 c-4 -8 -3 -16 1 -19 4 -3 9 4 9 15 2 23 -3 25 -10 4z"/>
<path d="M2970 8125 c-8 -9 -8 -15 -2 -15 12 0 26 19 19 26 -2 2 -10 -2 -17
-11z"/>
<path d="M3100 8136 c0 -2 7 -7 16 -10 8 -3 12 -2 9 4 -6 10 -25 14 -25 6z"/>
<path d="M1969 4117 c7 -7 7 -16 -1 -26 -10 -13 -10 -14 2 -4 19 17 21 40 4
40 -10 0 -11 -4 -5 -10z"/>
<path d="M1895 4081 c-3 -5 -2 -12 3 -15 5 -3 9 1 9 9 0 17 -3 19 -12 6z"/>
<path d="M1935 3970 c-4 -6 -1 -9 7 -8 7 2 12 -3 10 -10 -1 -8 2 -11 8 -7 8 5
7 11 -1 21 -14 17 -16 17 -24 4z"/>
<path d="M2015 3950 c-4 -6 -12 -7 -18 -3 -7 4 -6 -1 2 -10 10 -13 17 -15 27
-6 8 6 11 15 8 20 -7 12 -11 11 -19 -1z"/>
<path d="M1969 3928 c0 -2 -2 -11 -4 -21 -3 -15 -1 -16 11 -6 7 6 11 15 8 20
-5 9 -13 12 -15 7z"/>
<path d="M2045 3911 c-3 -5 -2 -12 3 -15 5 -3 9 1 9 9 0 17 -3 19 -12 6z"/>
<path d="M2029 3868 c-6 -17 -4 -60 2 -64 5 -2 6 -12 3 -22 -5 -14 -4 -14 4
-2 8 10 7 19 -1 29 -10 12 -9 14 5 8 10 -3 20 -2 23 4 4 5 3 9 -2 8 -26 -4
-35 1 -24 15 8 10 9 16 1 21 -5 3 -10 5 -11 3z"/>
<path d="M1969 3838 c-7 -23 -4 -35 7 -35 9 0 11 4 4 12 -5 7 -7 15 -3 18 3 4
3 7 0 7 -4 0 -7 -1 -8 -2z"/>
<path d="M2003 3728 c0 -13 1 -17 4 -10 3 6 10 9 16 5 7 -4 6 1 -2 10 -17 21
-17 21 -18 -5z"/>
<path d="M2069 3613 c-13 -16 -12 -17 4 -4 9 7 17 15 17 17 0 8 -8 3 -21 -13z"/>
<path d="M2185 3529 c-3 -4 2 -6 10 -5 21 3 28 13 10 13 -9 0 -18 -4 -20 -8z"/>
<path d="M2145 3520 c6 -9 -8 -14 -28 -11 -5 1 -6 -3 -2 -9 4 -7 12 -7 26 0
17 9 19 30 3 30 -3 0 -2 -4 1 -10z"/>
<path d="M2169 3443 c-13 -16 -12 -17 4 -4 9 7 17 15 17 17 0 8 -8 3 -21 -13z"/>
<path d="M2216 3452 c-3 -5 1 -9 9 -9 8 0 12 4 9 9 -3 4 -7 8 -9 8 -2 0 -6 -4
-9 -8z"/>
<path d="M2366 3318 c3 -5 10 -6 15 -3 13 9 11 12 -6 12 -8 0 -12 -4 -9 -9z"/>
<path d="M2283 3305 c0 -8 4 -12 9 -9 5 3 6 10 3 15 -9 13 -12 11 -12 -6z"/>
<path d="M2420 3258 c0 -4 5 -8 11 -8 5 0 7 -6 3 -12 -4 -7 -3 -9 1 -5 15 13
14 34 -1 34 -8 0 -14 -4 -14 -9z"/>
<path d="M2476 3199 c6 -8 10 -22 9 -32 -2 -9 1 -15 6 -11 5 3 7 9 4 14 -3 4
-1 10 5 12 6 2 0 9 -12 17 -20 12 -21 12 -12 0z"/>
<path d="M2387 3147 c4 -7 8 -15 8 -19 0 -5 5 -8 10 -8 18 0 11 33 -8 36 -11
1 -14 -2 -10 -9z"/>
<path d="M2507 3145 c-4 -9 -11 -14 -16 -10 -5 3 -12 1 -15 -4 -7 -11 13 -9
32 2 7 5 12 3 12 -4 0 -7 3 -10 6 -6 3 3 2 13 -4 22 -8 16 -9 16 -15 0z"/>
<path d="M2559 3108 c-5 -18 -6 -38 -1 -34 7 8 12 36 6 36 -2 0 -4 -1 -5 -2z"/>
<path d="M2625 3040 c10 -11 20 -20 23 -20 3 0 -3 9 -13 20 -10 11 -20 20 -23
20 -3 0 3 -9 13 -20z"/>
<path d="M2505 3030 c-4 -6 -1 -9 7 -8 7 2 12 -3 11 -9 -2 -7 0 -12 5 -12 19
3 33 -2 27 -11 -4 -6 1 -7 11 -3 10 4 15 2 11 -3 -3 -6 5 -10 18 -10 14 0 22
2 19 6 -3 3 -11 5 -17 5 -7 0 -12 9 -11 21 1 11 -5 21 -11 21 -7 0 -11 -7 -8
-15 5 -12 2 -12 -15 -3 -12 7 -22 16 -22 21 0 13 -17 13 -25 0z"/>
<path d="M2605 3021 c-6 -11 13 -26 22 -17 4 3 1 6 -6 6 -7 0 -9 5 -6 10 3 6
4 10 1 10 -3 0 -7 -4 -11 -9z"/>
<path d="M2496 2978 c3 -5 9 -6 14 -3 4 3 10 0 12 -7 3 -8 6 -7 10 3 4 11 -1
15 -17 15 -13 0 -21 -4 -19 -8z"/>
<path d="M2668 2968 c3 -13 7 -17 9 -11 3 7 12 9 21 6 22 -8 13 1 -15 15 -19
11 -20 9 -15 -10z"/>
<path d="M2576 2951 c-3 -5 2 -8 12 -7 9 0 16 -4 15 -11 -2 -7 4 -10 13 -6 8
3 13 10 11 16 -4 13 -44 19 -51 8z"/>
<path d="M2648 2943 c6 -2 9 -10 6 -15 -4 -7 -2 -8 5 -4 13 9 5 26 -12 25 -9
0 -8 -2 1 -6z"/>
<path d="M2679 2924 c-7 -8 -6 -14 1 -19 6 -4 9 -1 8 5 -2 7 5 14 15 15 27 5
33 14 8 12 -12 -1 -27 -7 -32 -13z"/>
<path d="M2739 2928 c-5 -18 -6 -38 -2 -34 4 3 16 -2 27 -11 15 -14 18 -14 8
-2 -6 9 -8 19 -4 23 4 4 0 6 -8 4 -8 -1 -14 3 -12 10 2 10 -6 19 -9 10z"/>
<path d="M2620 2915 c0 -12 30 -36 38 -31 4 2 9 -4 9 -15 2 -17 -1 -18 -13 -8
-12 10 -13 9 -8 -4 3 -8 13 -18 22 -22 9 -3 13 -3 10 0 -4 4 -3 17 2 30 8 22
-1 33 -30 39 -3 1 -11 5 -17 9 -7 5 -13 5 -13 2z"/>
<path d="M2699 2877 c0 -1 -2 -10 -4 -21 -3 -14 -1 -16 8 -7 13 13 31 15 23 2
-3 -5 1 -14 8 -20 10 -9 16 -9 21 -1 4 6 1 9 -7 8 -8 -2 -13 5 -12 17 1 14 -6
21 -17 22 -11 1 -19 1 -20 0z"/>
<path d="M2794 2845 c3 -9 0 -15 -9 -15 -8 0 -15 -5 -15 -10 0 -7 7 -7 20 0
11 6 18 15 15 21 -4 5 -2 9 2 9 5 0 14 -9 21 -21 7 -12 16 -19 18 -16 3 3 -3
15 -13 26 -20 24 -48 28 -39 6z"/>
<path d="M2693 2805 c2 -23 7 -30 25 -31 23 -1 29 10 12 21 -5 3 -10 1 -10 -4
0 -6 -5 -11 -11 -11 -5 0 -7 4 -4 10 3 5 2 18 -4 27 -8 15 -10 13 -8 -12z"/>
<path d="M2805 2811 c-3 -5 -2 -12 3 -15 5 -3 9 1 9 9 0 17 -3 19 -12 6z"/>
<path d="M2847 2790 c-9 -11 -12 -20 -6 -20 5 0 7 -6 3 -12 -4 -8 -3 -10 2 -5
5 5 9 14 9 20 1 7 6 11 13 10 6 -2 9 4 6 12 -8 19 -6 19 -27 -5z"/>
<path d="M2870 2762 c0 -16 32 -24 44 -11 8 9 8 10 -2 5 -7 -4 -19 -2 -27 4
-9 7 -15 8 -15 2z"/>
<path d="M2750 2740 c-9 -6 -10 -10 -3 -10 6 0 15 5 18 10 8 12 4 12 -15 0z"/>
<path d="M2886 2718 c3 -4 9 -8 15 -8 5 0 9 4 9 8 0 5 -7 9 -15 9 -8 0 -12 -4
-9 -9z"/>
<path d="M2770 2716 c0 -2 8 -10 18 -17 15 -13 16 -12 3 4 -13 16 -21 21 -21
13z"/>
<path d="M2813 2702 c2 -12 6 -24 10 -28 3 -4 4 4 2 16 -2 12 -7 25 -10 28 -3
3 -4 -4 -2 -16z"/>
<path d="M2935 2701 c-3 -6 -3 -11 2 -10 18 3 27 -2 16 -9 -9 -5 -6 -12 10
-21 20 -13 21 -13 9 2 -11 13 -10 17 5 27 14 9 14 10 2 7 -9 -3 -21 -1 -27 5
-6 6 -12 6 -17 -1z"/>
<path d="M2895 2649 c-4 -6 -5 -12 -2 -15 2 -3 7 2 10 11 7 17 1 20 -8 4z"/>
<path d="M2970 2632 c0 -5 7 -9 15 -9 8 0 12 4 9 9 -3 4 -9 8 -15 8 -5 0 -9
-4 -9 -8z"/>
<path d="M3017 2623 c3 -7 6 -13 8 -13 2 0 5 6 8 13 3 8 -1 14 -8 14 -7 0 -11
-6 -8 -14z"/>
<path d="M3106 2605 c19 -15 19 -16 -1 -13 -11 2 -24 8 -28 13 -4 6 -7 3 -5
-7 2 -9 -1 -16 -7 -15 -5 1 -8 8 -7 16 2 9 -2 12 -13 7 -9 -3 -19 -6 -21 -6
-2 0 -4 -8 -4 -17 0 -15 1 -15 13 1 12 16 13 16 13 -3 0 -12 -4 -21 -9 -21 -4
0 -5 -4 -2 -10 3 -6 17 1 32 15 15 13 30 22 35 19 4 -3 13 -2 18 1 13 8 -6 35
-23 35 -6 0 -2 -7 9 -15z"/>
<path d="M2958 2603 c7 -3 16 -2 19 1 4 3 -2 6 -13 5 -11 0 -14 -3 -6 -6z"/>
<path d="M2920 2592 c0 -5 9 -17 20 -27 11 -10 20 -15 20 -12 0 4 -9 16 -20
27 -11 11 -20 16 -20 12z"/>
<path d="M3152 2576 c4 -5 3 -15 -2 -21 -7 -9 -6 -16 5 -25 8 -7 15 -11 16 -9
6 31 5 40 -9 51 -10 7 -14 8 -10 4z m15 -31 c0 -8 -4 -12 -9 -9 -5 3 -6 10 -3
15 9 13 12 11 12 -6z"/>
<path d="M3086 2561 c-3 -4 4 -17 17 -27 22 -19 22 -19 4 2 -9 11 -14 24 -10
27 3 4 4 7 0 7 -3 0 -8 -4 -11 -9z"/>
<path d="M3004 2538 c-4 -7 -3 -10 1 -5 5 4 20 -3 34 -15 l26 -23 -24 28 c-28
31 -28 31 -37 15z"/>
<path d="M3188 2513 c6 -2 9 -10 6 -15 -4 -7 -2 -8 5 -4 13 9 5 26 -12 25 -9
0 -8 -2 1 -6z"/>
<path d="M3060 2490 c-9 -6 -10 -10 -3 -10 6 0 15 5 18 10 8 12 4 12 -15 0z"/>
<path d="M3253 2485 c0 -7 6 -11 14 -8 7 3 13 6 13 8 0 2 -6 5 -13 8 -8 3 -14
-1 -14 -8z"/>
<path d="M3306 2459 c3 -5 12 -9 20 -9 8 0 12 -4 9 -10 -4 -6 1 -7 11 -3 15 5
14 7 -2 17 -25 14 -46 17 -38 5z"/>
<path d="M3120 2450 c8 -5 15 -15 15 -22 0 -7 5 -13 12 -13 6 0 23 -10 37 -22
14 -13 26 -19 26 -14 0 5 -10 16 -22 25 -13 10 -16 15 -7 13 10 -3 15 2 15 18
0 13 -4 21 -8 19 -5 -3 -6 -9 -3 -14 11 -18 -23 -17 -38 1 -9 10 -22 19 -29
19 -9 0 -8 -3 2 -10z"/>
<path d="M3225 2441 c-3 -5 -1 -12 5 -16 6 -4 8 -10 6 -14 -3 -4 0 -13 5 -21
7 -11 8 -8 5 10 -3 14 -5 27 -6 30 -2 3 -2 8 -1 13 1 10 -7 9 -14 -2z"/>
<path d="M3265 2411 c-3 -5 -2 -12 3 -15 5 -3 9 1 9 9 0 17 -3 19 -12 6z"/>
<path d="M3383 2402 c-9 -6 -7 -11 6 -19 15 -10 19 -9 17 2 -3 20 -10 25 -23
17z"/>
<path d="M3444 2393 c3 -6 1 -13 -6 -15 -6 -2 -12 -12 -14 -21 -1 -9 2 -15 7
-11 5 3 6 10 3 16 -4 6 -1 9 7 6 8 -3 14 -10 14 -15 0 -6 3 -14 6 -17 3 -4 5
5 5 19 -1 13 -8 30 -15 37 -9 8 -11 9 -7 1z"/>
<path d="M3359 2366 c6 -7 7 -17 3 -22 -4 -4 1 -2 11 5 19 15 16 24 -9 27 -11
2 -12 -1 -5 -10z"/>
<path d="M3226 2358 c3 -5 10 -6 15 -3 13 9 11 12 -6 12 -8 0 -12 -4 -9 -9z"/>
<path d="M3279 2343 c-12 -16 -12 -17 2 -6 9 7 20 9 24 5 5 -4 5 -1 1 6 -9 16
-11 15 -27 -5z"/>
<path d="M3524 2328 c-4 -5 -3 -12 0 -15 3 -4 6 0 6 7 0 9 5 7 14 -5 8 -11 12
-24 9 -29 -4 -5 -1 -6 6 -2 9 6 9 11 1 21 -7 8 -9 18 -6 23 3 5 -2 9 -10 9 -8
0 -17 -4 -20 -9z"/>
<path d="M3409 2308 c-9 -30 -6 -37 12 -28 23 13 25 22 2 13 -11 -4 -14 -3 -9
5 4 7 5 12 2 12 -3 0 -6 -1 -7 -2z"/>
<path d="M3420 2257 c0 -3 13 -15 28 -26 22 -15 29 -17 29 -6 0 8 -4 12 -9 9
-4 -3 -8 0 -8 7 0 7 -3 9 -7 6 -3 -4 -12 -2 -20 4 -7 6 -13 9 -13 6z"/>
<path d="M3556 2242 c-3 -5 1 -9 9 -9 8 0 12 4 9 9 -3 4 -7 8 -9 8 -2 0 -6 -4
-9 -8z"/>
<path d="M3599 2238 c-5 -18 -6 -38 -1 -34 7 8 12 36 6 36 -2 0 -4 -1 -5 -2z"/>
<path d="M3760 2230 c8 -5 20 -10 25 -10 6 0 3 5 -5 10 -8 5 -19 10 -25 10 -5
0 -3 -5 5 -10z"/>
<path d="M3633 2211 c0 -11 5 -18 9 -15 4 3 5 11 1 19 -7 21 -12 19 -10 -4z"/>
<path d="M3541 2204 c0 -11 3 -14 6 -6 3 7 2 16 -1 19 -3 4 -6 -2 -5 -13z"/>
<path d="M3594 2172 c2 -9 10 -16 20 -18 13 -2 14 1 7 10 -6 7 -9 15 -6 18 3
2 -1 5 -9 5 -7 0 -13 -7 -12 -15z"/>
<path d="M53 10217 c0 -8 6 -14 14 -14 9 0 10 4 2 14 -6 7 -12 13 -14 13 -1 0
-2 -6 -2 -13z"/>
<path d="M150 10207 c0 -15 -3 -16 -22 -6 -22 12 -22 11 -5 -8 9 -11 16 -22
15 -24 -2 -2 5 4 16 14 13 14 15 22 7 30 -8 8 -11 6 -11 -6z"/>
<path d="M328 10203 c-25 -6 -22 -16 13 -42 18 -13 29 -19 25 -12 -5 7 1 11
13 11 21 0 27 11 14 23 -3 4 -16 -1 -27 -10 -20 -17 -20 -17 -7 0 10 12 10 17
2 17 -7 0 -9 5 -6 10 6 10 2 11 -27 3z"/>
<path d="M450 10190 c0 -6 7 -10 15 -10 8 0 15 2 15 4 0 2 -7 6 -15 10 -8 3
-15 1 -15 -4z"/>
<path d="M1055 10155 c-16 -13 -25 -24 -19 -25 6 0 21 11 34 25 30 32 24 32
-15 0z"/>
<path d="M580 10140 c0 -5 5 -10 10 -10 6 0 10 5 10 10 0 6 -4 10 -10 10 -5 0
-10 -4 -10 -10z"/>
<path d="M85 10130 c-3 -6 1 -7 9 -4 18 7 21 14 7 14 -6 0 -13 -4 -16 -10z"/>
<path d="M525 10130 c-4 -6 -11 -8 -16 -4 -5 3 -9 2 -8 -3 4 -21 -3 -31 -21
-36 -14 -4 -20 0 -21 11 0 11 -2 12 -6 5 -2 -7 -9 -13 -14 -13 -6 0 -8 4 -5 8
2 4 -4 8 -14 9 -11 1 -20 -7 -24 -20 -7 -27 1 -35 17 -17 9 10 9 11 0 6 -9 -5
-11 -2 -7 8 8 20 25 10 22 -12 -2 -10 3 -16 10 -14 8 1 11 -2 7 -8 -3 -5 1
-10 9 -10 9 0 15 5 14 12 -2 6 8 17 22 25 14 7 24 18 22 25 -2 8 0 8 10 0 8
-6 19 -7 27 -3 11 7 9 11 -5 20 -11 6 -14 11 -8 11 6 0 17 -6 23 -14 10 -11 8
-16 -6 -24 -14 -8 -10 -10 19 -9 32 1 34 3 20 14 -9 7 -12 13 -7 13 9 0 -41
30 -51 30 -1 0 -6 -5 -9 -10z"/>
<path d="M40 10125 c0 -3 9 -14 20 -25 11 -11 20 -16 20 -11 0 5 -7 17 -16 25
-16 16 -24 20 -24 11z"/>
<path d="M307 10103 c-11 -14 -25 -22 -33 -19 -12 5 -12 2 -3 -17 7 -12 12
-23 11 -25 -1 -2 -20 -16 -42 -31 -42 -28 -84 -34 -86 -13 -1 7 -2 17 -3 23 0
5 -5 8 -10 4 -18 -10 -21 13 -4 26 10 8 14 9 10 2 -4 -7 0 -16 10 -22 10 -5
17 -13 15 -18 -6 -17 35 -13 58 7 12 11 18 20 12 20 -7 0 -12 5 -12 10 0 6 6
9 13 8 6 -2 12 4 12 13 0 9 7 24 15 34 14 17 13 17 -7 6 -13 -6 -23 -8 -23 -4
0 4 -6 1 -12 -6 -7 -6 -13 -29 -13 -49 0 -28 -4 -38 -19 -40 -17 -4 -18 -3 -2
19 14 21 14 25 0 40 -14 16 -17 16 -45 1 -16 -10 -29 -21 -29 -25 0 -4 -6 -2
-14 5 -8 7 -12 17 -9 21 3 5 -4 4 -16 -2 -26 -14 -27 -19 -4 -17 10 0 17 -5
16 -11 -2 -7 0 -12 5 -11 11 4 53 -28 46 -35 -4 -4 -1 -13 6 -22 11 -13 10
-14 -4 -9 -9 3 -24 18 -32 33 -8 14 -13 18 -10 9 8 -28 -7 -21 -34 16 -14 19
-27 33 -29 31 -2 -3 8 -18 23 -36 17 -20 23 -35 18 -43 -5 -6 -8 -19 -6 -29 2
-14 -2 -17 -14 -12 -38 16 -50 16 -56 0 -7 -19 11 -48 24 -40 5 3 7 -3 5 -12
-1 -10 -9 -17 -19 -15 -9 2 -16 -1 -16 -6 0 -16 12 -21 29 -12 10 5 23 5 31 0
8 -5 22 -4 34 2 17 9 19 8 9 -3 -7 -7 -27 -14 -45 -15 -59 -3 -64 -5 -40 -14
29 -12 71 3 98 36 16 19 24 23 29 14 5 -9 4 -11 -3 -6 -7 4 -12 2 -12 -3 0
-14 4 -14 43 2 35 14 116 14 126 1 8 -11 41 -14 41 -4 0 12 49 22 63 13 7 -4
21 -9 32 -10 16 -3 17 -1 5 7 -13 9 -12 12 4 25 12 9 15 15 7 15 -8 0 -11 6
-6 18 11 29 11 37 -3 34 -8 -1 -11 2 -7 8 3 5 -1 10 -10 10 -9 0 -14 -4 -10
-9 3 -5 0 -13 -6 -17 -8 -4 -9 -3 -5 4 4 7 1 12 -9 12 -9 0 -14 -4 -11 -9 3
-4 -7 -6 -22 -3 -22 5 -23 7 -7 10 11 2 24 8 29 13 6 5 1 7 -12 4 -12 -2 -22
0 -22 6 0 5 -5 9 -11 9 -5 0 -8 -4 -4 -9 3 -5 1 -12 -4 -16 -6 -3 -8 3 -6 14
2 11 -3 22 -10 25 -17 6 -27 -18 -12 -33 6 -6 7 -11 3 -11 -5 0 -3 -7 4 -15 7
-9 10 -18 6 -22 -3 -3 -6 -1 -6 5 0 6 -7 9 -16 5 -14 -5 -15 -3 -5 15 7 14 8
23 1 27 -6 4 -8 10 -5 15 3 4 -5 6 -17 2 -14 -3 -19 -2 -14 7 4 6 11 9 15 7 4
-3 13 0 21 5 13 7 13 10 1 18 -9 6 -10 11 -2 15 6 4 8 12 5 18 -5 8 -1 9 10 5
10 -4 22 -7 27 -7 5 0 9 -4 9 -9 0 -5 -9 -7 -20 -4 -12 3 -20 0 -20 -6 0 -7 4
-10 9 -6 10 5 37 -17 43 -35 5 -15 101 -21 111 -6 6 7 7 4 3 -6 -3 -12 0 -18
9 -18 7 0 16 -4 20 -9 3 -6 -3 -8 -13 -6 -11 2 -19 -3 -19 -11 0 -8 4 -14 9
-14 4 0 8 6 8 13 0 7 3 8 8 2 4 -5 16 -12 27 -14 19 -3 19 -2 2 16 -9 11 -17
24 -17 30 0 13 31 13 48 0 8 -6 12 -6 12 2 0 6 -7 14 -16 18 -13 5 -13 7 -2
14 10 7 9 9 -4 9 -9 0 -20 -5 -23 -10 -4 -6 -11 -7 -17 -4 -6 4 -8 2 -4 -4 3
-6 2 -13 -3 -16 -5 -3 -12 1 -15 9 -4 10 3 19 19 25 14 5 25 12 25 15 0 4 -4
3 -10 0 -5 -3 -10 -2 -10 4 0 18 20 23 26 7 3 -9 10 -16 16 -16 5 0 6 5 2 12
-4 6 -3 8 4 4 6 -3 9 -15 7 -26 -2 -11 0 -20 6 -20 5 0 9 -8 10 -17 0 -15 2
-15 8 2 6 13 4 23 -4 28 -7 4 -12 15 -11 24 4 27 -33 42 -66 25 -16 -7 -25
-19 -22 -26 8 -21 -11 -27 -40 -12 -14 7 -24 15 -22 17 2 2 -10 5 -27 6 -32 1
-32 1 -7 -10 28 -13 37 -34 15 -34 -8 0 -12 4 -10 8 3 4 -2 10 -11 13 -8 3
-12 2 -9 -4 3 -6 1 -10 -4 -10 -6 0 -12 6 -12 13 -2 20 -5 31 -11 47 -4 8 -8
22 -10 32 -2 13 -6 12 -21 -9z m-67 -28 c11 -13 10 -14 -4 -9 -9 3 -16 10 -16
15 0 13 6 11 20 -6z m-50 -14 c0 -12 -20 -25 -27 -18 -7 7 6 27 18 27 5 0 9
-4 9 -9z m84 -87 c3 -8 2 -13 -3 -10 -5 3 -11 -1 -15 -9 -3 -8 -1 -15 4 -15 5
0 7 -7 4 -15 -4 -10 0 -13 15 -10 11 2 20 1 20 -3 -3 -20 3 -25 12 -12 9 13
10 13 6 0 -4 -17 -63 -20 -60 -3 1 6 -4 14 -12 17 -9 3 -12 0 -8 -10 5 -13 -8
-19 -31 -15 -4 1 -13 -3 -20 -8 -7 -6 -18 -4 -30 5 -11 8 -15 14 -10 14 6 0
15 -5 22 -12 9 -9 12 -9 12 1 0 7 8 11 18 9 11 -2 20 0 20 5 5 20 1 27 -10 20
-20 -12 -40 -13 -36 -1 2 5 6 8 8 7 3 -1 16 3 29 10 14 8 21 9 17 2 -4 -6 0
-11 9 -11 13 0 14 4 4 21 -8 15 -14 18 -22 10 -6 -6 -19 -11 -29 -11 -10 0
-18 -5 -18 -10 0 -16 -43 -29 -57 -18 -9 8 -13 6 -13 -5 0 -8 -7 -20 -15 -27
-8 -7 -12 -16 -9 -21 3 -5 -2 -6 -10 -3 -18 7 -22 25 -5 22 7 -2 16 12 21 29
10 37 37 56 59 42 20 -13 29 -11 29 6 0 8 5 15 11 15 5 0 7 -6 3 -12 -6 -10
-5 -10 8 -1 8 7 18 10 21 6 4 -3 7 -1 7 5 0 18 47 14 54 -4z m-164 2 c0 -2 -7
-7 -16 -10 -8 -3 -12 -2 -9 4 6 10 25 14 25 6z m-70 -46 c0 -5 5 -9 11 -7 6 1
13 -3 16 -10 3 -8 -5 -11 -21 -9 -31 3 -40 11 -31 25 8 14 25 14 25 1z m383 1
c4 -1 3 -9 -2 -20 -6 -10 -7 -22 -3 -26 4 -4 -2 -3 -14 3 -15 8 -24 8 -32 0
-9 -9 -12 -8 -12 5 0 9 -5 16 -11 15 -6 -2 -14 4 -16 12 -4 13 -3 13 6 0 7
-10 11 -11 11 -3 0 7 7 10 17 6 11 -4 14 -3 9 5 -5 8 0 11 16 8 13 -3 27 -5
31 -5z m-313 -51 c0 -5 -5 -10 -11 -10 -5 0 -7 5 -4 10 3 6 8 10 11 10 2 0 4
-4 4 -10z"/>
<path d="M240 9969 c0 -5 5 -7 10 -4 6 3 10 8 10 11 0 2 -4 4 -10 4 -5 0 -10
-5 -10 -11z"/>
<path d="M111 9934 c6 -7 17 -10 25 -7 22 8 16 19 -11 19 -18 0 -22 -3 -14
-12z"/>
<path d="M266 9902 c-3 -5 1 -9 9 -9 8 0 12 4 9 9 -3 4 -7 8 -9 8 -2 0 -6 -4
-9 -8z"/>
<path d="M396 9915 c-3 -8 -1 -15 4 -15 6 0 10 7 10 15 0 8 -2 15 -4 15 -2 0
-6 -7 -10 -15z"/>
<path d="M340 10105 c0 -23 24 -40 41 -29 11 6 12 44 2 45 -5 0 -16 2 -25 4
-13 2 -18 -3 -18 -20z m36 -10 c3 -17 -12 -20 -21 -5 -3 6 -1 10 5 10 6 0 8 6
4 13 -4 6 -3 8 1 4 5 -4 10 -14 11 -22z"/>
<path d="M45 10090 c3 -5 8 -10 11 -10 2 0 4 5 4 10 0 6 -5 10 -11 10 -5 0 -7
-4 -4 -10z"/>
<path d="M15 10010 c-12 -19 -14 -50 -4 -50 6 0 9 6 6 13 -2 6 0 20 5 30 9 18
4 24 -7 7z"/>
<path d="M45 9960 c3 -5 8 -10 11 -10 2 0 4 5 4 10 0 6 -5 10 -11 10 -5 0 -7
-4 -4 -10z"/>
<path d="M581 9941 c-8 -5 -9 -11 -3 -15 6 -3 13 -2 16 2 3 5 18 7 33 5 22 -4
25 -2 13 6 -18 13 -40 14 -59 2z"/>
<path d="M546 9855 c-6 -17 10 -30 19 -15 4 6 12 7 18 3 7 -4 18 -8 25 -9 10
-2 10 2 -2 15 -19 21 -53 24 -60 6z"/>
<path d="M4 9786 c0 -17 4 -22 15 -18 8 3 12 1 8 -5 -8 -13 12 -30 35 -30 13
0 10 8 -15 39 -35 44 -43 47 -43 14z"/>
<path d="M55 9800 c-3 -5 -1 -10 4 -10 6 0 11 5 11 10 0 6 -2 10 -4 10 -3 0
-8 -4 -11 -10z"/>
<path d="M6 9741 c-4 -5 -2 -12 3 -15 5 -4 12 -2 15 3 4 5 2 12 -3 15 -5 4
-12 2 -15 -3z"/>
</g>
</svg>
